<svg xmlns="http://www.w3.org/2000/svg" xmlns:xlink="http://www.w3.org/1999/xlink" width="500" zoomAndPan="magnify" viewBox="0 0 375 374.999991" height="500" preserveAspectRatio="xMidYMid meet" version="1.0"><defs><g/><clipPath id="9a9fde2d8a"><path d="M 13 144.167969 L 367 144.167969 L 367 339 L 13 339 Z M 13 144.167969 " clip-rule="nonzero"/></clipPath></defs><path fill="#fdbe00" d="M 234.167969 235.902344 C 227.097656 242.75 215.054688 248.097656 205.601562 250.738281 C 200.398438 252.164062 195.238281 253.984375 189.808594 254.3125 C 184.191406 254.574219 178.445312 255.269531 172.875 254.25 C 164.722656 252.519531 156.976562 249.152344 150.921875 243.324219 C 145.003906 238.390625 141.246094 230.90625 142.617188 223.117188 C 140.894531 226.351562 137.660156 224.898438 137.03125 221.777344 C 136.664062 220.234375 136.414062 218.652344 136.40625 217.0625 C 136.355469 208.875 141.285156 201.753906 146.972656 196.273438 C 152.324219 189.636719 159.515625 185.25 167.375 182.152344 C 175.035156 178.203125 182.121094 175.582031 190.875 175.941406 C 196.238281 175.523438 201.6875 175.59375 206.828125 177.355469 C 214.726562 179.519531 221.875 183.503906 228.582031 188.113281 C 231.878906 190.113281 235.492188 191.941406 237.746094 195.1875 C 240.542969 199.179688 241.691406 204.070312 242.070312 208.867188 C 243.03125 218.488281 241.148438 228.785156 234.167969 235.902344 Z M 234.167969 235.902344 " fill-opacity="1" fill-rule="nonzero"/><path fill="#ffffff" d="M 202.734375 198.644531 C 204.320312 201.640625 203.800781 207.792969 199.722656 208.3125 C 197.320312 208.039062 197.019531 205.097656 195.566406 203.613281 C 191.367188 200.230469 186.777344 196.792969 181.453125 195.492188 C 176.214844 193.855469 170.5625 193.871094 165.324219 195.519531 C 162.699219 197.246094 160.570312 196.308594 159.863281 193.261719 C 158.535156 187.636719 161.941406 184.460938 167.160156 183.316406 C 172.726562 181.71875 178.570312 182.101562 184.058594 183.816406 C 187.976562 184.816406 191.296875 187.191406 194.523438 189.53125 C 198.035156 191.820312 201.09375 194.71875 202.734375 198.644531 Z M 210.734375 207.042969 C 210.285156 206.207031 209.464844 205.269531 208.421875 205.269531 C 205.835938 205.269531 204.820312 208.613281 204.707031 210.683594 C 204.628906 212.042969 204.828125 213.492188 205.480469 214.703125 C 205.933594 215.539062 206.753906 216.476562 207.796875 216.476562 C 210.378906 216.476562 211.394531 213.132812 211.511719 211.0625 C 211.589844 209.703125 211.390625 208.253906 210.734375 207.042969 Z M 210.734375 207.042969 " fill-opacity="1" fill-rule="nonzero"/><g clip-path="url(#9a9fde2d8a)"><path fill="#0e1111" d="M 206.636719 175.394531 C 200.292969 171.945312 192.738281 171.84375 185.78125 170.367188 C 178.417969 169.339844 170.792969 169.394531 163.691406 171.800781 C 154.09375 173.796875 145.445312 178.339844 138.269531 185.019531 C 129.125 192.601562 120.589844 202.066406 119.429688 214.386719 C 117.253906 228.941406 128.640625 236.742188 140.847656 241.039062 C 153.226562 245.660156 166.203125 248.394531 179.398438 249.0625 C 190.53125 249.496094 202.046875 247.210938 211.128906 240.472656 C 221.199219 234.199219 230.28125 223.945312 231.652344 211.792969 C 239.035156 203.953125 229.34375 193.898438 224.082031 187.746094 C 218.894531 182.84375 212.839844 178.898438 206.636719 175.394531 Z M 226.292969 215.117188 C 223.964844 224.066406 215.472656 229.152344 207.386719 232.324219 C 199.253906 235.332031 190.3125 235.4375 181.730469 235.636719 C 176.171875 235.492188 170.628906 236.386719 165.078125 235.851562 C 155.238281 235.242188 145.925781 231.332031 138.132812 225.375 C 120.503906 213.554688 133.960938 194.996094 146.605469 185.558594 C 150.734375 182.183594 155.894531 181.058594 161.03125 180.234375 C 170.914062 177.886719 181.03125 180.585938 190.859375 182.027344 C 196.6875 182.652344 201.773438 185.441406 206.34375 188.96875 C 211.039062 192.382812 215.882812 195.757812 219.46875 200.390625 C 222.914062 204.652344 227.035156 209.226562 226.292969 215.117188 Z M 363.3125 250.714844 C 357.582031 239.5 347.402344 230.996094 336.730469 224.632812 C 332.773438 221.597656 317.019531 215.34375 316.503906 211.730469 C 317.363281 199.195312 304.636719 192.4375 296.179688 185.507812 C 285.335938 177.394531 273.359375 171.082031 260.449219 166.980469 C 256.539062 165.261719 253.265625 162.542969 249.628906 160.378906 C 239.917969 155.902344 230.285156 150.957031 219.871094 148.308594 C 209.496094 146.019531 198.820312 144.167969 188.164062 145.085938 C 172.277344 146.964844 156.539062 149.898438 140.714844 152.1875 C 133.269531 153.496094 125.640625 153.882812 118.429688 156.308594 C 111.96875 158.742188 105.183594 160.527344 99.089844 163.816406 C 90.699219 168.578125 82.234375 173.582031 76.09375 181.195312 C 69.675781 188.332031 67.621094 196.089844 72.511719 204.742188 C 67.492188 207.355469 62.105469 209.136719 57.015625 211.582031 C 51.402344 214.621094 46.394531 218.746094 41.636719 222.96875 C 21.863281 242.1875 0.046875 274.164062 23.097656 299.132812 C 28.277344 304.414062 34.558594 308.621094 41.03125 312.160156 C 44.636719 313.996094 48.691406 314.617188 52.402344 316.195312 C 65.230469 321.21875 79.261719 321.84375 92.671875 324.625 C 110.871094 328.449219 128.867188 332.726562 147.421875 334.746094 C 162.210938 335.472656 177.023438 336.164062 191.765625 337.59375 C 208.503906 339.054688 226.746094 339.183594 241.375 329.804688 C 246.625 325.289062 252.582031 322.246094 258.609375 318.941406 C 269.429688 312.308594 273.113281 309.792969 286.3125 309.421875 C 301.066406 309.039062 316.089844 307.914062 329.875 302.253906 C 352.222656 291.378906 374.929688 279.628906 363.3125 250.714844 Z M 335.398438 289.148438 C 316.605469 297.25 295.554688 297.589844 276.222656 304.027344 C 268.925781 306.234375 263.003906 311.304688 255.90625 314.019531 C 249.820312 315.828125 244.402344 318.875 238.953125 322.03125 C 229.734375 325.535156 219.867188 326.175781 210.105469 326.515625 C 199.5625 326.734375 188.980469 326.875 178.464844 326.039062 C 164.425781 323.898438 150.433594 321.195312 136.265625 319.921875 C 114.648438 318.65625 92.230469 320.726562 71.746094 312.320312 C 61.796875 308.324219 51.554688 304.578125 43.058594 297.867188 C 37.246094 293.488281 31.074219 289.316406 26.777344 283.335938 C 19.855469 274.363281 20.976562 265.765625 23.429688 255.371094 C 28.792969 240.824219 40.652344 229.476562 54.742188 223.304688 C 60.511719 221.347656 66.53125 220.113281 72.011719 217.34375 C 78.722656 214.371094 85.644531 207.742188 84.175781 199.789062 C 83.242188 195.976562 79.777344 193.222656 79.089844 189.355469 C 84.097656 179.933594 95.5 175.988281 105.019531 172.601562 C 111.679688 170.710938 117.976562 167.761719 124.644531 165.878906 C 134.089844 163.246094 143.269531 159.765625 152.855469 157.621094 C 168.171875 154.59375 183.964844 154.296875 199.542969 155.488281 C 213.246094 156.828125 225.730469 162.511719 238.09375 168.164062 C 237.707031 173.035156 243.355469 170.496094 246.023438 171.878906 C 247.914062 173.300781 250.246094 173.71875 252.101562 175.164062 C 255.488281 177.492188 259.472656 178.84375 263.242188 180.613281 C 270.855469 184.28125 277.984375 188.84375 285.246094 193.140625 C 290.847656 196.40625 296.777344 199.074219 302.324219 202.425781 C 305.109375 204.039062 307.984375 205.5 309.855469 208.253906 C 312.195312 211.085938 310.558594 215.097656 312.613281 218.03125 C 316.601562 222.347656 322.25 224.917969 326.605469 228.914062 C 329.050781 231.074219 331.488281 233.246094 333.988281 235.347656 C 343.820312 244.820312 355.226562 255.074219 357.082031 269.324219 C 358.472656 281.402344 343.789062 284.691406 335.398438 289.148438 Z M 332.738281 258.253906 C 333.070312 261.425781 330.230469 267.875 326.363281 265.285156 C 324.582031 263.371094 325.175781 260.4375 324.777344 258.046875 C 325.066406 255.003906 323.6875 252.191406 324.011719 249.191406 C 324.207031 245.617188 328.953125 240.753906 330.953125 245.984375 C 332.59375 249.84375 332.148438 254.171875 332.738281 258.253906 Z M 321.65625 276.183594 C 319.921875 278.621094 315.808594 285.503906 313.015625 280.71875 C 311.132812 276.339844 314.417969 271.980469 317.535156 269.234375 C 318.304688 268.410156 319.308594 267.769531 320.453125 268.070312 C 323.484375 269.324219 322.839844 273.785156 321.65625 276.183594 Z M 321.65625 276.183594 " fill-opacity="1" fill-rule="nonzero"/></g><g fill="#000000" fill-opacity="1"><g transform="translate(1.113286, 124.417269)"><g><path d="M 45.195312 -28.71875 C 45.195312 -24.71875 43.996094 -21.4375 41.597656 -18.957031 C 39.117188 -16.480469 34.796875 -15.199219 28.398438 -15.199219 L 24.320312 -15.199219 C 23.757812 -15.199219 23.359375 -15.359375 23.117188 -15.757812 C 22.878906 -16.078125 22.71875 -16.398438 22.71875 -16.800781 L 22.71875 -41.835938 C 22.71875 -42.238281 22.878906 -42.558594 23.117188 -42.957031 C 23.359375 -43.355469 23.757812 -43.515625 24.320312 -43.515625 L 28.398438 -43.515625 C 34.796875 -43.4375 39.117188 -42.15625 41.597656 -39.675781 C 43.996094 -37.199219 45.195312 -33.996094 45.195312 -30 Z M 1.519531 -1.601562 C 1.519531 1.039062 2.160156 2.960938 3.601562 4.320312 C 5.039062 5.601562 7.039062 6.238281 9.597656 6.238281 L 24.957031 6.238281 C 39.277344 6.160156 49.835938 3.441406 56.476562 -1.917969 C 63.117188 -7.359375 66.476562 -15.597656 66.476562 -26.878906 L 66.476562 -31.597656 C 66.476562 -42.878906 63.117188 -51.355469 56.476562 -56.796875 C 49.835938 -62.234375 39.277344 -65.035156 24.957031 -65.035156 L 9.597656 -65.035156 C 7.039062 -65.035156 5.039062 -64.394531 3.601562 -63.035156 C 2.160156 -61.675781 1.519531 -59.757812 1.519531 -57.195312 Z M 1.519531 -1.601562 "/></g></g></g><g fill="#000000" fill-opacity="1"><g transform="translate(69.106681, 124.417269)"><g><path d="M 36.238281 -28.636719 L 22.957031 -28.636719 C 23.199219 -30.558594 23.679688 -31.917969 24.398438 -32.878906 C 25.359375 -34.238281 27.039062 -34.878906 29.199219 -34.878906 L 30 -34.878906 C 32.15625 -34.878906 33.757812 -34.238281 34.796875 -32.878906 C 35.519531 -31.917969 35.996094 -30.558594 36.238281 -28.636719 Z M 50.957031 -8 L 29.199219 -8 C 27.039062 -8 25.359375 -8.558594 24.398438 -9.917969 C 23.679688 -10.878906 23.199219 -12.238281 22.957031 -14.160156 L 51.035156 -14.160156 C 53.4375 -14.160156 55.117188 -14.71875 56.15625 -15.679688 C 57.195312 -16.71875 57.675781 -18.640625 57.597656 -21.597656 L 57.597656 -23.4375 C 57.597656 -33.039062 55.277344 -39.675781 50.71875 -43.515625 C 46.078125 -47.355469 39.515625 -49.277344 31.039062 -49.355469 L 28.238281 -49.355469 C 19.679688 -49.277344 13.121094 -47.355469 8.480469 -43.515625 C 3.917969 -39.675781 1.679688 -33.039062 1.679688 -23.4375 L 1.679688 -19.679688 C 1.679688 -10.078125 3.917969 -3.441406 8.480469 0.398438 C 13.121094 4.238281 19.679688 6.160156 28.238281 6.238281 L 50.957031 6.238281 C 53.355469 6.238281 55.035156 5.757812 56.078125 4.800781 C 57.117188 3.757812 57.597656 1.761719 57.515625 -0.960938 L 57.515625 -1.359375 C 57.4375 -3.757812 56.875 -5.519531 55.917969 -6.558594 C 55.035156 -7.597656 53.355469 -8.078125 50.957031 -8 Z M 50.957031 -8 "/></g></g></g><g fill="#000000" fill-opacity="1"><g transform="translate(128.300933, 124.417269)"><g><path d="M 24.796875 -42.796875 C 23.917969 -45.277344 22.878906 -47.117188 21.679688 -48.15625 C 20.558594 -49.117188 18.558594 -49.597656 16 -49.515625 L 8.320312 -49.515625 C 5.839844 -49.4375 4.160156 -48.957031 3.121094 -48.078125 C 2.078125 -47.035156 1.601562 -45.277344 1.679688 -42.796875 C 1.839844 -40.796875 2.238281 -38.878906 2.878906 -37.199219 L 17.277344 0 C 18.238281 2.238281 19.199219 4 20.320312 5.039062 C 21.359375 6 23.117188 6.480469 25.519531 6.398438 L 33.679688 6.398438 C 36.078125 6.480469 37.917969 6 38.957031 5.039062 C 39.996094 4 41.039062 2.238281 41.917969 0 L 56.316406 -37.199219 C 56.957031 -38.878906 57.355469 -40.796875 57.597656 -42.796875 C 57.675781 -45.277344 57.195312 -47.035156 56.15625 -48.078125 C 55.117188 -48.957031 53.355469 -49.4375 50.957031 -49.515625 L 43.199219 -49.515625 C 40.636719 -49.597656 38.71875 -49.117188 37.597656 -48.15625 C 36.398438 -47.117188 35.277344 -45.277344 34.476562 -42.796875 L 29.597656 -30.078125 Z M 24.796875 -42.796875 "/></g></g></g><g fill="#000000" fill-opacity="1"><g transform="translate(187.495185, 124.417269)"><g><path d="M 8.238281 6.160156 L 59.757812 6.160156 C 62.234375 6.160156 63.996094 5.601562 65.035156 4.640625 C 65.996094 3.601562 66.476562 1.761719 66.476562 -0.640625 L 66.476562 -5.917969 C 66.476562 -8.320312 65.996094 -10.160156 65.035156 -11.199219 C 63.996094 -12.160156 62.234375 -12.71875 59.757812 -12.71875 L 23.839844 -12.71875 L 23.839844 -19.757812 L 59.757812 -19.757812 C 62.234375 -19.757812 63.996094 -20.320312 65.035156 -21.359375 C 65.996094 -22.320312 66.476562 -24.160156 66.476562 -26.558594 L 66.476562 -31.839844 C 66.476562 -34.316406 65.996094 -36.078125 65.035156 -37.117188 C 63.996094 -38.15625 62.234375 -38.636719 59.757812 -38.636719 L 23.839844 -38.636719 L 23.839844 -45.996094 L 59.757812 -45.996094 C 62.234375 -45.996094 63.996094 -46.558594 65.035156 -47.597656 C 65.996094 -48.558594 66.476562 -50.398438 66.476562 -52.796875 L 66.476562 -58.15625 C 66.476562 -60.554688 65.996094 -62.316406 65.035156 -63.355469 C 63.996094 -64.394531 62.234375 -64.957031 59.757812 -64.957031 L 8.238281 -64.957031 C 5.679688 -64.957031 4 -64.394531 2.960938 -63.355469 C 1.917969 -62.316406 1.519531 -60.554688 1.519531 -58.15625 L 1.519531 -0.558594 C 1.519531 1.917969 2 3.679688 3.039062 4.71875 C 4.078125 5.601562 5.757812 6.078125 8.238281 6.160156 Z M 8.238281 6.160156 "/></g></g></g><g fill="#000000" fill-opacity="1"><g transform="translate(255.48858, 124.417269)"><g><path d="M 57.597656 -14.71875 L 57.597656 -43.355469 C 57.515625 -45.4375 56.957031 -47.117188 55.917969 -48.15625 C 54.875 -49.117188 53.035156 -49.597656 50.636719 -49.515625 L 42.957031 -49.515625 C 41.355469 -49.4375 39.996094 -49.195312 38.957031 -48.796875 C 36.558594 -49.117188 33.917969 -49.277344 31.039062 -49.355469 L 28.238281 -49.355469 C 19.679688 -49.277344 13.121094 -47.835938 8.480469 -44.957031 C 3.917969 -41.996094 1.679688 -37.039062 1.679688 -29.757812 L 1.679688 -26.878906 C 1.679688 -19.597656 3.917969 -14.640625 8.480469 -11.679688 C 13.121094 -8.800781 19.679688 -7.441406 28.238281 -7.359375 L 31.039062 -7.359375 C 32.71875 -7.359375 34.398438 -7.441406 35.917969 -7.597656 C 35.679688 -6.558594 35.277344 -5.757812 34.878906 -5.121094 C 33.835938 -3.839844 32.15625 -3.199219 30 -3.199219 L 8 -3.199219 C 5.679688 -3.121094 4.160156 -2.558594 3.121094 -1.601562 C 2.078125 -0.480469 1.679688 1.359375 1.679688 3.757812 L 1.679688 4.640625 C 1.679688 7.039062 2.160156 8.800781 3.199219 9.839844 C 4.238281 10.878906 5.839844 11.359375 8 11.277344 L 31.039062 11.277344 C 39.515625 11.199219 46.078125 9.199219 50.71875 5.359375 C 55.277344 1.601562 57.597656 -5.039062 57.597656 -14.71875 Z M 22.878906 -27.917969 L 22.878906 -28.71875 C 22.878906 -31.039062 23.4375 -32.558594 24.476562 -33.597656 C 25.4375 -34.636719 27.039062 -35.039062 29.199219 -35.039062 L 30 -35.039062 C 32.15625 -35.039062 33.835938 -34.636719 34.878906 -33.597656 C 35.835938 -32.558594 36.316406 -31.039062 36.316406 -28.71875 L 36.316406 -27.917969 C 36.316406 -25.597656 35.835938 -24.078125 34.878906 -23.039062 C 33.835938 -22 32.15625 -21.597656 30 -21.597656 L 29.199219 -21.597656 C 27.039062 -21.597656 25.4375 -22 24.476562 -23.039062 C 23.4375 -24.078125 22.878906 -25.597656 22.878906 -27.917969 Z M 22.878906 -27.917969 "/></g></g></g><g fill="#000000" fill-opacity="1"><g transform="translate(314.682844, 124.417269)"><g><path d="M 57.597656 -14.71875 L 57.597656 -43.355469 C 57.515625 -45.4375 56.957031 -47.117188 55.917969 -48.15625 C 54.875 -49.117188 53.035156 -49.597656 50.636719 -49.515625 L 42.957031 -49.515625 C 41.355469 -49.4375 39.996094 -49.195312 38.957031 -48.796875 C 36.558594 -49.117188 33.917969 -49.277344 31.039062 -49.355469 L 28.238281 -49.355469 C 19.679688 -49.277344 13.121094 -47.835938 8.480469 -44.957031 C 3.917969 -41.996094 1.679688 -37.039062 1.679688 -29.757812 L 1.679688 -26.878906 C 1.679688 -19.597656 3.917969 -14.640625 8.480469 -11.679688 C 13.121094 -8.800781 19.679688 -7.441406 28.238281 -7.359375 L 31.039062 -7.359375 C 32.71875 -7.359375 34.398438 -7.441406 35.917969 -7.597656 C 35.679688 -6.558594 35.277344 -5.757812 34.878906 -5.121094 C 33.835938 -3.839844 32.15625 -3.199219 30 -3.199219 L 8 -3.199219 C 5.679688 -3.121094 4.160156 -2.558594 3.121094 -1.601562 C 2.078125 -0.480469 1.679688 1.359375 1.679688 3.757812 L 1.679688 4.640625 C 1.679688 7.039062 2.160156 8.800781 3.199219 9.839844 C 4.238281 10.878906 5.839844 11.359375 8 11.277344 L 31.039062 11.277344 C 39.515625 11.199219 46.078125 9.199219 50.71875 5.359375 C 55.277344 1.601562 57.597656 -5.039062 57.597656 -14.71875 Z M 22.878906 -27.917969 L 22.878906 -28.71875 C 22.878906 -31.039062 23.4375 -32.558594 24.476562 -33.597656 C 25.4375 -34.636719 27.039062 -35.039062 29.199219 -35.039062 L 30 -35.039062 C 32.15625 -35.039062 33.835938 -34.636719 34.878906 -33.597656 C 35.835938 -32.558594 36.316406 -31.039062 36.316406 -28.71875 L 36.316406 -27.917969 C 36.316406 -25.597656 35.835938 -24.078125 34.878906 -23.039062 C 33.835938 -22 32.15625 -21.597656 30 -21.597656 L 29.199219 -21.597656 C 27.039062 -21.597656 25.4375 -22 24.476562 -23.039062 C 23.4375 -24.078125 22.878906 -25.597656 22.878906 -27.917969 Z M 22.878906 -27.917969 "/></g></g></g></svg>