<svg xmlns="http://www.w3.org/2000/svg" xmlns:xlink="http://www.w3.org/1999/xlink" width="500" zoomAndPan="magnify" viewBox="0 0 375 374.999991" height="500" preserveAspectRatio="xMidYMid meet" version="1.0"><defs><clipPath id="19bf37baa7"><path d="M 0 18.417969 L 369.917969 18.417969 L 369.917969 360.636719 L 0 360.636719 Z M 0 18.417969 " clip-rule="nonzero"/></clipPath><clipPath id="f2c30d07af"><path d="M 31 18.417969 L 366.746094 18.417969 L 366.746094 360.636719 L 31 360.636719 Z M 31 18.417969 " clip-rule="nonzero"/></clipPath><clipPath id="d719d03d07"><path d="M 0 14.296875 L 360 14.296875 L 360 350 L 0 350 Z M 0 14.296875 " clip-rule="nonzero"/></clipPath><clipPath id="1321a59bbe"><path d="M 27 19.210938 L 369.917969 19.210938 L 369.917969 360.636719 L 27 360.636719 Z M 27 19.210938 " clip-rule="nonzero"/></clipPath><clipPath id="cafc7ae72f"><path d="M 69.0625 106 L 374.992188 106 L 374.992188 350 L 69.0625 350 Z M 69.0625 106 " clip-rule="nonzero"/></clipPath></defs><g clip-path="url(#19bf37baa7)"><path fill="#f6836b" d="M 326.972656 286.011719 L 313.210938 265.316406 L 307.898438 265.316406 C 302.511719 272.503906 296.828125 279.429688 290.902344 286.011719 Z M 55.828125 53.191406 C 55.828125 53.507812 55.855469 53.820312 55.898438 54.125 C 59.316406 51.800781 62.859375 49.597656 66.503906 47.519531 C 65.410156 46.777344 64.089844 46.34375 62.671875 46.34375 C 58.898438 46.34375 55.828125 49.414062 55.828125 53.191406 Z M 369.753906 298.386719 L 353.796875 298.386719 L 361.023438 360.636719 L 349.433594 360.636719 L 342.203125 298.386719 L 301.339844 298.386719 L 294.113281 360.636719 L 282.519531 360.636719 L 289.746094 298.386719 L 279.050781 298.386719 C 248.140625 328.660156 211.957031 349.066406 176.496094 349.066406 C 160.644531 349.066406 144.941406 345.976562 129.8125 340.414062 L 132.164062 360.636719 L 120.570312 360.636719 L 117.632812 335.34375 C 101.285156 327.742188 85.792969 317.289062 71.734375 304.792969 L 65.25 360.636719 L 53.660156 360.636719 L 60.886719 298.386719 L 45.804688 298.386719 L 45.804688 286.011719 L 53.03125 286.011719 C 20.933594 249.695312 0 202.507812 0 157.746094 C 0 116.003906 18.207031 83.664062 46.691406 60.914062 C 46.199219 59.898438 45.800781 58.839844 45.515625 57.742188 L 40.300781 56.597656 L 40.300781 49.785156 L 45.515625 48.636719 C 45.921875 47.105469 46.523438 45.640625 47.320312 44.273438 L 44.445312 39.777344 L 49.261719 34.960938 L 53.757812 37.835938 C 55.128906 37.039062 56.585938 36.433594 58.121094 36.027344 L 59.265625 30.8125 L 66.078125 30.8125 L 67.222656 36.027344 C 68.753906 36.433594 70.21875 37.039062 71.585938 37.835938 L 76.082031 34.960938 L 80.898438 39.777344 L 80.546875 40.324219 C 83.136719 39.140625 85.769531 38.007812 88.441406 36.929688 L 88.441406 30.8125 L 105.839844 30.8125 C 119.84375 26.582031 134.617188 23.679688 149.765625 22.113281 C 149.75 21.984375 149.726562 21.859375 149.726562 21.722656 C 149.726562 20.140625 151.015625 18.851562 152.597656 18.851562 C 154.132812 18.851562 155.378906 20.066406 155.453125 21.585938 C 162.414062 21.027344 169.4375 20.742188 176.496094 20.742188 C 267.132812 20.742188 362.464844 34.445312 362.464844 125.109375 C 362.464844 166.953125 342.15625 217.882812 311.371094 260.59375 L 335.429688 260.59375 L 352.328125 286.011719 L 369.753906 286.011719 Z M 42.273438 24.59375 C 43.855469 24.59375 45.140625 23.304688 45.140625 21.722656 C 45.140625 20.140625 43.855469 18.851562 42.273438 18.851562 C 40.6875 18.851562 39.402344 20.140625 39.402344 21.722656 C 39.402344 23.304688 40.6875 24.59375 42.273438 24.59375 Z M 262.570312 21.722656 C 262.570312 20.140625 263.859375 18.851562 265.441406 18.851562 C 267.027344 18.851562 268.3125 20.140625 268.3125 21.722656 C 268.3125 23.304688 267.027344 24.59375 265.441406 24.59375 C 263.859375 24.59375 262.570312 23.304688 262.570312 21.722656 " fill-opacity="1" fill-rule="nonzero"/></g><g clip-path="url(#f2c30d07af)"><path fill="#5ec9cc" d="M 257.578125 23.800781 C 258.726562 23.800781 259.65625 22.867188 259.65625 21.722656 C 259.65625 20.578125 258.726562 19.644531 257.578125 19.644531 C 256.429688 19.644531 255.5 20.578125 255.5 21.722656 C 255.5 22.867188 256.429688 23.800781 257.578125 23.800781 Z M 304.558594 85.96875 L 314.226562 85.96875 L 314.226562 83.585938 L 304.558594 83.585938 Z M 300.808594 53.824219 L 287.632812 45.953125 L 287.632812 61.699219 Z M 333.730469 75.566406 L 254.710938 75.566406 L 254.710938 34.28125 L 333.730469 34.28125 Z M 318.4375 80.9375 L 311.703125 80.9375 L 311.703125 83.320312 L 318.4375 83.320312 Z M 304.558594 80.9375 L 304.558594 83.320312 L 311.292969 83.320312 L 311.292969 80.9375 Z M 318.4375 78.292969 L 304.558594 78.292969 L 304.558594 80.675781 L 318.4375 80.675781 Z M 96.238281 86.101562 L 88.160156 86.101562 L 88.160156 86.898438 L 96.238281 86.898438 Z M 100.445312 84.25 L 100.445312 83.453125 L 95.304688 83.453125 L 95.304688 84.25 Z M 93.300781 83.453125 L 88.160156 83.453125 L 88.160156 84.25 L 93.300781 84.25 Z M 100.445312 80.808594 L 88.160156 80.808594 L 88.160156 81.601562 L 100.445312 81.601562 Z M 45.554688 86.101562 L 37.476562 86.101562 L 37.476562 86.898438 L 45.554688 86.898438 Z M 49.761719 84.25 L 49.761719 83.453125 L 44.621094 83.453125 L 44.621094 84.25 Z M 42.617188 83.453125 L 37.476562 83.453125 L 37.476562 84.25 L 42.617188 84.25 Z M 49.761719 80.808594 L 37.476562 80.808594 L 37.476562 81.601562 L 49.761719 81.601562 Z M 103.363281 61.449219 L 89.234375 61.449219 L 89.234375 66.394531 L 103.363281 66.394531 Z M 103.363281 39.867188 L 89.234375 39.867188 L 89.234375 44.808594 L 103.363281 44.808594 Z M 34.410156 23.800781 C 35.554688 23.800781 36.484375 22.867188 36.484375 21.722656 C 36.484375 20.578125 35.554688 19.644531 34.410156 19.644531 C 33.261719 19.644531 32.332031 20.578125 32.332031 21.722656 C 32.332031 22.867188 33.261719 23.800781 34.410156 23.800781 Z M 50.851562 53.191406 C 50.851562 59.710938 56.152344 65.015625 62.671875 65.015625 C 69.191406 65.015625 74.496094 59.710938 74.496094 53.191406 C 74.496094 46.671875 69.191406 41.363281 62.671875 41.363281 C 56.152344 41.363281 50.851562 46.671875 50.851562 53.191406 Z M 50.058594 53.191406 C 50.058594 46.230469 55.714844 40.570312 62.671875 40.570312 C 69.628906 40.570312 75.289062 46.230469 75.289062 53.191406 C 75.289062 60.148438 69.628906 65.808594 62.671875 65.808594 C 55.714844 65.808594 50.058594 60.148438 50.058594 53.191406 Z M 200.683594 124.425781 C 200.035156 124.425781 199.445312 124.953125 199.363281 125.601562 C 199.28125 126.25 199.742188 126.773438 200.390625 126.773438 C 201.039062 126.773438 201.628906 126.25 201.710938 125.601562 C 201.792969 124.953125 201.332031 124.425781 200.683594 124.425781 Z M 234.382812 124.804688 L 222.5625 124.804688 C 222.125 124.804688 221.765625 125.164062 221.765625 125.601562 C 221.765625 126.039062 222.125 126.394531 222.5625 126.394531 L 234.382812 126.394531 C 234.820312 126.394531 235.175781 126.039062 235.175781 125.601562 C 235.175781 125.164062 234.820312 124.804688 234.382812 124.804688 Z M 144.730469 24.59375 C 146.3125 24.59375 147.605469 23.304688 147.605469 21.722656 C 147.605469 20.140625 146.3125 18.851562 144.730469 18.851562 C 143.152344 18.851562 141.863281 20.140625 141.863281 21.722656 C 141.863281 23.304688 143.152344 24.59375 144.730469 24.59375 Z M 166.140625 78.003906 C 166.140625 79.257812 167.160156 80.277344 168.414062 80.277344 L 185.605469 80.277344 C 186.859375 80.277344 187.878906 79.257812 187.878906 78.003906 C 187.878906 76.75 186.859375 75.734375 185.605469 75.734375 L 168.414062 75.734375 C 167.160156 75.734375 166.140625 76.75 166.140625 78.003906 Z M 150.417969 66.460938 L 167.613281 66.460938 C 168.867188 66.460938 169.886719 65.441406 169.886719 64.1875 C 169.886719 62.933594 168.867188 61.914062 167.613281 61.914062 L 150.417969 61.914062 C 149.167969 61.914062 148.144531 62.933594 148.144531 64.1875 C 148.144531 65.441406 149.167969 66.460938 150.417969 66.460938 Z M 150.417969 52.640625 L 180.210938 52.640625 C 181.460938 52.640625 182.480469 51.621094 182.480469 50.367188 C 182.480469 49.113281 181.460938 48.097656 180.210938 48.097656 L 150.417969 48.097656 C 149.167969 48.097656 148.144531 49.113281 148.144531 50.367188 C 148.144531 51.621094 149.167969 52.640625 150.417969 52.640625 Z M 185.953125 66.460938 L 192.03125 66.460938 C 193.285156 66.460938 194.300781 65.441406 194.300781 64.1875 C 194.300781 62.933594 193.285156 61.914062 192.03125 61.914062 L 185.953125 61.914062 C 184.699219 61.914062 183.679688 62.933594 183.679688 64.1875 C 183.679688 65.441406 184.699219 66.460938 185.953125 66.460938 Z M 179.753906 66.460938 C 181.007812 66.460938 182.027344 65.441406 182.027344 64.1875 C 182.027344 62.933594 181.007812 61.914062 179.753906 61.914062 L 173.675781 61.914062 C 172.421875 61.914062 171.402344 62.933594 171.402344 64.1875 C 171.402344 65.441406 172.421875 66.460938 173.675781 66.460938 Z M 150.417969 45.734375 L 156.5 45.734375 C 157.753906 45.734375 158.773438 44.714844 158.773438 43.460938 C 158.773438 42.207031 157.753906 41.1875 156.5 41.1875 L 150.417969 41.1875 C 149.167969 41.1875 148.144531 42.207031 148.144531 43.460938 C 148.144531 44.714844 149.167969 45.734375 150.417969 45.734375 Z M 150.417969 38.824219 L 170.894531 38.824219 C 172.148438 38.824219 173.167969 37.804688 173.167969 36.554688 C 173.167969 35.300781 172.148438 34.28125 170.894531 34.28125 L 150.417969 34.28125 C 149.167969 34.28125 148.144531 35.300781 148.144531 36.554688 C 148.144531 37.804688 149.167969 38.824219 150.417969 38.824219 Z M 194.636719 339.085938 L 50.152344 339.085938 C 44.203125 339.085938 39.378906 343.910156 39.378906 349.863281 C 39.378906 355.8125 44.203125 360.636719 50.152344 360.636719 L 194.636719 360.636719 C 200.589844 360.636719 205.410156 355.8125 205.410156 349.863281 C 205.410156 343.910156 200.589844 339.085938 194.636719 339.085938 Z M 361.332031 113.960938 C 361.332031 113.523438 360.972656 113.164062 360.535156 113.164062 L 321.507812 113.164062 C 321.066406 113.164062 320.710938 113.523438 320.710938 113.960938 C 320.710938 114.398438 321.066406 114.753906 321.507812 114.753906 L 360.535156 114.753906 C 360.972656 114.753906 361.332031 114.398438 361.332031 113.960938 Z M 342.992188 126.394531 L 349.683594 126.394531 C 350.121094 126.394531 350.476562 126.039062 350.476562 125.601562 C 350.476562 125.164062 350.121094 124.804688 349.683594 124.804688 L 342.992188 124.804688 C 342.554688 124.804688 342.199219 125.164062 342.199219 125.601562 C 342.199219 126.039062 342.554688 126.394531 342.992188 126.394531 Z M 358.730469 130.789062 C 358.730469 130.351562 358.371094 129.996094 357.933594 129.996094 L 342.339844 129.996094 C 341.902344 129.996094 341.546875 130.351562 341.546875 130.789062 C 341.546875 131.226562 341.902344 131.582031 342.339844 131.582031 L 357.933594 131.582031 C 358.371094 131.582031 358.730469 131.226562 358.730469 130.789062 Z M 341.6875 136.773438 L 349.695312 136.773438 C 350.136719 136.773438 350.488281 136.414062 350.488281 135.976562 C 350.488281 135.539062 350.136719 135.183594 349.695312 135.183594 L 341.6875 135.183594 C 341.253906 135.183594 340.894531 135.539062 340.894531 135.976562 C 340.894531 136.414062 341.253906 136.773438 341.6875 136.773438 Z M 336.996094 169.875 C 336.558594 169.875 336.203125 170.226562 336.203125 170.667969 C 336.203125 171.105469 336.558594 171.460938 336.996094 171.460938 L 343.6875 171.460938 C 344.125 171.460938 344.480469 171.105469 344.480469 170.667969 C 344.480469 170.226562 344.125 169.875 343.6875 169.875 Z M 352.730469 175.851562 C 352.730469 175.417969 352.375 175.058594 351.9375 175.058594 L 336.34375 175.058594 C 335.90625 175.058594 335.550781 175.417969 335.550781 175.851562 C 335.550781 176.292969 335.90625 176.648438 336.34375 176.648438 L 351.9375 176.648438 C 352.375 176.648438 352.730469 176.292969 352.730469 175.851562 Z M 344.492188 181.042969 C 344.492188 180.601562 344.140625 180.25 343.699219 180.25 L 335.691406 180.25 C 335.253906 180.25 334.898438 180.601562 334.898438 181.042969 C 334.898438 181.480469 335.253906 181.835938 335.691406 181.835938 L 343.699219 181.835938 C 344.140625 181.835938 344.492188 181.480469 344.492188 181.042969 Z M 327.40625 131.386719 C 327.40625 130.949219 327.054688 130.59375 326.613281 130.59375 L 313.238281 130.59375 C 312.796875 130.59375 312.445312 130.949219 312.445312 131.386719 C 312.445312 131.828125 312.796875 132.179688 313.238281 132.179688 L 326.613281 132.179688 C 327.054688 132.179688 327.40625 131.828125 327.40625 131.386719 Z M 320.707031 141.765625 C 320.707031 141.324219 320.355469 140.972656 319.914062 140.972656 L 308.226562 140.972656 C 307.789062 140.972656 307.433594 141.324219 307.433594 141.765625 C 307.433594 142.203125 307.789062 142.558594 308.226562 142.558594 L 319.914062 142.558594 C 320.355469 142.558594 320.707031 142.203125 320.707031 141.765625 Z M 317.914062 206.933594 C 317.914062 206.496094 317.5625 206.136719 317.121094 206.136719 L 296.078125 206.136719 C 295.640625 206.136719 295.285156 206.496094 295.285156 206.933594 C 295.285156 207.371094 295.640625 207.726562 296.078125 207.726562 L 317.121094 207.726562 C 317.5625 207.726562 317.914062 207.371094 317.914062 206.933594 Z M 258.21875 119.816406 L 200.179688 119.816406 C 197.988281 119.816406 195.988281 121.59375 195.710938 123.785156 L 194.753906 131.386719 L 260.730469 131.386719 L 261.6875 123.785156 C 261.964844 121.59375 260.410156 119.816406 258.21875 119.816406 Z M 251.566406 179.507812 C 251.566406 179.066406 251.210938 178.714844 250.773438 178.714844 L 243.691406 178.714844 C 243.253906 178.714844 242.894531 179.066406 242.894531 179.507812 C 242.894531 179.945312 243.253906 180.300781 243.691406 180.300781 L 250.773438 180.300781 C 251.210938 180.300781 251.566406 179.945312 251.566406 179.507812 Z M 234.484375 183.320312 C 234.484375 182.878906 234.125 182.523438 233.691406 182.523438 L 227.058594 182.523438 C 226.621094 182.523438 226.261719 182.878906 226.261719 183.320312 C 226.261719 183.757812 226.621094 184.113281 227.058594 184.113281 L 233.691406 184.113281 C 234.125 184.113281 234.484375 183.757812 234.484375 183.320312 Z M 220.757812 179.507812 C 220.757812 179.066406 220.398438 178.714844 219.960938 178.714844 L 212.878906 178.714844 C 212.441406 178.714844 212.085938 179.066406 212.085938 179.507812 C 212.085938 179.945312 212.441406 180.300781 212.878906 180.300781 L 219.960938 180.300781 C 220.398438 180.300781 220.757812 179.945312 220.757812 179.507812 Z M 201.46875 210.191406 L 195.421875 210.191406 C 194.589844 210.191406 193.828125 210.867188 193.722656 211.703125 C 193.621094 212.535156 194.210938 213.210938 195.042969 213.210938 L 201.089844 213.210938 C 201.921875 213.210938 202.683594 212.535156 202.789062 211.703125 C 202.890625 210.867188 202.304688 210.191406 201.46875 210.191406 Z M 195.261719 199.855469 C 195.910156 199.855469 196.5 199.328125 196.582031 198.679688 C 196.664062 198.03125 196.203125 197.503906 195.554688 197.503906 C 194.90625 197.503906 194.316406 198.03125 194.234375 198.679688 C 194.152344 199.328125 194.613281 199.855469 195.261719 199.855469 Z M 194.566406 183.320312 C 194.566406 183.757812 194.917969 184.113281 195.359375 184.113281 L 200.230469 184.113281 C 200.667969 184.113281 201.023438 183.757812 201.023438 183.320312 C 201.023438 182.878906 200.667969 182.523438 200.230469 182.523438 L 195.359375 182.523438 C 194.917969 182.523438 194.566406 182.878906 194.566406 183.320312 Z M 225.734375 141.765625 C 225.734375 141.324219 225.378906 140.972656 224.9375 140.972656 L 209.945312 140.972656 C 209.507812 140.972656 209.152344 141.324219 209.152344 141.765625 C 209.152344 142.203125 209.507812 142.558594 209.945312 142.558594 L 224.9375 142.558594 C 225.378906 142.558594 225.734375 142.203125 225.734375 141.765625 Z M 276.527344 227.683594 C 276.527344 228.125 276.882812 228.476562 277.320312 228.476562 L 307.675781 228.476562 C 308.117188 228.476562 308.46875 228.125 308.46875 227.683594 C 308.46875 227.246094 308.117188 226.890625 307.675781 226.890625 L 277.320312 226.890625 C 276.882812 226.890625 276.527344 227.246094 276.527344 227.683594 Z M 283.410156 172.890625 C 283.410156 173.328125 283.769531 173.683594 284.207031 173.683594 L 292.210938 173.683594 C 292.648438 173.683594 293.007812 173.328125 293.007812 172.890625 C 293.007812 172.449219 292.648438 172.097656 292.210938 172.097656 L 284.207031 172.097656 C 283.769531 172.097656 283.410156 172.449219 283.410156 172.890625 Z M 286.019531 152.140625 C 286.019531 152.578125 286.375 152.933594 286.8125 152.933594 L 296.460938 152.933594 C 296.902344 152.933594 297.253906 152.578125 297.253906 152.140625 C 297.253906 151.699219 296.902344 151.347656 296.460938 151.347656 L 286.8125 151.347656 C 286.375 151.347656 286.019531 151.699219 286.019531 152.140625 Z M 287.972656 136.578125 C 287.972656 137.015625 288.328125 137.371094 288.765625 137.371094 L 295.457031 137.371094 C 295.894531 137.371094 296.25 137.015625 296.25 136.578125 C 296.25 136.140625 295.894531 135.78125 295.457031 135.78125 L 288.765625 135.78125 C 288.328125 135.78125 287.972656 136.140625 287.972656 136.578125 Z M 314.554688 152.140625 C 314.554688 151.699219 314.195312 151.347656 313.761719 151.347656 L 299.929688 151.347656 C 299.492188 151.347656 299.136719 151.699219 299.136719 152.140625 C 299.136719 152.578125 299.492188 152.933594 299.929688 152.933594 L 313.761719 152.933594 C 314.195312 152.933594 314.554688 152.578125 314.554688 152.140625 Z M 316.65625 168.496094 C 317.097656 168.496094 317.449219 168.144531 317.449219 167.703125 C 317.449219 167.265625 317.097656 166.90625 316.65625 166.90625 L 304.96875 166.90625 C 304.53125 166.90625 304.175781 167.265625 304.175781 167.703125 C 304.175781 168.144531 304.53125 168.496094 304.96875 168.496094 Z M 366.394531 116.609375 L 354.097656 227.539062 C 353.734375 230.816406 350.972656 233.289062 347.675781 233.289062 L 175.503906 233.289062 C 173.636719 233.289062 171.929688 232.523438 170.691406 231.136719 C 170.441406 230.863281 170.230469 230.566406 170.039062 230.261719 C 168.25 242.972656 159.679688 257.308594 159.679688 268.492188 C 159.679688 280.769531 169.039062 298.386719 169.039062 298.386719 C 169.039062 298.386719 165.71875 325.882812 132.007812 325.882812 C 119.820312 325.882812 111.21875 323.746094 106.792969 322.300781 C 104.496094 321.550781 102.800781 319.617188 102.285156 317.257812 C 98.367188 299.460938 101.023438 274.199219 103.785156 265.316406 C 105.65625 259.3125 103.457031 228.554688 96.246094 206.628906 C 92.566406 195.445312 100.894531 183.933594 112.667969 183.933594 L 115.453125 175.058594 C 115.453125 175.058594 124.320312 170.773438 133.6875 172.675781 C 143.054688 174.585938 147.53125 177.160156 151.019531 177.648438 L 148.757812 183.984375 C 152.621094 184.320312 156.074219 186.621094 157.84375 190.128906 C 161.652344 197.703125 167.714844 210.714844 169.703125 220.492188 L 181.375 115.183594 C 181.738281 111.90625 184.496094 109.433594 187.796875 109.433594 L 359.972656 109.433594 C 361.832031 109.433594 363.542969 110.199219 364.785156 111.585938 C 366.027344 112.972656 366.597656 114.757812 366.394531 116.609375 Z M 205.128906 124.425781 C 204.484375 124.425781 203.890625 124.953125 203.808594 125.601562 C 203.726562 126.25 204.183594 126.773438 204.832031 126.773438 C 205.480469 126.773438 206.074219 126.25 206.152344 125.601562 C 206.238281 124.953125 205.777344 124.425781 205.128906 124.425781 Z M 209.574219 124.425781 C 208.925781 124.425781 208.335938 124.953125 208.253906 125.601562 C 208.171875 126.25 208.632812 126.773438 209.28125 126.773438 C 209.929688 126.773438 210.519531 126.25 210.601562 125.601562 C 210.679688 124.953125 210.222656 124.425781 209.574219 124.425781 Z M 87.910156 120.800781 L 78.457031 120.800781 L 78.457031 141.417969 L 87.910156 141.417969 Z M 54.75 141.417969 L 64.199219 141.417969 L 64.199219 123.65625 L 54.75 123.65625 Z M 40.492188 141.417969 L 31.039062 141.417969 L 31.039062 129.851562 L 40.492188 129.851562 L 40.492188 141.417969 " fill-opacity="1" fill-rule="nonzero"/></g><g clip-path="url(#d719d03d07)"><path fill="#f3d0d2" d="M 62.671875 60.832031 C 66.890625 60.832031 70.3125 57.414062 70.3125 53.191406 C 70.3125 48.96875 66.890625 45.546875 62.671875 45.546875 C 58.453125 45.546875 55.035156 48.96875 55.035156 53.191406 C 55.035156 57.414062 58.453125 60.832031 62.671875 60.832031 Z M 40.195312 21.722656 C 40.195312 22.867188 41.125 23.800781 42.273438 23.800781 C 43.421875 23.800781 44.347656 22.867188 44.347656 21.722656 C 44.347656 20.578125 43.421875 19.644531 42.273438 19.644531 C 41.125 19.644531 40.195312 20.578125 40.195312 21.722656 Z M 45.457031 39.886719 L 48.253906 44.261719 C 47.300781 45.796875 46.589844 47.496094 46.164062 49.308594 L 41.09375 50.421875 L 41.09375 55.957031 L 46.164062 57.074219 C 46.589844 58.886719 47.300781 60.585938 48.253906 62.121094 L 45.457031 66.492188 L 49.371094 70.410156 L 53.746094 67.613281 C 55.28125 68.566406 56.976562 69.277344 58.789062 69.699219 L 59.90625 74.773438 L 65.441406 74.773438 L 66.558594 69.699219 C 68.363281 69.277344 70.0625 68.566406 71.597656 67.613281 L 75.972656 70.410156 L 79.886719 66.492188 L 77.089844 62.121094 C 78.042969 60.585938 78.753906 58.886719 79.179688 57.074219 L 84.25 55.957031 L 84.25 50.421875 L 79.179688 49.308594 C 78.753906 47.496094 78.042969 45.796875 77.089844 44.261719 L 79.886719 39.886719 L 75.972656 35.96875 L 71.597656 38.769531 C 70.0625 37.816406 68.363281 37.101562 66.558594 36.679688 L 65.441406 31.605469 L 59.90625 31.605469 L 58.789062 36.679688 C 56.976562 37.101562 55.28125 37.816406 53.746094 38.769531 L 49.371094 35.96875 Z M 89.234375 58.136719 L 110.824219 58.136719 L 110.824219 53.191406 L 89.234375 53.191406 Z M 89.234375 36.554688 L 110.824219 36.554688 L 110.824219 31.605469 L 89.234375 31.605469 Z M 66.65625 80.808594 L 54.371094 80.808594 L 54.371094 81.601562 L 66.65625 81.601562 Z M 66.65625 83.453125 L 61.515625 83.453125 L 61.515625 84.25 L 66.65625 84.25 Z M 59.511719 84.25 L 59.511719 83.453125 L 54.371094 83.453125 L 54.371094 84.25 Z M 62.453125 86.101562 L 54.371094 86.101562 L 54.371094 86.898438 L 62.453125 86.898438 Z M 120.332031 76.132812 L 134.691406 76.132812 L 134.691406 54.21875 L 120.332031 54.21875 Z M 120.332031 53.425781 L 134.691406 53.425781 L 134.691406 31.519531 L 120.332031 31.519531 Z M 142.65625 78.003906 C 142.65625 78.824219 143.320312 79.484375 144.132812 79.484375 L 144.273438 79.484375 C 145.09375 79.484375 145.753906 78.824219 145.753906 78.003906 C 145.753906 77.1875 145.09375 76.527344 144.273438 76.527344 L 144.132812 76.527344 C 143.320312 76.527344 142.65625 77.1875 142.65625 78.003906 Z M 142.65625 71.097656 C 142.65625 71.914062 143.320312 72.578125 144.132812 72.578125 L 144.273438 72.578125 C 145.09375 72.578125 145.753906 71.914062 145.753906 71.097656 C 145.753906 70.28125 145.09375 69.617188 144.273438 69.617188 L 144.132812 69.617188 C 143.320312 69.617188 142.65625 70.28125 142.65625 71.097656 Z M 142.65625 64.1875 C 142.65625 65.003906 143.320312 65.664062 144.132812 65.664062 L 144.273438 65.664062 C 145.09375 65.664062 145.753906 65.003906 145.753906 64.1875 C 145.753906 63.371094 145.09375 62.710938 144.273438 62.710938 L 144.132812 62.710938 C 143.320312 62.710938 142.65625 63.371094 142.65625 64.1875 Z M 142.65625 57.277344 C 142.65625 58.09375 143.320312 58.757812 144.132812 58.757812 L 144.273438 58.757812 C 145.09375 58.757812 145.753906 58.09375 145.753906 57.277344 C 145.753906 56.464844 145.09375 55.800781 144.273438 55.800781 L 144.132812 55.800781 C 143.320312 55.800781 142.65625 56.464844 142.65625 57.277344 Z M 142.65625 50.367188 C 142.65625 51.1875 143.320312 51.847656 144.132812 51.847656 L 144.273438 51.847656 C 145.09375 51.847656 145.753906 51.1875 145.753906 50.367188 C 145.753906 49.550781 145.09375 48.890625 144.273438 48.890625 L 144.132812 48.890625 C 143.320312 48.890625 142.65625 49.550781 142.65625 50.367188 Z M 142.65625 43.460938 C 142.65625 44.277344 143.320312 44.941406 144.132812 44.941406 L 144.273438 44.941406 C 145.09375 44.941406 145.753906 44.277344 145.753906 43.460938 C 145.753906 42.644531 145.09375 41.980469 144.273438 41.980469 L 144.132812 41.980469 C 143.320312 41.980469 142.65625 42.644531 142.65625 43.460938 Z M 142.65625 36.554688 C 142.65625 37.367188 143.320312 38.03125 144.132812 38.03125 L 144.273438 38.03125 C 145.09375 38.03125 145.753906 37.367188 145.753906 36.554688 C 145.753906 35.734375 145.09375 35.074219 144.273438 35.074219 L 144.132812 35.074219 C 143.320312 35.074219 142.65625 35.734375 142.65625 36.554688 Z M 142.65625 29.644531 C 142.65625 30.457031 143.320312 31.121094 144.132812 31.121094 L 144.273438 31.121094 C 145.09375 31.121094 145.753906 30.457031 145.753906 29.644531 C 145.753906 28.828125 145.09375 28.164062 144.273438 28.164062 L 144.132812 28.164062 C 143.320312 28.164062 142.65625 28.828125 142.65625 29.644531 Z M 142.65625 21.722656 C 142.65625 22.867188 143.585938 23.800781 144.730469 23.800781 C 145.878906 23.800781 146.808594 22.867188 146.808594 21.722656 C 146.808594 20.578125 145.878906 19.644531 144.730469 19.644531 C 143.585938 19.644531 142.65625 20.578125 142.65625 21.722656 Z M 148.941406 78.003906 C 148.941406 78.824219 149.605469 79.484375 150.417969 79.484375 L 162.957031 79.484375 C 163.773438 79.484375 164.433594 78.824219 164.433594 78.003906 C 164.433594 77.1875 163.773438 76.527344 162.957031 76.527344 L 150.417969 76.527344 C 149.605469 76.527344 148.941406 77.1875 148.941406 78.003906 Z M 148.941406 71.097656 C 148.941406 71.914062 149.605469 72.578125 150.417969 72.578125 L 177.246094 72.578125 C 178.058594 72.578125 178.722656 71.914062 178.722656 71.097656 C 178.722656 70.28125 178.058594 69.617188 177.246094 69.617188 L 150.417969 69.617188 C 149.605469 69.617188 148.941406 70.28125 148.941406 71.097656 Z M 148.941406 64.1875 C 148.941406 65.003906 149.605469 65.664062 150.417969 65.664062 L 167.613281 65.664062 C 168.429688 65.664062 169.09375 65.003906 169.09375 64.1875 C 169.09375 63.371094 168.429688 62.710938 167.613281 62.710938 L 150.417969 62.710938 C 149.605469 62.710938 148.941406 63.371094 148.941406 64.1875 Z M 148.941406 57.277344 C 148.941406 58.09375 149.605469 58.757812 150.417969 58.757812 L 173.117188 58.757812 C 173.933594 58.757812 174.59375 58.09375 174.59375 57.277344 C 174.59375 56.464844 173.933594 55.800781 173.117188 55.800781 L 150.417969 55.800781 C 149.605469 55.800781 148.941406 56.464844 148.941406 57.277344 Z M 148.941406 50.367188 C 148.941406 51.1875 149.605469 51.847656 150.417969 51.847656 L 180.210938 51.847656 C 181.023438 51.847656 181.683594 51.1875 181.683594 50.367188 C 181.683594 49.550781 181.023438 48.890625 180.210938 48.890625 L 150.417969 48.890625 C 149.605469 48.890625 148.941406 49.550781 148.941406 50.367188 Z M 148.941406 43.460938 C 148.941406 44.277344 149.605469 44.941406 150.417969 44.941406 L 156.5 44.941406 C 157.316406 44.941406 157.980469 44.277344 157.980469 43.460938 C 157.980469 42.644531 157.316406 41.980469 156.5 41.980469 L 150.417969 41.980469 C 149.605469 41.980469 148.941406 42.644531 148.941406 43.460938 Z M 148.941406 36.554688 C 148.941406 37.367188 149.605469 38.03125 150.417969 38.03125 L 170.894531 38.03125 C 171.710938 38.03125 172.375 37.367188 172.375 36.554688 C 172.375 35.734375 171.710938 35.074219 170.894531 35.074219 L 150.417969 35.074219 C 149.605469 35.074219 148.941406 35.734375 148.941406 36.554688 Z M 148.941406 29.644531 C 148.941406 30.457031 149.605469 31.121094 150.417969 31.121094 L 159.820312 31.121094 C 160.636719 31.121094 161.296875 30.457031 161.296875 29.644531 C 161.296875 28.828125 160.636719 28.164062 159.820312 28.164062 L 150.417969 28.164062 C 149.605469 28.164062 148.941406 28.828125 148.941406 29.644531 Z M 150.519531 21.722656 C 150.519531 22.867188 151.449219 23.800781 152.597656 23.800781 C 153.742188 23.800781 154.671875 22.867188 154.671875 21.722656 C 154.671875 20.578125 153.742188 19.644531 152.597656 19.644531 C 151.449219 19.644531 150.519531 20.578125 150.519531 21.722656 Z M 193.617188 41.980469 L 163.828125 41.980469 C 163.011719 41.980469 162.351562 42.644531 162.351562 43.460938 C 162.351562 44.277344 163.011719 44.941406 163.828125 44.941406 L 193.617188 44.941406 C 194.433594 44.941406 195.097656 44.277344 195.097656 43.460938 C 195.097656 42.644531 194.433594 41.980469 193.617188 41.980469 Z M 194.25 50.367188 C 194.25 49.550781 193.589844 48.890625 192.773438 48.890625 L 186.691406 48.890625 C 185.878906 48.890625 185.214844 49.550781 185.214844 50.367188 C 185.214844 51.1875 185.878906 51.847656 186.691406 51.847656 L 192.773438 51.847656 C 193.589844 51.847656 194.25 51.1875 194.25 50.367188 Z M 193.507812 64.1875 C 193.507812 63.371094 192.847656 62.710938 192.03125 62.710938 L 185.953125 62.710938 C 185.136719 62.710938 184.472656 63.371094 184.472656 64.1875 C 184.472656 65.003906 185.136719 65.664062 185.953125 65.664062 L 192.03125 65.664062 C 192.847656 65.664062 193.507812 65.003906 193.507812 64.1875 Z M 181.234375 64.1875 C 181.234375 63.371094 180.570312 62.710938 179.753906 62.710938 L 173.671875 62.710938 C 172.855469 62.710938 172.195312 63.371094 172.195312 64.1875 C 172.195312 65.003906 172.855469 65.664062 173.671875 65.664062 L 179.753906 65.664062 C 180.570312 65.664062 181.234375 65.003906 181.234375 64.1875 Z M 187.082031 78.003906 C 187.082031 77.1875 186.421875 76.527344 185.605469 76.527344 L 168.414062 76.527344 C 167.59375 76.527344 166.933594 77.1875 166.933594 78.003906 C 166.933594 78.824219 167.59375 79.484375 168.414062 79.484375 L 185.605469 79.484375 C 186.421875 79.484375 187.082031 78.824219 187.082031 78.003906 Z M 227.773438 76.132812 L 246.566406 76.132812 L 246.566406 54.21875 L 227.773438 54.21875 Z M 227.773438 53.425781 L 246.566406 53.425781 L 246.566406 31.519531 L 227.773438 31.519531 Z M 255.5 74.773438 L 332.9375 74.773438 L 332.9375 35.074219 L 255.5 35.074219 Z M 263.363281 21.722656 C 263.363281 22.867188 264.296875 23.800781 265.441406 23.800781 C 266.589844 23.800781 267.519531 22.867188 267.519531 21.722656 C 267.519531 20.578125 266.589844 19.644531 265.441406 19.644531 C 264.296875 19.644531 263.363281 20.578125 263.363281 21.722656 Z M 317.640625 79.085938 L 305.355469 79.085938 L 305.355469 79.882812 L 317.640625 79.882812 Z M 317.640625 81.734375 L 312.496094 81.734375 L 312.496094 82.527344 L 317.640625 82.527344 Z M 310.496094 82.527344 L 310.496094 81.734375 L 305.355469 81.734375 L 305.355469 82.527344 Z M 313.433594 84.382812 L 305.355469 84.382812 L 305.355469 85.175781 L 313.433594 85.175781 Z M 292.238281 79.085938 L 279.953125 79.085938 L 279.953125 79.882812 L 292.238281 79.882812 Z M 292.238281 81.734375 L 287.097656 81.734375 L 287.097656 82.527344 L 292.238281 82.527344 Z M 285.09375 82.527344 L 285.09375 81.734375 L 279.953125 81.734375 L 279.953125 82.527344 Z M 288.03125 84.382812 L 279.953125 84.382812 L 279.953125 85.175781 L 288.03125 85.175781 Z M 27.25 92.164062 L 27.25 18.417969 C 27.25 16.226562 29.027344 14.449219 31.21875 14.449219 L 116.363281 14.449219 C 118.554688 14.449219 120.332031 16.226562 120.332031 18.417969 L 120.332031 30.726562 L 134.691406 30.726562 L 134.691406 18.417969 C 134.691406 16.226562 136.46875 14.449219 138.660156 14.449219 L 223.804688 14.449219 C 225.996094 14.449219 227.773438 16.226562 227.773438 18.417969 L 227.773438 30.726562 L 246.566406 30.726562 L 246.566406 18.417969 C 246.566406 16.226562 248.34375 14.449219 250.535156 14.449219 L 335.675781 14.449219 C 337.871094 14.449219 339.644531 16.226562 339.644531 18.417969 L 339.644531 76.132812 L 349.902344 76.132812 C 350.066406 76.390625 350.214844 76.660156 350.367188 76.925781 L 339.644531 76.925781 L 339.644531 92.164062 C 339.644531 94.355469 337.871094 96.132812 335.675781 96.132812 L 250.535156 96.132812 C 248.34375 96.132812 246.566406 94.355469 246.566406 92.164062 L 246.566406 76.925781 L 227.773438 76.925781 L 227.773438 83.902344 C 227.773438 86.097656 225.996094 87.875 223.804688 87.875 L 138.660156 87.875 C 136.46875 87.875 134.691406 86.097656 134.691406 83.902344 L 134.691406 76.925781 L 120.332031 76.925781 L 120.332031 92.164062 C 120.332031 94.355469 118.554688 96.132812 116.363281 96.132812 L 31.21875 96.132812 C 29.027344 96.132812 27.25 94.355469 27.25 92.164062 Z M 300.546875 113.164062 C 300.109375 113.164062 299.753906 113.523438 299.753906 113.960938 C 299.753906 114.398438 300.109375 114.753906 300.546875 114.753906 L 316.582031 114.753906 C 317.023438 114.753906 317.375 114.398438 317.375 113.960938 C 317.375 113.523438 317.023438 113.164062 316.582031 113.164062 Z M 317.914062 206.933594 C 317.914062 206.496094 317.5625 206.136719 317.121094 206.136719 L 296.078125 206.136719 C 295.640625 206.136719 295.285156 206.496094 295.285156 206.933594 C 295.285156 207.371094 295.640625 207.726562 296.078125 207.726562 L 317.121094 207.726562 C 317.5625 207.726562 317.914062 207.371094 317.914062 206.933594 Z M 309.121094 222.496094 C 309.121094 222.054688 308.769531 221.703125 308.328125 221.703125 L 277.972656 221.703125 C 277.535156 221.703125 277.179688 222.054688 277.179688 222.496094 C 277.179688 222.933594 277.535156 223.289062 277.972656 223.289062 L 308.328125 223.289062 C 308.769531 223.289062 309.121094 222.933594 309.121094 222.496094 Z M 308.46875 227.683594 C 308.46875 227.246094 308.117188 226.890625 307.675781 226.890625 L 277.320312 226.890625 C 276.882812 226.890625 276.527344 227.246094 276.527344 227.683594 C 276.527344 228.125 276.882812 228.476562 277.320312 228.476562 L 307.675781 228.476562 C 308.117188 228.476562 308.46875 228.125 308.46875 227.683594 Z M 278.480469 212.117188 C 278.480469 212.558594 278.839844 212.914062 279.273438 212.914062 L 303.804688 212.914062 C 304.242188 212.914062 304.601562 212.558594 304.601562 212.117188 C 304.601562 211.679688 304.242188 211.324219 303.804688 211.324219 L 279.273438 211.324219 C 278.839844 211.324219 278.480469 211.679688 278.480469 212.117188 Z M 279.136719 206.933594 C 279.136719 207.371094 279.488281 207.726562 279.929688 207.726562 L 290.449219 207.726562 C 290.886719 207.726562 291.246094 207.371094 291.246094 206.933594 C 291.246094 206.496094 290.886719 206.136719 290.449219 206.136719 L 279.929688 206.136719 C 279.488281 206.136719 279.136719 206.496094 279.136719 206.933594 Z M 279.785156 201.746094 C 279.785156 202.183594 280.140625 202.539062 280.582031 202.539062 L 310.933594 202.539062 C 311.375 202.539062 311.730469 202.183594 311.730469 201.746094 C 311.730469 201.304688 311.375 200.953125 310.933594 200.953125 L 280.582031 200.953125 C 280.140625 200.953125 279.785156 201.304688 279.785156 201.746094 Z M 273.945312 201.746094 C 273.945312 201.304688 273.589844 200.953125 273.152344 200.953125 L 267.859375 200.953125 C 267.421875 200.953125 267.0625 201.304688 267.0625 201.746094 C 267.0625 202.183594 267.421875 202.539062 267.859375 202.539062 L 273.152344 202.539062 C 273.589844 202.539062 273.945312 202.183594 273.945312 201.746094 Z M 273.289062 206.933594 C 273.289062 206.496094 272.9375 206.136719 272.496094 206.136719 L 267.207031 206.136719 C 266.765625 206.136719 266.414062 206.496094 266.414062 206.933594 C 266.414062 207.371094 266.765625 207.726562 267.207031 207.726562 L 272.496094 207.726562 C 272.9375 207.726562 273.289062 207.371094 273.289062 206.933594 Z M 272.640625 212.117188 C 272.640625 211.679688 272.285156 211.324219 271.847656 211.324219 L 266.550781 211.324219 C 266.117188 211.324219 265.757812 211.679688 265.757812 212.117188 C 265.757812 212.558594 266.117188 212.914062 266.550781 212.914062 L 271.847656 212.914062 C 272.285156 212.914062 272.640625 212.558594 272.640625 212.117188 Z M 271.335938 222.496094 C 271.335938 222.054688 270.980469 221.703125 270.542969 221.703125 L 265.25 221.703125 C 264.8125 221.703125 264.457031 222.054688 264.457031 222.496094 C 264.457031 222.933594 264.8125 223.289062 265.25 223.289062 L 270.542969 223.289062 C 270.980469 223.289062 271.335938 222.933594 271.335938 222.496094 Z M 270.6875 227.683594 C 270.6875 227.246094 270.328125 226.890625 269.890625 226.890625 L 264.597656 226.890625 C 264.160156 226.890625 263.804688 227.246094 263.804688 227.683594 C 263.804688 228.125 264.160156 228.476562 264.597656 228.476562 L 269.890625 228.476562 C 270.328125 228.476562 270.6875 228.125 270.6875 227.683594 Z M 328.414062 198.554688 L 324.046875 233.289062 L 314.519531 233.289062 C 314.601562 233.167969 314.65625 233.027344 314.65625 232.871094 C 314.65625 232.429688 314.300781 232.078125 313.863281 232.078125 L 292.820312 232.078125 C 292.382812 232.078125 292.027344 232.429688 292.027344 232.871094 C 292.027344 233.027344 292.082031 233.167969 292.164062 233.289062 L 287.847656 233.289062 C 287.925781 233.167969 287.984375 233.027344 287.984375 232.871094 C 287.984375 232.429688 287.628906 232.078125 287.191406 232.078125 L 276.667969 232.078125 C 276.230469 232.078125 275.875 232.429688 275.875 232.871094 C 275.875 233.027344 275.933594 233.167969 276.011719 233.289062 L 269.894531 233.289062 C 269.976562 233.167969 270.03125 233.027344 270.03125 232.871094 C 270.03125 232.429688 269.679688 232.078125 269.238281 232.078125 L 263.949219 232.078125 C 263.507812 232.078125 263.152344 232.429688 263.152344 232.871094 C 263.152344 233.027344 263.210938 233.167969 263.289062 233.289062 L 258.070312 233.289062 L 262.4375 198.554688 C 262.714844 196.363281 264.714844 194.585938 266.90625 194.585938 L 324.945312 194.585938 C 327.132812 194.585938 328.691406 196.363281 328.414062 198.554688 Z M 215.726562 210.191406 L 209.679688 210.191406 C 208.84375 210.191406 208.085938 210.867188 207.984375 211.703125 C 207.878906 212.535156 208.46875 213.210938 209.300781 213.210938 L 215.347656 213.210938 C 216.183594 213.210938 216.941406 212.535156 217.046875 211.703125 C 217.148438 210.867188 216.5625 210.191406 215.726562 210.191406 Z M 201.46875 210.191406 L 195.421875 210.191406 C 194.589844 210.191406 193.828125 210.867188 193.722656 211.703125 C 193.621094 212.535156 194.210938 213.210938 195.042969 213.210938 L 201.089844 213.210938 C 201.921875 213.210938 202.683594 212.535156 202.789062 211.703125 C 202.890625 210.867188 202.304688 210.191406 201.46875 210.191406 Z M 191.109375 197.503906 C 190.460938 197.503906 189.867188 198.03125 189.789062 198.679688 C 189.707031 199.328125 190.167969 199.855469 190.8125 199.855469 C 191.460938 199.855469 192.054688 199.328125 192.136719 198.679688 C 192.21875 198.03125 191.757812 197.503906 191.109375 197.503906 Z M 195.261719 199.855469 C 195.910156 199.855469 196.5 199.328125 196.582031 198.679688 C 196.664062 198.03125 196.203125 197.503906 195.554688 197.503906 C 194.90625 197.503906 194.316406 198.03125 194.234375 198.679688 C 194.152344 199.328125 194.613281 199.855469 195.261719 199.855469 Z M 199.703125 199.855469 C 200.351562 199.855469 200.945312 199.328125 201.023438 198.679688 C 201.109375 198.03125 200.648438 197.503906 200 197.503906 C 199.351562 197.503906 198.761719 198.03125 198.679688 198.679688 C 198.597656 199.328125 199.054688 199.855469 199.703125 199.855469 Z M 212.066406 204.792969 L 200.238281 204.792969 C 199.800781 204.792969 199.445312 205.148438 199.445312 205.585938 C 199.445312 206.027344 199.800781 206.378906 200.238281 206.378906 L 212.066406 206.378906 C 212.507812 206.378906 212.859375 206.027344 212.859375 205.585938 C 212.859375 205.148438 212.507812 204.792969 212.066406 204.792969 Z M 224.082031 194.574219 C 226.277344 194.574219 227.832031 196.355469 227.554688 198.546875 L 225.890625 211.78125 C 225.617188 213.972656 223.613281 215.75 221.425781 215.75 L 187.714844 215.75 C 185.523438 215.75 183.96875 213.972656 184.246094 211.78125 L 185.910156 198.546875 C 186.183594 196.355469 188.183594 194.574219 190.378906 194.574219 Z M 206.152344 125.601562 C 206.238281 124.953125 205.777344 124.425781 205.128906 124.425781 C 204.484375 124.425781 203.890625 124.953125 203.808594 125.601562 C 203.726562 126.25 204.183594 126.773438 204.832031 126.773438 C 205.480469 126.773438 206.074219 126.25 206.152344 125.601562 Z M 248.0625 183.320312 C 248.0625 182.878906 247.707031 182.523438 247.269531 182.523438 L 243.210938 182.523438 C 242.773438 182.523438 242.417969 182.878906 242.417969 183.320312 C 242.417969 183.757812 242.773438 184.113281 243.210938 184.113281 L 247.269531 184.113281 C 247.707031 184.113281 248.0625 183.757812 248.0625 183.320312 Z M 242.246094 142.558594 C 242.683594 142.558594 243.039062 142.203125 243.039062 141.765625 C 243.039062 141.324219 242.683594 140.972656 242.246094 140.972656 L 230.425781 140.972656 C 229.992188 140.972656 229.632812 141.324219 229.632812 141.765625 C 229.632812 142.203125 229.992188 142.558594 230.425781 142.558594 Z M 239.945312 148.714844 L 211.191406 148.714844 C 210.019531 148.714844 208.953125 149.664062 208.808594 150.835938 L 207.9375 157.753906 C 207.792969 158.917969 208.621094 159.867188 209.789062 159.867188 L 238.542969 159.867188 C 239.710938 159.867188 240.777344 158.917969 240.925781 157.753906 L 241.792969 150.835938 C 241.941406 149.664062 241.109375 148.714844 239.945312 148.714844 Z M 227.539062 180.300781 L 231.59375 180.300781 C 232.03125 180.300781 232.386719 179.945312 232.386719 179.507812 C 232.386719 179.066406 232.03125 178.714844 231.59375 178.714844 L 227.539062 178.714844 C 227.097656 178.714844 226.742188 179.066406 226.742188 179.507812 C 226.742188 179.945312 227.097656 180.300781 227.539062 180.300781 Z M 234.484375 183.320312 C 234.484375 182.878906 234.125 182.523438 233.691406 182.523438 L 227.058594 182.523438 C 226.621094 182.523438 226.261719 182.878906 226.261719 183.320312 C 226.261719 183.757812 226.621094 184.113281 227.058594 184.113281 L 233.691406 184.113281 C 234.125 184.113281 234.484375 183.757812 234.484375 183.320312 Z M 220.757812 179.507812 C 220.757812 179.066406 220.398438 178.714844 219.960938 178.714844 L 212.878906 178.714844 C 212.441406 178.714844 212.085938 179.066406 212.085938 179.507812 C 212.085938 179.945312 212.441406 180.300781 212.878906 180.300781 L 219.960938 180.300781 C 220.398438 180.300781 220.757812 179.945312 220.757812 179.507812 Z M 217.253906 183.320312 C 217.253906 182.878906 216.894531 182.523438 216.457031 182.523438 L 212.398438 182.523438 C 211.960938 182.523438 211.605469 182.878906 211.605469 183.320312 C 211.605469 183.757812 211.960938 184.113281 212.398438 184.113281 L 216.457031 184.113281 C 216.894531 184.113281 217.253906 183.757812 217.253906 183.320312 Z M 204.742188 179.507812 C 204.742188 179.066406 204.390625 178.714844 203.949219 178.714844 L 195.835938 178.714844 C 195.398438 178.714844 195.042969 179.066406 195.042969 179.507812 C 195.042969 179.945312 195.398438 180.300781 195.835938 180.300781 L 203.949219 180.300781 C 204.390625 180.300781 204.742188 179.945312 204.742188 179.507812 Z M 201.023438 183.320312 C 201.023438 182.878906 200.667969 182.523438 200.230469 182.523438 L 195.359375 182.523438 C 194.917969 182.523438 194.566406 182.878906 194.566406 183.320312 C 194.566406 183.757812 194.917969 184.113281 195.359375 184.113281 L 200.230469 184.113281 C 200.667969 184.113281 201.023438 183.757812 201.023438 183.320312 Z M 209.152344 141.765625 C 209.152344 142.203125 209.507812 142.558594 209.945312 142.558594 L 224.9375 142.558594 C 225.378906 142.558594 225.734375 142.203125 225.734375 141.765625 C 225.734375 141.324219 225.378906 140.972656 224.9375 140.972656 L 209.945312 140.972656 C 209.507812 140.972656 209.152344 141.324219 209.152344 141.765625 Z M 242.894531 179.507812 C 242.894531 179.945312 243.253906 180.300781 243.691406 180.300781 L 250.773438 180.300781 C 251.210938 180.300781 251.566406 179.945312 251.566406 179.507812 C 251.566406 179.066406 251.210938 178.714844 250.773438 178.714844 L 243.691406 178.714844 C 243.253906 178.714844 242.894531 179.066406 242.894531 179.507812 Z M 249.554688 188.773438 L 191.515625 188.773438 C 189.324219 188.773438 187.769531 186.996094 188.046875 184.800781 L 194.753906 131.386719 L 260.730469 131.386719 L 261.6875 123.785156 L 254.019531 184.800781 C 253.746094 186.996094 251.746094 188.773438 249.554688 188.773438 Z M 338.425781 227.660156 L 330.417969 227.660156 C 329.980469 227.660156 329.625 228.019531 329.625 228.457031 C 329.625 228.890625 329.980469 229.25 330.417969 229.25 L 338.425781 229.25 C 338.863281 229.25 339.222656 228.890625 339.222656 228.457031 C 339.222656 228.019531 338.863281 227.660156 338.425781 227.660156 Z M 342.339844 222.472656 L 331.070312 222.472656 C 330.632812 222.472656 330.277344 222.828125 330.277344 223.265625 C 330.277344 223.707031 330.632812 224.058594 331.070312 224.058594 L 342.339844 224.058594 C 342.78125 224.058594 343.132812 223.707031 343.132812 223.265625 C 343.132812 222.828125 342.78125 222.472656 342.339844 222.472656 Z M 331.722656 218.875 L 338.410156 218.875 C 338.847656 218.875 339.207031 218.515625 339.207031 218.078125 C 339.207031 217.644531 338.847656 217.285156 338.410156 217.285156 L 331.722656 217.285156 C 331.28125 217.285156 330.929688 217.644531 330.929688 218.078125 C 330.929688 218.515625 331.28125 218.875 331.722656 218.875 Z M 346.222656 158.6875 L 338.214844 158.6875 C 337.777344 158.6875 337.421875 159.042969 337.421875 159.480469 C 337.421875 159.921875 337.777344 160.273438 338.214844 160.273438 L 346.222656 160.273438 C 346.660156 160.273438 347.015625 159.921875 347.015625 159.480469 C 347.015625 159.042969 346.660156 158.6875 346.222656 158.6875 Z M 350.136719 153.5 L 338.867188 153.5 C 338.425781 153.5 338.074219 153.851562 338.074219 154.292969 C 338.074219 154.730469 338.425781 155.085938 338.867188 155.085938 L 350.136719 155.085938 C 350.578125 155.085938 350.929688 154.730469 350.929688 154.292969 C 350.929688 153.851562 350.578125 153.5 350.136719 153.5 Z M 339.519531 148.308594 C 339.082031 148.308594 338.726562 148.667969 338.726562 149.105469 C 338.726562 149.542969 339.082031 149.898438 339.519531 149.898438 L 346.207031 149.898438 C 346.648438 149.898438 347 149.542969 347 149.105469 C 347 148.667969 346.648438 148.308594 346.207031 148.308594 Z M 327.40625 131.386719 C 327.40625 130.949219 327.054688 130.59375 326.613281 130.59375 L 313.238281 130.59375 C 312.796875 130.59375 312.445312 130.949219 312.445312 131.386719 C 312.445312 131.828125 312.796875 132.179688 313.238281 132.179688 L 326.613281 132.179688 C 327.054688 132.179688 327.40625 131.828125 327.40625 131.386719 Z M 320.707031 141.765625 C 320.707031 141.324219 320.355469 140.972656 319.914062 140.972656 L 308.226562 140.972656 C 307.789062 140.972656 307.433594 141.324219 307.433594 141.765625 C 307.433594 142.203125 307.789062 142.558594 308.226562 142.558594 L 319.914062 142.558594 C 320.355469 142.558594 320.707031 142.203125 320.707031 141.765625 Z M 317.449219 167.703125 C 317.449219 167.265625 317.097656 166.90625 316.65625 166.90625 L 304.96875 166.90625 C 304.53125 166.90625 304.175781 167.265625 304.175781 167.703125 C 304.175781 168.144531 304.53125 168.496094 304.96875 168.496094 L 316.65625 168.496094 C 317.097656 168.496094 317.449219 168.144531 317.449219 167.703125 Z M 311.648438 172.890625 C 311.648438 172.449219 311.292969 172.097656 310.855469 172.097656 L 296.734375 172.097656 C 296.292969 172.097656 295.9375 172.449219 295.9375 172.890625 C 295.9375 173.328125 296.292969 173.683594 296.734375 173.683594 L 310.855469 173.683594 C 311.292969 173.683594 311.648438 173.328125 311.648438 172.890625 Z M 303.644531 178.078125 C 303.644531 177.640625 303.289062 177.285156 302.851562 177.285156 L 283.554688 177.285156 C 283.113281 177.285156 282.761719 177.640625 282.761719 178.078125 C 282.761719 178.519531 283.113281 178.871094 283.554688 178.871094 L 302.851562 178.871094 C 303.289062 178.871094 303.644531 178.519531 303.644531 178.078125 Z M 282.78125 131.386719 C 282.78125 130.949219 282.429688 130.59375 281.988281 130.59375 L 276.699219 130.59375 C 276.261719 130.59375 275.90625 130.949219 275.90625 131.386719 C 275.90625 131.828125 276.261719 132.179688 276.699219 132.179688 L 281.988281 132.179688 C 282.429688 132.179688 282.78125 131.828125 282.78125 131.386719 Z M 282.132812 136.578125 C 282.132812 136.140625 281.777344 135.78125 281.335938 135.78125 L 276.046875 135.78125 C 275.605469 135.78125 275.253906 136.140625 275.253906 136.578125 C 275.253906 137.015625 275.605469 137.371094 276.046875 137.371094 L 281.335938 137.371094 C 281.777344 137.371094 282.132812 137.015625 282.132812 136.578125 Z M 281.480469 141.765625 C 281.480469 141.324219 281.125 140.972656 280.6875 140.972656 L 275.394531 140.972656 C 274.957031 140.972656 274.601562 141.324219 274.601562 141.765625 C 274.601562 142.203125 274.957031 142.558594 275.394531 142.558594 L 280.6875 142.558594 C 281.125 142.558594 281.480469 142.203125 281.480469 141.765625 Z M 280.828125 146.953125 C 280.828125 146.515625 280.472656 146.15625 280.035156 146.15625 L 274.742188 146.15625 C 274.304688 146.15625 273.949219 146.515625 273.949219 146.953125 C 273.949219 147.390625 274.304688 147.746094 274.742188 147.746094 L 280.035156 147.746094 C 280.472656 147.746094 280.828125 147.390625 280.828125 146.953125 Z M 280.175781 152.140625 C 280.175781 151.699219 279.820312 151.347656 279.382812 151.347656 L 274.089844 151.347656 C 273.652344 151.347656 273.296875 151.699219 273.296875 152.140625 C 273.296875 152.578125 273.652344 152.933594 274.089844 152.933594 L 279.382812 152.933594 C 279.820312 152.933594 280.175781 152.578125 280.175781 152.140625 Z M 278.871094 162.515625 C 278.871094 162.074219 278.519531 161.722656 278.078125 161.722656 L 272.789062 161.722656 C 272.347656 161.722656 271.996094 162.074219 271.996094 162.515625 C 271.996094 162.953125 272.347656 163.308594 272.789062 163.308594 L 278.078125 163.308594 C 278.519531 163.308594 278.871094 162.953125 278.871094 162.515625 Z M 278.222656 167.703125 C 278.222656 167.265625 277.863281 166.90625 277.425781 166.90625 L 272.132812 166.90625 C 271.695312 166.90625 271.339844 167.265625 271.339844 167.703125 C 271.339844 168.144531 271.695312 168.496094 272.132812 168.496094 L 277.425781 168.496094 C 277.863281 168.496094 278.222656 168.144531 278.222656 167.703125 Z M 277.570312 172.890625 C 277.570312 172.449219 277.214844 172.097656 276.777344 172.097656 L 271.484375 172.097656 C 271.046875 172.097656 270.6875 172.449219 270.6875 172.890625 C 270.6875 173.328125 271.046875 173.683594 271.484375 173.683594 L 276.777344 173.683594 C 277.214844 173.683594 277.570312 173.328125 277.570312 172.890625 Z M 276.917969 178.078125 C 276.917969 177.640625 276.5625 177.285156 276.125 177.285156 L 270.832031 177.285156 C 270.394531 177.285156 270.039062 177.640625 270.039062 178.078125 C 270.039062 178.519531 270.394531 178.871094 270.832031 178.871094 L 276.125 178.871094 C 276.5625 178.871094 276.917969 178.519531 276.917969 178.078125 Z M 283.410156 172.890625 C 283.410156 173.328125 283.769531 173.683594 284.207031 173.683594 L 292.210938 173.683594 C 292.648438 173.683594 293.007812 173.328125 293.007812 172.890625 C 293.007812 172.449219 292.648438 172.097656 292.210938 172.097656 L 284.207031 172.097656 C 283.769531 172.097656 283.410156 172.449219 283.410156 172.890625 Z M 284.0625 167.703125 C 284.0625 168.144531 284.417969 168.496094 284.855469 168.496094 L 300.449219 168.496094 C 300.886719 168.496094 301.246094 168.144531 301.246094 167.703125 C 301.246094 167.265625 300.886719 166.90625 300.449219 166.90625 L 284.855469 166.90625 C 284.417969 166.90625 284.0625 167.265625 284.0625 167.703125 Z M 284.714844 162.515625 C 284.714844 162.953125 285.070312 163.308594 285.507812 163.308594 L 292.195312 163.308594 C 292.636719 163.308594 292.992188 162.953125 292.992188 162.515625 C 292.992188 162.074219 292.636719 161.722656 292.195312 161.722656 L 285.507812 161.722656 C 285.070312 161.722656 284.714844 162.074219 284.714844 162.515625 Z M 286.019531 152.140625 C 286.019531 152.578125 286.375 152.933594 286.8125 152.933594 L 296.460938 152.933594 C 296.902344 152.933594 297.253906 152.578125 297.253906 152.140625 C 297.253906 151.699219 296.902344 151.347656 296.460938 151.347656 L 286.8125 151.347656 C 286.375 151.347656 286.019531 151.699219 286.019531 152.140625 Z M 286.671875 146.953125 C 286.671875 147.390625 287.027344 147.746094 287.464844 147.746094 L 295.472656 147.746094 C 295.910156 147.746094 296.265625 147.390625 296.265625 146.953125 C 296.265625 146.515625 295.910156 146.15625 295.472656 146.15625 L 287.464844 146.15625 C 287.027344 146.15625 286.671875 146.515625 286.671875 146.953125 Z M 287.320312 141.765625 C 287.320312 142.203125 287.679688 142.558594 288.117188 142.558594 L 303.710938 142.558594 C 304.148438 142.558594 304.503906 142.203125 304.503906 141.765625 C 304.503906 141.324219 304.148438 140.972656 303.710938 140.972656 L 288.117188 140.972656 C 287.679688 140.972656 287.320312 141.324219 287.320312 141.765625 Z M 287.972656 136.578125 C 287.972656 137.015625 288.328125 137.371094 288.765625 137.371094 L 295.457031 137.371094 C 295.894531 137.371094 296.25 137.015625 296.25 136.578125 C 296.25 136.140625 295.894531 135.78125 295.457031 135.78125 L 288.765625 135.78125 C 288.328125 135.78125 287.972656 136.140625 287.972656 136.578125 Z M 288.628906 131.386719 C 288.628906 131.828125 288.980469 132.179688 289.421875 132.179688 L 308.71875 132.179688 C 309.15625 132.179688 309.511719 131.828125 309.511719 131.386719 C 309.511719 130.949219 309.15625 130.59375 308.71875 130.59375 L 289.421875 130.59375 C 288.980469 130.59375 288.628906 130.949219 288.628906 131.386719 Z M 312.410156 137.371094 C 312.851562 137.371094 313.203125 137.015625 313.203125 136.578125 C 313.203125 136.140625 312.851562 135.78125 312.410156 135.78125 L 299.035156 135.78125 C 298.597656 135.78125 298.238281 136.140625 298.238281 136.578125 C 298.238281 137.015625 298.597656 137.371094 299.035156 137.371094 Z M 306.089844 146.953125 C 306.089844 146.515625 305.730469 146.15625 305.292969 146.15625 L 299.992188 146.15625 C 299.550781 146.15625 299.199219 146.515625 299.199219 146.953125 C 299.199219 147.390625 299.550781 147.746094 299.992188 147.746094 L 305.292969 147.746094 C 305.730469 147.746094 306.089844 147.390625 306.089844 146.953125 Z M 309.152344 161.722656 L 295.773438 161.722656 C 295.335938 161.722656 294.980469 162.074219 294.980469 162.515625 C 294.980469 162.953125 295.335938 163.308594 295.773438 163.308594 L 309.152344 163.308594 C 309.59375 163.308594 309.945312 162.953125 309.945312 162.515625 C 309.945312 162.074219 309.59375 161.722656 309.152344 161.722656 Z M 313.761719 152.933594 C 314.195312 152.933594 314.554688 152.578125 314.554688 152.140625 C 314.554688 151.699219 314.195312 151.347656 313.761719 151.347656 L 299.929688 151.347656 C 299.492188 151.347656 299.136719 151.699219 299.136719 152.140625 C 299.136719 152.578125 299.492188 152.933594 299.929688 152.933594 Z M 330.140625 184.800781 C 329.867188 186.996094 327.867188 188.773438 325.671875 188.773438 L 267.632812 188.773438 C 265.441406 188.773438 263.890625 186.996094 264.164062 184.800781 L 271.832031 123.785156 C 272.105469 121.59375 274.109375 119.816406 276.296875 119.816406 L 334.335938 119.816406 C 336.53125 119.816406 338.082031 121.59375 337.808594 123.785156 Z M 122.65625 144.238281 L 121.917969 138.144531 C 121.207031 132.230469 122.949219 126.640625 126.292969 122.328125 L 93.777344 122.328125 L 93.777344 144.148438 C 93.777344 144.179688 93.769531 144.207031 93.769531 144.238281 Z M 87.117188 121.59375 L 79.25 121.59375 L 79.25 140.625 L 87.117188 140.625 Z M 75.261719 122.328125 L 75.261719 119.214844 L 67.398438 119.214844 L 67.398438 140.625 L 75.261719 140.625 Z M 63.40625 124.453125 L 55.542969 124.453125 L 55.542969 140.625 L 63.40625 140.625 Z M 51.550781 134.011719 L 43.6875 134.011719 L 43.6875 140.625 L 51.550781 140.625 Z M 39.695312 130.644531 L 31.832031 130.644531 L 31.832031 140.625 L 39.695312 140.625 Z M 120.050781 167.734375 L 0.351562 167.734375 C 0.335938 167.46875 0.3125 167.203125 0.296875 166.9375 L 120.273438 166.9375 L 122.449219 159.269531 C 123.386719 155.960938 123.65625 152.507812 123.242188 149.09375 L 122.753906 145.03125 L 93.671875 145.03125 C 93.265625 146.796875 91.695312 148.117188 89.808594 148.117188 L 31.21875 148.117188 C 29.332031 148.117188 27.757812 146.796875 27.355469 145.03125 L 0.585938 145.03125 C 0.609375 144.765625 0.640625 144.5 0.667969 144.238281 L 27.257812 144.238281 C 27.257812 144.207031 27.25 144.179688 27.25 144.148438 L 27.25 122.328125 L 4.816406 122.328125 C 4.890625 122.0625 4.972656 121.800781 5.050781 121.535156 L 27.25 121.535156 L 27.25 113.402344 C 27.25 111.210938 29.027344 109.433594 31.21875 109.433594 L 89.808594 109.433594 C 92 109.433594 93.777344 111.210938 93.777344 113.402344 L 93.777344 121.535156 L 126.941406 121.535156 C 130.882812 116.925781 136.730469 113.960938 143.351562 113.960938 C 149.886719 113.960938 155.792969 116.878906 159.773438 121.535156 L 180.671875 121.535156 L 180.585938 122.328125 L 160.417969 122.328125 C 162.816406 125.421875 164.402344 129.191406 164.824219 133.339844 L 165.042969 135.4375 L 169.5625 144.238281 L 178.15625 144.238281 L 178.066406 145.03125 L 169.855469 145.03125 C 169.875 145.535156 169.5625 146.019531 169.035156 146.171875 L 167.261719 146.695312 C 166.746094 146.84375 166.40625 147.332031 166.449219 147.871094 C 166.71875 151.402344 167.515625 164 165.042969 165.332031 C 162.164062 166.882812 148.425781 164.105469 148.425781 164.105469 C 148.164062 165.039062 147.949219 165.988281 147.769531 166.9375 L 175.636719 166.9375 L 175.550781 167.734375 L 147.636719 167.734375 C 147.148438 170.679688 147.027344 173.671875 147.28125 176.644531 C 144.203125 175.59375 140.085938 173.980469 133.6875 172.675781 C 127.554688 171.429688 121.640625 172.839844 118.285156 173.957031 Z M 102.050781 231.671875 C 101.074219 225.503906 99.785156 219.136719 98.175781 213.140625 L 98.179688 213.140625 C 98.152344 213.035156 98.125 212.929688 98.09375 212.828125 C 97.519531 210.707031 96.90625 208.628906 96.246094 206.628906 C 94.050781 199.941406 96.140625 193.144531 100.691406 188.753906 C 100.472656 188.851562 100.246094 188.941406 100.03125 189.046875 C 99.660156 189.234375 99.304688 189.4375 98.953125 189.640625 L 3.375 189.640625 C 3.433594 189.90625 3.484375 190.171875 3.542969 190.433594 L 97.734375 190.433594 C 90.867188 195.363281 88.652344 204.800781 92.898438 212.34375 L 9.625 212.34375 C 9.714844 212.609375 9.796875 212.875 9.890625 213.140625 L 93.34375 213.140625 Z M 176.496094 349.066406 C 179.734375 349.066406 182.980469 348.890625 186.230469 348.558594 L 165.464844 348.558594 C 169.128906 348.882812 172.808594 349.066406 176.496094 349.066406 Z M 132.007812 325.882812 C 131.238281 325.882812 130.488281 325.875 129.75 325.859375 L 99.996094 325.859375 C 100.433594 326.125 100.875 326.386719 101.3125 326.652344 L 244.054688 326.652344 C 244.464844 326.386719 244.871094 326.121094 245.277344 325.859375 L 132.972656 325.859375 C 132.648438 325.859375 132.339844 325.882812 132.007812 325.882812 Z M 100.492188 303.152344 L 69.902344 303.152344 C 70.195312 303.421875 70.484375 303.683594 70.777344 303.945312 L 100.539062 303.945312 C 100.523438 303.683594 100.507812 303.421875 100.492188 303.152344 Z M 167.550781 303.945312 L 273.191406 303.945312 C 273.476562 303.683594 273.761719 303.421875 274.046875 303.152344 L 167.832031 303.152344 C 167.742188 303.414062 167.652344 303.675781 167.550781 303.945312 Z M 101.117188 280.453125 L 48.257812 280.453125 C 48.480469 280.71875 48.707031 280.980469 48.929688 281.246094 L 101.039062 281.246094 C 101.0625 280.980469 101.089844 280.714844 101.117188 280.453125 Z M 104.414062 257.746094 L 31.710938 257.746094 C 31.878906 258.015625 32.050781 258.277344 32.222656 258.542969 L 104.414062 258.542969 C 104.414062 258.285156 104.414062 258.019531 104.414062 257.746094 Z M 226.730469 269.136719 C 228.59375 269.4375 230.421875 269.726562 232.191406 269.996094 L 231.992188 269.683594 L 227.28125 268.683594 Z M 268.226562 280.453125 L 280.175781 280.453125 L 276.394531 277.816406 L 269.636719 279.359375 Z M 176.5625 235.046875 L 327.96875 235.046875 C 327.8125 235.308594 327.660156 235.578125 327.507812 235.839844 L 176.964844 235.839844 C 181.996094 245.585938 186.605469 253.6875 189.386719 257.746094 L 313.398438 257.746094 C 313.210938 258.015625 313.023438 258.277344 312.839844 258.542969 L 189.945312 258.542969 C 190.667969 259.546875 191.234375 260.203125 191.605469 260.449219 C 194.554688 262.414062 201.84375 264.386719 210.359375 266.15625 L 223.867188 261.058594 C 225.246094 260.539062 226.789062 260.714844 228.015625 261.535156 L 234.6875 265.996094 L 237.472656 270.785156 C 242.683594 271.539062 246.964844 272.101562 249.347656 272.40625 L 256.746094 272.128906 L 272.605469 266.644531 C 274.027344 266.15625 275.605469 266.378906 276.832031 267.253906 L 283.515625 272 L 288.117188 280.453125 L 295.78125 280.453125 C 295.554688 280.714844 295.328125 280.980469 295.101562 281.246094 L 288.546875 281.246094 L 288.703125 281.53125 C 288.996094 282.074219 288.773438 282.753906 288.210938 283.011719 C 287.09375 282.933594 285.8125 282.375 284.769531 281.597656 L 285.039062 283.421875 C 285.164062 284.257812 284.480469 284.996094 283.640625 284.933594 C 282.328125 284.839844 281.25 283.867188 281.023438 282.570312 L 280.792969 281.246094 L 267.199219 281.246094 L 263.949219 283.761719 C 262.417969 284.941406 260.636719 285.734375 258.753906 286.078125 C 257.527344 286.300781 256.265625 286.265625 255.03125 286.097656 L 247.53125 285.0625 L 191.695312 284.664062 C 184.953125 284.382812 179.988281 283.101562 176.210938 281.246094 L 161.96875 281.246094 C 161.929688 281.117188 161.890625 280.992188 161.855469 280.859375 L 161.851562 280.859375 C 161.820312 280.757812 161.789062 280.652344 161.757812 280.542969 C 161.75 280.515625 161.742188 280.484375 161.730469 280.453125 L 161.734375 280.453125 C 160.539062 276.402344 159.679688 272.203125 159.679688 268.492188 C 159.679688 266.378906 159.996094 264.152344 160.503906 261.84375 C 160.632812 261.871094 160.765625 261.894531 160.898438 261.917969 L 152.523438 245.746094 C 152.085938 245.839844 151.636719 245.890625 151.175781 245.890625 C 147.007812 245.890625 142.898438 241.980469 139.808594 235.839844 L 19.398438 235.839844 C 19.273438 235.578125 19.136719 235.3125 19.007812 235.046875 L 139.421875 235.046875 C 137.152344 230.261719 135.488281 224.25 134.851562 217.707031 C 134.339844 212.460938 134.550781 207.554688 135.34375 203.351562 C 135.28125 197.851562 136.761719 193.050781 140.863281 191.136719 C 141.191406 190.984375 141.523438 190.863281 141.851562 190.734375 C 143.023438 189.949219 144.300781 189.527344 145.671875 189.527344 C 146.230469 189.527344 146.785156 189.601562 147.335938 189.738281 C 152.835938 189.859375 157.726562 193.371094 160.042969 199.199219 C 164.675781 210.855469 170.855469 223.953125 176.554688 235.046875 Z M 170.519531 213.140625 L 170.605469 212.34375 L 167.429688 212.34375 C 167.519531 212.609375 167.609375 212.875 167.699219 213.140625 Z M 173.125 189.640625 L 157.574219 189.640625 C 157.667969 189.804688 157.757812 189.964844 157.84375 190.128906 C 157.890625 190.230469 157.945312 190.335938 157.996094 190.433594 L 173.035156 190.433594 Z M 359.367188 98.832031 L 14.433594 98.832031 C 14.292969 99.097656 14.152344 99.363281 14.011719 99.625 L 359.558594 99.625 C 359.496094 99.363281 359.433594 99.097656 359.367188 98.832031 " fill-opacity="1" fill-rule="nonzero"/></g><g clip-path="url(#1321a59bbe)"><path fill="#393a3f" d="M 272.957031 260.199219 L 250.597656 260.265625 L 239.421875 260.304688 L 228.242188 260.414062 L 228.242188 260.773438 L 239.421875 260.882812 L 250.597656 260.921875 L 272.957031 260.988281 L 295.316406 260.90625 L 306.496094 260.863281 L 317.675781 260.746094 L 317.675781 260.441406 L 306.496094 260.328125 L 295.316406 260.28125 Z M 263.582031 84.382812 L 255.503906 84.382812 L 255.503906 85.175781 L 263.582031 85.175781 Z M 267.789062 82.527344 L 267.789062 81.734375 L 262.648438 81.734375 L 262.648438 82.527344 Z M 260.644531 81.734375 L 255.503906 81.734375 L 255.503906 82.527344 L 260.644531 82.527344 Z M 267.789062 79.085938 L 255.503906 79.085938 L 255.503906 79.882812 L 267.789062 79.882812 Z M 273.304688 23.800781 C 274.453125 23.800781 275.382812 22.867188 275.382812 21.722656 C 275.382812 20.578125 274.453125 19.644531 273.304688 19.644531 C 272.160156 19.644531 271.230469 20.578125 271.230469 21.722656 C 271.230469 22.867188 272.160156 23.800781 273.304688 23.800781 Z M 160.460938 23.800781 C 161.605469 23.800781 162.539062 22.867188 162.539062 21.722656 C 162.539062 20.578125 161.605469 19.644531 160.460938 19.644531 C 159.3125 19.644531 158.382812 20.578125 158.382812 21.722656 C 158.382812 22.867188 159.3125 23.800781 160.460938 23.800781 Z M 79.34375 86.101562 L 71.265625 86.101562 L 71.265625 86.898438 L 79.34375 86.898438 Z M 83.550781 84.25 L 83.550781 83.453125 L 78.410156 83.453125 L 78.410156 84.25 Z M 76.40625 83.453125 L 71.265625 83.453125 L 71.265625 84.25 L 76.40625 84.25 Z M 83.550781 80.808594 L 71.265625 80.808594 L 71.265625 81.601562 L 83.550781 81.601562 Z M 50.136719 23.800781 C 51.28125 23.800781 52.210938 22.867188 52.210938 21.722656 C 52.210938 20.578125 51.28125 19.644531 50.136719 19.644531 C 48.992188 19.644531 48.058594 20.578125 48.058594 21.722656 C 48.058594 22.867188 48.992188 23.800781 50.136719 23.800781 Z M 35.367188 144.4375 L 36.164062 144.4375 L 36.164062 143.589844 L 47.222656 143.589844 L 47.222656 144.4375 L 48.015625 144.4375 L 48.015625 143.589844 L 59.078125 143.589844 L 59.078125 144.4375 L 59.871094 144.4375 L 59.871094 143.589844 L 70.933594 143.589844 L 70.933594 144.4375 L 71.726562 144.4375 L 71.726562 143.589844 L 82.785156 143.589844 L 82.785156 144.4375 L 83.582031 144.4375 L 83.582031 143.589844 L 87.191406 143.589844 L 87.191406 142.796875 L 83.582031 142.796875 L 83.582031 141.949219 L 82.785156 141.949219 L 82.785156 142.796875 L 71.726562 142.796875 L 71.726562 141.949219 L 70.933594 141.949219 L 70.933594 142.796875 L 59.871094 142.796875 L 59.871094 141.949219 L 59.078125 141.949219 L 59.078125 142.796875 L 48.015625 142.796875 L 48.015625 141.949219 L 47.222656 141.949219 L 47.222656 142.796875 L 36.164062 142.796875 L 36.164062 141.949219 L 35.367188 141.949219 L 35.367188 142.796875 L 31.832031 142.796875 L 31.832031 143.589844 L 35.367188 143.589844 Z M 293.082031 113.960938 C 293.082031 113.523438 292.726562 113.164062 292.289062 113.164062 L 189.730469 113.164062 C 189.292969 113.164062 188.9375 113.523438 188.9375 113.960938 C 188.9375 114.398438 189.292969 114.753906 189.730469 114.753906 L 292.289062 114.753906 C 292.726562 114.753906 293.082031 114.398438 293.082031 113.960938 Z M 269.890625 226.890625 L 264.597656 226.890625 C 264.160156 226.890625 263.804688 227.246094 263.804688 227.683594 C 263.804688 228.125 264.160156 228.476562 264.597656 228.476562 L 269.890625 228.476562 C 270.328125 228.476562 270.6875 228.125 270.6875 227.683594 C 270.6875 227.246094 270.328125 226.890625 269.890625 226.890625 Z M 271.335938 222.496094 C 271.335938 222.054688 270.980469 221.703125 270.542969 221.703125 L 265.25 221.703125 C 264.8125 221.703125 264.457031 222.054688 264.457031 222.496094 C 264.457031 222.933594 264.8125 223.289062 265.25 223.289062 L 270.542969 223.289062 C 270.980469 223.289062 271.335938 222.933594 271.335938 222.496094 Z M 272.640625 212.117188 C 272.640625 211.679688 272.285156 211.324219 271.847656 211.324219 L 266.550781 211.324219 C 266.117188 211.324219 265.757812 211.679688 265.757812 212.117188 C 265.757812 212.558594 266.117188 212.914062 266.550781 212.914062 L 271.847656 212.914062 C 272.285156 212.914062 272.640625 212.558594 272.640625 212.117188 Z M 273.289062 206.933594 C 273.289062 206.496094 272.9375 206.136719 272.496094 206.136719 L 267.207031 206.136719 C 266.765625 206.136719 266.414062 206.496094 266.414062 206.933594 C 266.414062 207.371094 266.765625 207.726562 267.207031 207.726562 L 272.496094 207.726562 C 272.9375 207.726562 273.289062 207.371094 273.289062 206.933594 Z M 273.945312 201.746094 C 273.945312 201.304688 273.589844 200.953125 273.152344 200.953125 L 267.859375 200.953125 C 267.421875 200.953125 267.0625 201.304688 267.0625 201.746094 C 267.0625 202.183594 267.421875 202.539062 267.859375 202.539062 L 273.152344 202.539062 C 273.589844 202.539062 273.945312 202.183594 273.945312 201.746094 Z M 198.679688 198.679688 C 198.597656 199.328125 199.054688 199.855469 199.703125 199.855469 C 200.351562 199.855469 200.945312 199.328125 201.023438 198.679688 C 201.109375 198.03125 200.648438 197.503906 200 197.503906 C 199.351562 197.503906 198.761719 198.03125 198.679688 198.679688 Z M 208.253906 125.601562 C 208.171875 126.25 208.632812 126.773438 209.28125 126.773438 C 209.929688 126.773438 210.519531 126.25 210.601562 125.601562 C 210.679688 124.953125 210.222656 124.425781 209.574219 124.425781 C 208.925781 124.425781 208.335938 124.953125 208.253906 125.601562 Z M 220.003906 153.5 C 219.566406 153.5 219.207031 153.851562 219.207031 154.292969 C 219.207031 154.730469 219.566406 155.085938 220.003906 155.085938 L 229.730469 155.085938 C 230.167969 155.085938 230.523438 154.730469 230.523438 154.292969 C 230.523438 153.851562 230.167969 153.5 229.730469 153.5 Z M 276.917969 178.078125 C 276.917969 177.640625 276.5625 177.285156 276.125 177.285156 L 270.832031 177.285156 C 270.394531 177.285156 270.039062 177.640625 270.039062 178.078125 C 270.039062 178.519531 270.394531 178.871094 270.832031 178.871094 L 276.125 178.871094 C 276.5625 178.871094 276.917969 178.519531 276.917969 178.078125 Z M 277.570312 172.890625 C 277.570312 172.449219 277.214844 172.097656 276.777344 172.097656 L 271.484375 172.097656 C 271.046875 172.097656 270.6875 172.449219 270.6875 172.890625 C 270.6875 173.328125 271.046875 173.683594 271.484375 173.683594 L 276.777344 173.683594 C 277.214844 173.683594 277.570312 173.328125 277.570312 172.890625 Z M 278.222656 167.703125 C 278.222656 167.265625 277.863281 166.90625 277.425781 166.90625 L 272.132812 166.90625 C 271.695312 166.90625 271.339844 167.265625 271.339844 167.703125 C 271.339844 168.144531 271.695312 168.496094 272.132812 168.496094 L 277.425781 168.496094 C 277.863281 168.496094 278.222656 168.144531 278.222656 167.703125 Z M 278.871094 162.515625 C 278.871094 162.074219 278.519531 161.722656 278.078125 161.722656 L 272.789062 161.722656 C 272.347656 161.722656 271.996094 162.074219 271.996094 162.515625 C 271.996094 162.953125 272.347656 163.308594 272.789062 163.308594 L 278.078125 163.308594 C 278.519531 163.308594 278.871094 162.953125 278.871094 162.515625 Z M 280.175781 152.140625 C 280.175781 151.699219 279.820312 151.347656 279.382812 151.347656 L 274.089844 151.347656 C 273.652344 151.347656 273.296875 151.699219 273.296875 152.140625 C 273.296875 152.578125 273.652344 152.933594 274.089844 152.933594 L 279.382812 152.933594 C 279.820312 152.933594 280.175781 152.578125 280.175781 152.140625 Z M 280.828125 146.953125 C 280.828125 146.515625 280.472656 146.15625 280.035156 146.15625 L 274.742188 146.15625 C 274.304688 146.15625 273.949219 146.515625 273.949219 146.953125 C 273.949219 147.390625 274.304688 147.746094 274.742188 147.746094 L 280.035156 147.746094 C 280.472656 147.746094 280.828125 147.390625 280.828125 146.953125 Z M 281.480469 141.765625 C 281.480469 141.324219 281.125 140.972656 280.6875 140.972656 L 275.394531 140.972656 C 274.957031 140.972656 274.601562 141.324219 274.601562 141.765625 C 274.601562 142.203125 274.957031 142.558594 275.394531 142.558594 L 280.6875 142.558594 C 281.125 142.558594 281.480469 142.203125 281.480469 141.765625 Z M 282.132812 136.578125 C 282.132812 136.140625 281.777344 135.78125 281.335938 135.78125 L 276.046875 135.78125 C 275.605469 135.78125 275.253906 136.140625 275.253906 136.578125 C 275.253906 137.015625 275.605469 137.371094 276.046875 137.371094 L 281.335938 137.371094 C 281.777344 137.371094 282.132812 137.015625 282.132812 136.578125 Z M 282.78125 131.386719 C 282.78125 130.949219 282.429688 130.59375 281.988281 130.59375 L 276.699219 130.59375 C 276.261719 130.59375 275.90625 130.949219 275.90625 131.386719 C 275.90625 131.828125 276.261719 132.179688 276.699219 132.179688 L 281.988281 132.179688 C 282.429688 132.179688 282.78125 131.828125 282.78125 131.386719 Z M 161.15625 135.113281 L 164.886719 134.925781 C 165.070312 132.75 165.699219 130.742188 166.730469 130.234375 C 165.632812 130.117188 164.566406 130.148438 163.753906 130.507812 C 163.699219 127.753906 162.613281 126.285156 161.929688 124.554688 C 161.917969 126.535156 162.457031 125.925781 162.25 128.578125 C 162.132812 130.046875 162.433594 131.554688 162.085938 132.988281 C 161.90625 133.746094 161.554688 134.441406 161.15625 135.113281 Z M 165.683594 134.886719 L 168.796875 134.730469 C 168.558594 132.355469 167.800781 130.902344 167.246094 130.902344 C 166.683594 130.902344 165.902344 132.421875 165.683594 134.886719 Z M 168.855469 135.523438 L 165.632812 135.683594 C 165.625 135.871094 165.621094 136.058594 165.621094 136.253906 C 165.621094 139.519531 166.585938 141.605469 167.246094 141.605469 C 167.90625 141.605469 168.871094 139.519531 168.871094 136.253906 C 168.871094 136.003906 168.863281 135.761719 168.855469 135.523438 Z M 94.003906 167.4375 C 93.140625 161.761719 94.796875 155.75 98.445312 151.320312 C 99.78125 149.695312 101.433594 148.15625 101.847656 146.09375 C 102.269531 143.964844 101.261719 141.851562 100.800781 139.730469 C 99.921875 135.6875 101.171875 131.238281 104.03125 128.246094 C 106.222656 125.949219 109.257812 124.492188 111.109375 121.910156 C 112.664062 119.75 113.210938 117.050781 114.273438 114.613281 C 117.257812 107.777344 124.808594 103.226562 132.246094 103.78125 C 134.3125 101.203125 138.3125 100 141.5625 100.574219 C 144.8125 101.144531 147.703125 102.992188 150.230469 105.113281 C 158.183594 103.894531 168.179688 111.484375 170.960938 131.175781 C 170.210938 130.953125 169.171875 130.65625 168.074219 130.4375 C 169.109375 131.324219 169.667969 133.851562 169.667969 136.253906 C 169.667969 139.230469 168.816406 142.398438 167.246094 142.398438 C 165.675781 142.398438 164.828125 139.230469 164.828125 136.253906 C 164.828125 136.078125 164.832031 135.902344 164.839844 135.722656 L 163.039062 135.8125 C 163.382812 135.996094 163.640625 136.675781 163.640625 137.492188 C 163.640625 138.445312 163.289062 139.222656 162.855469 139.222656 C 162.417969 139.222656 162.066406 138.445312 162.066406 137.492188 C 162.066406 136.699219 162.308594 136.039062 162.636719 135.832031 L 160.644531 135.929688 C 160.175781 136.671875 159.695312 137.414062 159.375 138.226562 C 157.902344 141.953125 159.988281 146.175781 159.402344 150.144531 C 159.035156 152.632812 157.640625 154.839844 156.886719 157.238281 C 155.820312 160.644531 156.570312 165.355469 158.136719 168.566406 L 147.125 168.566406 C 146.433594 165.96875 145.546875 163.613281 145.449219 160.929688 C 144.71875 163.738281 144.394531 166.296875 144.148438 169.191406 C 142.792969 165.53125 141.898438 161.96875 141.808594 158.070312 C 141.421875 161.191406 141.289062 164.316406 140.898438 167.4375 Z M 168.441406 274.597656 C 169.660156 276.132812 170.996094 277.578125 172.460938 278.898438 C 173.914062 280.21875 175.53125 281.390625 177.3125 282.292969 C 178.210938 282.722656 179.15625 283.070312 180.128906 283.316406 C 181.125 283.53125 182.082031 283.636719 183.046875 283.773438 C 184.980469 284.019531 186.917969 284.261719 188.855469 284.433594 C 192.734375 284.804688 196.621094 285.046875 200.519531 285.117188 C 200.617188 285.117188 200.699219 285.042969 200.703125 284.945312 C 200.710938 284.847656 200.632812 284.761719 200.53125 284.757812 C 198.59375 284.648438 196.65625 284.492188 194.722656 284.3125 C 192.789062 284.144531 190.859375 283.957031 188.929688 283.738281 C 187 283.507812 185.070312 283.285156 183.148438 283.019531 C 182.191406 282.878906 181.214844 282.761719 180.3125 282.558594 C 179.398438 282.320312 178.511719 281.992188 177.660156 281.578125 C 174.238281 279.882812 171.429688 277.113281 168.960938 274.175781 C 167.71875 272.695312 166.570312 271.132812 165.488281 269.527344 C 164.398438 267.925781 163.367188 266.277344 162.449219 264.578125 L 162.445312 264.570312 C 162.402344 264.5 162.316406 264.472656 162.242188 264.507812 C 162.167969 264.546875 162.136719 264.636719 162.175781 264.710938 C 163.910156 268.210938 165.996094 271.535156 168.441406 274.597656 Z M 141.875 226.601562 C 141.433594 226.339844 141.027344 226.03125 140.636719 225.699219 C 140.25 225.363281 139.890625 224.980469 139.535156 224.582031 C 139.492188 224.535156 139.421875 224.515625 139.363281 224.539062 C 139.285156 224.570312 139.242188 224.660156 139.273438 224.738281 C 139.6875 225.78125 140.492188 226.671875 141.453125 227.277344 C 141.933594 227.578125 142.445312 227.824219 142.980469 227.988281 C 143.429688 228.132812 143.886719 228.230469 144.347656 228.289062 C 145.875 231.769531 147.464844 235.230469 149.0625 238.679688 C 150.882812 242.519531 152.71875 246.355469 154.605469 250.164062 C 156.492188 253.972656 158.417969 257.761719 160.433594 261.507812 C 160.480469 261.59375 160.585938 261.628906 160.671875 261.585938 C 160.761719 261.539062 160.796875 261.433594 160.753906 261.34375 C 159.816406 259.4375 158.898438 257.519531 157.988281 255.605469 L 155.238281 249.855469 L 149.777344 238.34375 C 147.953125 234.507812 146.175781 230.652344 144.417969 226.789062 C 143.535156 224.855469 142.675781 222.914062 141.84375 220.96875 C 141.015625 219.015625 140.167969 217.0625 139.550781 215.046875 L 139.546875 215.039062 C 139.527344 214.960938 139.441406 214.917969 139.363281 214.9375 C 139.28125 214.960938 139.234375 215.042969 139.257812 215.125 C 140.433594 219.238281 142.136719 223.148438 143.800781 227.058594 C 143.898438 227.277344 143.996094 227.492188 144.09375 227.710938 C 143.804688 227.585938 143.515625 227.464844 143.238281 227.335938 C 142.765625 227.109375 142.304688 226.875 141.875 226.601562 Z M 162.707031 151.207031 C 163.007812 151.398438 163.347656 151.519531 163.691406 151.605469 C 164.039062 151.671875 164.390625 151.707031 164.734375 151.671875 C 164.910156 151.660156 165.078125 151.625 165.246094 151.601562 C 165.414062 151.550781 165.578125 151.507812 165.738281 151.441406 C 165.789062 151.421875 165.824219 151.375 165.832031 151.320312 C 165.847656 151.234375 165.789062 151.15625 165.699219 151.140625 C 165.046875 151.039062 164.449219 150.972656 163.867188 150.832031 C 163.578125 150.765625 163.300781 150.675781 163.019531 150.578125 C 162.742188 150.480469 162.460938 150.347656 162.199219 150.222656 L 162.164062 150.203125 C 162.113281 150.175781 162.050781 150.175781 161.996094 150.210938 C 161.90625 150.261719 161.878906 150.375 161.929688 150.457031 C 162.128906 150.792969 162.402344 151.015625 162.707031 151.207031 Z M 326.957031 285.988281 L 313.210938 265.316406 L 313.210938 265.136719 L 303.269531 265.023438 L 293.328125 264.988281 L 273.441406 264.917969 L 253.558594 265.003906 L 243.617188 265.050781 L 233.671875 265.164062 L 233.671875 265.46875 L 233.902344 265.472656 L 234.6875 265.996094 L 237.320312 270.523438 L 232.683594 269.863281 C 232.714844 269.851562 232.742188 269.839844 232.773438 269.824219 C 232.953125 269.734375 233.105469 269.597656 233.238281 269.453125 C 233.367188 269.296875 233.480469 269.128906 233.550781 268.941406 C 233.617188 268.753906 233.664062 268.554688 233.644531 268.34375 C 233.636719 268.304688 233.621094 268.265625 233.597656 268.234375 C 233.523438 268.152344 233.398438 268.140625 233.316406 268.210938 L 233.304688 268.21875 C 233.160156 268.34375 233.054688 268.46875 232.941406 268.585938 C 232.832031 268.699219 232.738281 268.820312 232.636719 268.9375 C 232.542969 269.058594 232.441406 269.175781 232.347656 269.308594 C 232.246094 269.4375 232.144531 269.566406 232.046875 269.734375 L 232.039062 269.738281 C 232.039062 269.746094 232.039062 269.746094 232.035156 269.753906 L 231.992188 269.683594 L 227.417969 268.714844 C 227.449219 268.601562 227.480469 268.496094 227.5 268.386719 C 227.582031 268.003906 227.601562 267.617188 227.605469 267.230469 C 227.597656 266.839844 227.566406 266.449219 227.480469 266.074219 C 227.398438 265.695312 227.285156 265.320312 227.105469 264.972656 C 227.074219 264.914062 227.011719 264.871094 226.945312 264.871094 C 226.84375 264.867188 226.757812 264.953125 226.757812 265.054688 C 226.75 265.433594 226.773438 265.796875 226.78125 266.160156 L 226.8125 267.242188 L 226.832031 268.324219 C 226.835938 268.558594 226.84375 268.796875 226.847656 269.03125 L 224.566406 268.707031 C 216.636719 267.519531 208.695312 266.3125 200.835938 264.761719 C 198.875 264.371094 196.90625 263.972656 195.011719 263.414062 C 194.546875 263.269531 194.070312 263.113281 193.671875 262.910156 C 193.460938 262.789062 193.421875 262.765625 193.265625 262.511719 L 192.859375 261.902344 C 192.332031 261.054688 191.808594 260.199219 191.296875 259.339844 C 189.246094 255.894531 187.234375 252.417969 185.230469 248.945312 L 178.128906 236.609375 L 262.929688 236.609375 L 267.601562 254.476562 L 301.246094 254.476562 L 296.582031 236.609375 L 347.675781 236.609375 C 352.664062 236.609375 356.847656 232.859375 357.398438 227.90625 L 369.691406 116.972656 C 370.335938 111.179688 365.800781 106.113281 359.972656 106.113281 L 187.796875 106.113281 C 182.8125 106.113281 178.625 109.863281 178.074219 114.816406 L 167.304688 211.988281 C 168.324219 214.960938 169.160156 217.863281 169.699219 220.527344 L 181.375 115.183594 C 181.738281 111.90625 184.496094 109.433594 187.796875 109.433594 L 359.972656 109.433594 C 361.832031 109.433594 363.542969 110.199219 364.785156 111.585938 C 366.027344 112.972656 366.597656 114.757812 366.394531 116.609375 L 354.097656 227.539062 C 353.734375 230.816406 350.972656 233.289062 347.675781 233.289062 L 269.894531 233.289062 C 269.976562 233.167969 270.03125 233.027344 270.03125 232.871094 C 270.03125 232.429688 269.679688 232.078125 269.238281 232.078125 L 263.949219 232.078125 C 263.507812 232.078125 263.152344 232.429688 263.152344 232.871094 C 263.152344 233.027344 263.210938 233.167969 263.289062 233.289062 L 176.214844 233.289062 L 173.210938 228.074219 C 173.171875 228.003906 173.082031 227.976562 173.007812 228.019531 C 172.933594 228.058594 172.90625 228.152344 172.945312 228.226562 L 175.746094 233.289062 L 175.65625 233.289062 C 176.230469 234.417969 176.800781 235.523438 177.367188 236.609375 L 177.578125 236.609375 L 178.769531 238.765625 L 184.691406 249.253906 C 186.675781 252.746094 188.65625 256.234375 190.691406 259.699219 C 191.195312 260.566406 191.714844 261.429688 192.242188 262.292969 L 192.664062 262.9375 C 192.753906 263.054688 192.761719 263.128906 192.933594 263.289062 C 193.074219 263.429688 193.195312 263.484375 193.324219 263.558594 C 193.820312 263.816406 194.300781 263.972656 194.792969 264.128906 C 196.742188 264.71875 198.710938 265.128906 200.683594 265.535156 C 208.582031 267.054688 216.53125 268.210938 224.472656 269.355469 L 236.40625 270.992188 L 248.355469 272.457031 C 248.453125 272.46875 248.546875 272.398438 248.554688 272.304688 C 248.570312 272.203125 248.5 272.113281 248.402344 272.101562 L 243.988281 271.472656 L 247.890625 265.601562 L 253.558594 265.625 L 273.441406 265.710938 L 293.328125 265.640625 L 303.269531 265.605469 L 308.074219 265.550781 L 321.664062 285.988281 L 316.632812 285.988281 L 309.417969 277.824219 L 306.089844 280.011719 L 312.253906 285.988281 L 292.28125 285.988281 L 310.441406 274.460938 L 284.855469 274.460938 L 288.703125 281.53125 C 288.996094 282.074219 288.773438 282.753906 288.210938 283.011719 C 287.171875 282.9375 285.996094 282.445312 285 281.753906 C 285 281.730469 285.007812 281.710938 285 281.691406 C 284.570312 280.679688 284.5625 279.566406 284.425781 278.421875 C 284.363281 277.847656 284.238281 277.257812 284.011719 276.6875 C 283.785156 276.117188 283.464844 275.597656 283.089844 275.128906 C 282.316406 274.214844 281.386719 273.492188 280.449219 272.851562 C 279.507812 272.207031 278.570312 271.601562 277.726562 270.863281 C 277.671875 270.816406 277.589844 270.8125 277.53125 270.863281 C 277.464844 270.914062 277.457031 271.007812 277.507812 271.074219 C 278.238281 271.980469 279.167969 272.691406 280.050781 273.390625 C 280.933594 274.089844 281.8125 274.777344 282.476562 275.628906 C 282.8125 276.042969 283.109375 276.492188 283.308594 276.972656 C 283.519531 277.453125 283.621094 277.984375 283.730469 278.527344 C 283.894531 279.410156 283.996094 280.386719 284.382812 281.277344 C 283.894531 280.859375 283.472656 280.398438 283.183594 279.917969 L 280.65625 275.6875 L 276.160156 274.601562 C 276.148438 274.589844 276.144531 274.578125 276.132812 274.566406 C 276.09375 274.519531 276.027344 274.496094 275.964844 274.519531 C 275.953125 274.523438 275.945312 274.539062 275.933594 274.546875 L 275.875 274.535156 L 269.546875 279.429688 C 269.554688 279.390625 269.558594 279.355469 269.5625 279.324219 C 269.601562 278.992188 269.578125 278.660156 269.53125 278.332031 C 269.472656 278 269.386719 277.679688 269.25 277.375 C 269.113281 277.074219 268.949219 276.78125 268.722656 276.535156 C 268.679688 276.492188 268.613281 276.464844 268.550781 276.480469 C 268.449219 276.492188 268.382812 276.59375 268.402344 276.695312 C 268.449219 277.007812 268.523438 277.300781 268.582031 277.59375 C 268.632812 277.886719 268.703125 278.171875 268.746094 278.464844 C 268.808594 278.753906 268.84375 279.042969 268.894531 279.339844 C 268.921875 279.511719 268.949219 279.691406 268.976562 279.871094 L 263.949219 283.761719 C 262.519531 284.867188 260.867188 285.609375 259.125 285.988281 L 254.242188 285.988281 L 248.054688 285.132812 C 248.429688 284.792969 248.773438 284.398438 249.011719 283.933594 C 249.316406 283.367188 249.464844 282.699219 249.367188 282.070312 C 249.355469 281.996094 249.292969 281.929688 249.210938 281.917969 C 249.113281 281.90625 249.023438 281.976562 249.007812 282.074219 C 248.925781 282.632812 248.726562 283.136719 248.421875 283.582031 C 248.292969 283.765625 248.140625 283.933594 247.984375 284.101562 C 247.976562 283.738281 247.929688 283.375 247.84375 283.023438 C 247.675781 282.339844 247.390625 281.691406 246.964844 281.148438 C 246.925781 281.097656 246.851562 281.074219 246.789062 281.101562 C 246.710938 281.132812 246.671875 281.21875 246.699219 281.296875 C 246.929688 281.910156 247.097656 282.519531 247.167969 283.144531 C 247.242188 283.769531 247.238281 284.390625 247.140625 285 C 247.136719 285.019531 247.144531 285.039062 247.144531 285.0625 L 204.503906 284.753906 L 202.636719 285.988281 L 163.578125 285.988281 C 163.675781 286.253906 163.773438 286.519531 163.875 286.78125 L 369.753906 286.78125 L 369.753906 285.988281 Z M 45.804688 285.988281 L 45.804688 286.78125 L 134.570312 286.78125 C 139.949219 286.78125 141.5 285.988281 141.5 285.988281 C 142.199219 285.800781 142.867188 285.542969 143.503906 285.234375 C 148.058594 283.003906 150.804688 277.816406 149.503906 272.46875 L 134.3125 209.953125 C 133.085938 204.902344 128.566406 201.351562 123.375 201.351562 L 38.507812 201.351562 C 31.21875 201.351562 25.851562 208.183594 27.574219 215.269531 L 42.765625 277.785156 C 43.75 281.84375 46.871094 284.929688 50.75 285.988281 Z M 169.039062 298.386719 C 169.039062 298.386719 169.019531 298.53125 168.976562 298.78125 L 168.980469 298.78125 C 168.425781 302.097656 163.371094 325.882812 132.007812 325.882812 C 120.523438 325.882812 112.222656 323.984375 107.601562 322.554688 C 109.242188 331.945312 117.429688 339.085938 127.285156 339.085938 L 187.625 339.085938 C 202.5625 339.085938 217.140625 332.859375 217.140625 332.859375 L 212.453125 360.636719 L 243.214844 360.636719 C 243.214844 360.636719 246.773438 332.859375 248.308594 314.226562 C 249.210938 303.316406 241.175781 299.8125 234.359375 298.78125 L 289.699219 298.78125 L 286.105469 329.726562 L 297.480469 331.613281 L 301.292969 298.78125 L 342.25 298.78125 L 347.011719 339.824219 L 358.835938 341.78125 L 353.84375 298.78125 L 369.753906 298.78125 L 369.753906 297.988281 L 168.835938 297.988281 C 168.964844 298.242188 169.039062 298.386719 169.039062 298.386719 Z M 100.320312 297.988281 L 45.804688 297.988281 L 45.804688 298.78125 L 72.03125 298.78125 C 72.007812 298.902344 72.019531 299.023438 71.988281 299.144531 L 71.882812 299.941406 C 71.800781 300.476562 71.773438 301.015625 71.71875 301.550781 L 71.628906 303.167969 L 71.585938 303.976562 L 71.566406 304.382812 C 71.574219 304.519531 71.476562 304.640625 71.730469 304.804688 C 72.023438 304.703125 71.953125 304.5625 71.996094 304.429688 L 72.066406 304.03125 L 72.210938 303.234375 L 72.496094 301.644531 C 72.5625 301.105469 72.660156 300.574219 72.707031 300.039062 L 72.785156 299.234375 C 72.777344 299.082031 72.84375 298.9375 72.8125 298.78125 L 100.335938 298.78125 C 100.328125 298.519531 100.324219 298.253906 100.320312 297.988281 Z M 235.175781 125.601562 C 235.175781 125.164062 234.820312 124.804688 234.382812 124.804688 L 222.5625 124.804688 C 222.125 124.804688 221.765625 125.164062 221.765625 125.601562 C 221.765625 126.039062 222.125 126.394531 222.5625 126.394531 L 234.382812 126.394531 C 234.820312 126.394531 235.175781 126.039062 235.175781 125.601562 Z M 203.808594 125.601562 C 203.726562 126.25 204.183594 126.773438 204.832031 126.773438 C 205.480469 126.773438 206.074219 126.25 206.152344 125.601562 C 206.238281 124.953125 205.777344 124.425781 205.128906 124.425781 C 204.484375 124.425781 203.890625 124.953125 203.808594 125.601562 Z M 200.390625 126.773438 C 199.742188 126.773438 199.28125 126.25 199.363281 125.601562 C 199.445312 124.953125 200.035156 124.425781 200.683594 124.425781 C 201.332031 124.425781 201.792969 124.953125 201.710938 125.601562 C 201.628906 126.25 201.039062 126.773438 200.390625 126.773438 " fill-opacity="1" fill-rule="nonzero"/></g><g clip-path="url(#cafc7ae72f)"><path fill="#777b85" d="M 311.558594 254.476562 L 305.164062 254.476562 L 300.496094 236.609375 L 296.582031 236.609375 L 301.246094 254.476562 L 234.355469 254.476562 C 230.980469 254.476562 228.242188 257.214844 228.242188 260.59375 L 317.675781 260.59375 C 317.675781 257.214844 314.9375 254.476562 311.558594 254.476562 Z M 95.230469 254.054688 L 82.050781 254.054688 C 81.207031 254.054688 80.496094 254.6875 80.398438 255.527344 L 69.730469 348.007812 C 69.617188 348.992188 70.390625 349.863281 71.382812 349.863281 L 84.5625 349.863281 C 85.40625 349.863281 86.117188 349.230469 86.214844 348.386719 L 96.882812 255.910156 C 96.996094 254.921875 96.226562 254.054688 95.230469 254.054688 Z M 291.683594 286.367188 L 297.03125 286.367188 L 309.207031 278.363281 L 316.285156 286.367188 L 320.234375 286.367188 L 310.441406 274.460938 Z M 365.210938 106.113281 L 359.972656 106.113281 C 365.800781 106.113281 370.335938 111.179688 369.691406 116.972656 L 357.398438 227.90625 C 356.847656 232.859375 352.664062 236.609375 347.675781 236.609375 L 352.917969 236.609375 C 357.902344 236.609375 362.089844 232.859375 362.640625 227.90625 L 374.933594 116.972656 C 375.574219 111.179688 371.039062 106.113281 365.210938 106.113281 Z M 235.175781 125.601562 C 235.175781 125.164062 234.820312 124.804688 234.382812 124.804688 L 222.5625 124.804688 C 222.125 124.804688 221.765625 125.164062 221.765625 125.601562 C 221.765625 126.039062 222.125 126.394531 222.5625 126.394531 L 234.382812 126.394531 C 234.820312 126.394531 235.175781 126.039062 235.175781 125.601562 Z M 205.128906 124.425781 C 204.484375 124.425781 203.890625 124.953125 203.808594 125.601562 C 203.726562 126.25 204.183594 126.773438 204.832031 126.773438 C 205.480469 126.773438 206.074219 126.25 206.152344 125.601562 C 206.238281 124.953125 205.777344 124.425781 205.128906 124.425781 Z M 200.683594 124.425781 C 200.035156 124.425781 199.445312 124.953125 199.363281 125.601562 C 199.28125 126.25 199.742188 126.773438 200.390625 126.773438 C 201.039062 126.773438 201.628906 126.25 201.710938 125.601562 C 201.792969 124.953125 201.332031 124.425781 200.683594 124.425781 Z M 210.601562 125.601562 C 210.519531 126.25 209.929688 126.773438 209.28125 126.773438 C 208.632812 126.773438 208.171875 126.25 208.253906 125.601562 C 208.335938 124.953125 208.925781 124.425781 209.574219 124.425781 C 210.222656 124.425781 210.679688 124.953125 210.601562 125.601562 " fill-opacity="1" fill-rule="nonzero"/></g></svg>