<svg xmlns="http://www.w3.org/2000/svg" xmlns:xlink="http://www.w3.org/1999/xlink" width="500" zoomAndPan="magnify" viewBox="0 0 375 346.49999" height="462" preserveAspectRatio="xMidYMid meet" version="1.0"><defs><clipPath id="ed51a922cc"><path d="M 0.269531 4.160156 L 369.65625 4.160156 L 369.65625 345.886719 L 0.269531 345.886719 Z M 0.269531 4.160156 " clip-rule="nonzero"/></clipPath><clipPath id="677a9af7d1"><path d="M 31.183594 4.160156 L 366.484375 4.160156 L 366.484375 345.886719 L 31.183594 345.886719 Z M 31.183594 4.160156 " clip-rule="nonzero"/></clipPath><clipPath id="fea85f2414"><path d="M 0.269531 0.046875 L 360 0.046875 L 360 335 L 0.269531 335 Z M 0.269531 0.046875 " clip-rule="nonzero"/></clipPath><clipPath id="02e469dac0"><path d="M 27.222656 5 L 369.65625 5 L 369.65625 345.886719 L 27.222656 345.886719 Z M 27.222656 5 " clip-rule="nonzero"/></clipPath><clipPath id="d4b7b84749"><path d="M 69.234375 91.378906 L 374.722656 91.378906 L 374.722656 335.589844 L 69.234375 335.589844 Z M 69.234375 91.378906 " clip-rule="nonzero"/></clipPath></defs><g clip-path="url(#ed51a922cc)"><path fill="#f6836b" d="M 326.773438 271.371094 L 313.03125 250.703125 L 307.726562 250.703125 C 302.347656 257.878906 296.671875 264.800781 290.75 271.371094 Z M 56.015625 38.882812 C 56.015625 39.199219 56.046875 39.511719 56.089844 39.816406 C 59.5 37.496094 63.035156 35.296875 66.679688 33.21875 C 65.585938 32.480469 64.269531 32.046875 62.851562 32.046875 C 59.082031 32.046875 56.015625 35.113281 56.015625 38.882812 Z M 369.492188 283.726562 L 353.558594 283.726562 L 360.773438 345.886719 L 349.199219 345.886719 L 341.980469 283.726562 L 301.175781 283.726562 L 293.960938 345.886719 L 282.382812 345.886719 L 289.601562 283.726562 L 278.917969 283.726562 C 248.050781 313.957031 211.921875 334.335938 176.511719 334.335938 C 160.679688 334.335938 145 331.25 129.898438 325.695312 L 132.246094 345.886719 L 120.667969 345.886719 L 117.734375 320.628906 C 101.40625 313.039062 85.9375 302.605469 71.902344 290.125 L 65.425781 345.886719 L 53.851562 345.886719 L 61.066406 283.726562 L 46.011719 283.726562 L 46.011719 271.371094 L 53.222656 271.371094 C 21.175781 235.105469 0.269531 187.984375 0.269531 143.289062 C 0.269531 101.605469 18.449219 69.316406 46.894531 46.597656 C 46.402344 45.582031 46.007812 44.523438 45.71875 43.429688 L 40.515625 42.285156 L 40.515625 35.484375 L 45.71875 34.339844 C 46.125 32.808594 46.726562 31.347656 47.519531 29.980469 L 44.652344 25.488281 L 49.460938 20.679688 L 53.953125 23.550781 C 55.316406 22.753906 56.777344 22.148438 58.304688 21.746094 L 59.453125 16.539062 L 66.253906 16.539062 L 67.398438 21.746094 C 68.925781 22.148438 70.386719 22.753906 71.753906 23.550781 L 76.242188 20.679688 L 81.050781 25.488281 L 80.703125 26.039062 C 83.289062 24.855469 85.917969 23.722656 88.582031 22.644531 L 88.582031 16.539062 L 105.957031 16.539062 C 119.9375 12.3125 134.695312 9.414062 149.820312 7.855469 C 149.804688 7.722656 149.777344 7.597656 149.777344 7.460938 C 149.777344 5.878906 151.066406 4.59375 152.644531 4.59375 C 154.183594 4.59375 155.425781 5.808594 155.5 7.328125 C 162.449219 6.765625 169.464844 6.484375 176.511719 6.484375 C 267.019531 6.484375 362.214844 20.164062 362.214844 110.699219 C 362.214844 152.484375 341.933594 203.339844 311.195312 245.988281 L 335.214844 245.988281 L 352.089844 271.371094 L 369.492188 271.371094 Z M 42.484375 10.328125 C 44.0625 10.328125 45.347656 9.042969 45.347656 7.460938 C 45.347656 5.878906 44.0625 4.59375 42.484375 4.59375 C 40.902344 4.59375 39.617188 5.878906 39.617188 7.460938 C 39.617188 9.042969 40.902344 10.328125 42.484375 10.328125 Z M 262.460938 7.460938 C 262.460938 5.878906 263.75 4.59375 265.332031 4.59375 C 266.914062 4.59375 268.199219 5.878906 268.199219 7.460938 C 268.199219 9.042969 266.914062 10.328125 265.332031 10.328125 C 263.75 10.328125 262.460938 9.042969 262.460938 7.460938 " fill-opacity="1" fill-rule="nonzero"/></g><g clip-path="url(#677a9af7d1)"><path fill="#5ec9cc" d="M 257.476562 9.535156 C 258.625 9.535156 259.550781 8.605469 259.550781 7.460938 C 259.550781 6.316406 258.625 5.386719 257.476562 5.386719 C 256.332031 5.386719 255.402344 6.316406 255.402344 7.460938 C 255.402344 8.605469 256.332031 9.535156 257.476562 9.535156 Z M 304.390625 71.617188 L 314.046875 71.617188 L 314.046875 69.238281 L 304.390625 69.238281 Z M 300.644531 39.515625 L 287.488281 31.65625 L 287.488281 47.378906 Z M 333.519531 61.226562 L 254.613281 61.226562 L 254.613281 20 L 333.519531 20 Z M 318.246094 66.59375 L 311.523438 66.59375 L 311.523438 68.972656 L 318.246094 68.972656 Z M 304.390625 66.59375 L 304.390625 68.972656 L 311.113281 68.972656 L 311.113281 66.59375 Z M 318.246094 63.949219 L 304.390625 63.949219 L 304.390625 66.328125 L 318.246094 66.328125 Z M 96.371094 71.75 L 88.304688 71.75 L 88.304688 72.542969 L 96.371094 72.542969 Z M 100.570312 69.898438 L 100.570312 69.105469 L 95.4375 69.105469 L 95.4375 69.898438 Z M 93.4375 69.105469 L 88.304688 69.105469 L 88.304688 69.898438 L 93.4375 69.898438 Z M 100.570312 66.460938 L 88.304688 66.460938 L 88.304688 67.253906 L 100.570312 67.253906 Z M 45.757812 71.75 L 37.691406 71.75 L 37.691406 72.542969 L 45.757812 72.542969 Z M 49.960938 69.898438 L 49.960938 69.105469 L 44.828125 69.105469 L 44.828125 69.898438 Z M 42.828125 69.105469 L 37.691406 69.105469 L 37.691406 69.898438 L 42.828125 69.898438 Z M 49.960938 66.460938 L 37.691406 66.460938 L 37.691406 67.253906 L 49.960938 67.253906 Z M 103.484375 47.128906 L 89.375 47.128906 L 89.375 52.070312 L 103.484375 52.070312 Z M 103.484375 25.578125 L 89.375 25.578125 L 89.375 30.515625 L 103.484375 30.515625 Z M 34.628906 9.535156 C 35.773438 9.535156 36.703125 8.605469 36.703125 7.460938 C 36.703125 6.316406 35.773438 5.386719 34.628906 5.386719 C 33.484375 5.386719 32.554688 6.316406 32.554688 7.460938 C 32.554688 8.605469 33.484375 9.535156 34.628906 9.535156 Z M 51.046875 38.882812 C 51.046875 45.394531 56.34375 50.691406 62.851562 50.691406 C 69.363281 50.691406 74.65625 45.394531 74.65625 38.882812 C 74.65625 32.375 69.363281 27.074219 62.851562 27.074219 C 56.34375 27.074219 51.046875 32.375 51.046875 38.882812 Z M 50.253906 38.882812 C 50.253906 31.933594 55.90625 26.28125 62.851562 26.28125 C 69.800781 26.28125 75.449219 31.933594 75.449219 38.882812 C 75.449219 45.832031 69.800781 51.484375 62.851562 51.484375 C 55.90625 51.484375 50.253906 45.832031 50.253906 38.882812 Z M 200.664062 110.019531 C 200.019531 110.019531 199.425781 110.546875 199.347656 111.191406 C 199.261719 111.839844 199.722656 112.363281 200.371094 112.363281 C 201.019531 112.363281 201.609375 111.839844 201.691406 111.191406 C 201.769531 110.546875 201.3125 110.019531 200.664062 110.019531 Z M 234.3125 110.398438 L 222.511719 110.398438 C 222.074219 110.398438 221.71875 110.753906 221.71875 111.1875 C 221.71875 111.628906 222.074219 111.980469 222.511719 111.980469 L 234.3125 111.980469 C 234.75 111.980469 235.105469 111.628906 235.105469 111.1875 C 235.105469 110.753906 234.75 110.398438 234.3125 110.398438 Z M 144.792969 10.328125 C 146.375 10.328125 147.660156 9.042969 147.660156 7.460938 C 147.660156 5.878906 146.375 4.59375 144.792969 4.59375 C 143.214844 4.59375 141.929688 5.878906 141.929688 7.460938 C 141.929688 9.042969 143.214844 10.328125 144.792969 10.328125 Z M 166.171875 63.664062 C 166.171875 64.914062 167.191406 65.933594 168.441406 65.933594 L 185.609375 65.933594 C 186.859375 65.933594 187.878906 64.914062 187.878906 63.664062 C 187.878906 62.410156 186.859375 61.394531 185.609375 61.394531 L 168.441406 61.394531 C 167.191406 61.394531 166.171875 62.410156 166.171875 63.664062 Z M 150.472656 52.132812 L 167.640625 52.132812 C 168.894531 52.132812 169.910156 51.117188 169.910156 49.863281 C 169.910156 48.613281 168.894531 47.597656 167.640625 47.597656 L 150.472656 47.597656 C 149.222656 47.597656 148.203125 48.613281 148.203125 49.863281 C 148.203125 51.117188 149.222656 52.132812 150.472656 52.132812 Z M 150.472656 38.335938 L 180.21875 38.335938 C 181.472656 38.335938 182.484375 37.316406 182.484375 36.066406 C 182.484375 34.816406 181.472656 33.800781 180.21875 33.800781 L 150.472656 33.800781 C 149.222656 33.800781 148.203125 34.816406 148.203125 36.066406 C 148.203125 37.316406 149.222656 38.335938 150.472656 38.335938 Z M 185.953125 52.132812 L 192.027344 52.132812 C 193.277344 52.132812 194.292969 51.117188 194.292969 49.863281 C 194.292969 48.613281 193.277344 47.597656 192.027344 47.597656 L 185.953125 47.597656 C 184.703125 47.597656 183.683594 48.613281 183.683594 49.863281 C 183.683594 51.117188 184.703125 52.132812 185.953125 52.132812 Z M 179.765625 52.132812 C 181.015625 52.132812 182.035156 51.117188 182.035156 49.863281 C 182.035156 48.613281 181.015625 47.597656 179.765625 47.597656 L 173.695312 47.597656 C 172.445312 47.597656 171.425781 48.613281 171.425781 49.863281 C 171.425781 51.117188 172.445312 52.132812 173.695312 52.132812 Z M 150.472656 31.4375 L 156.542969 31.4375 C 157.796875 31.4375 158.8125 30.421875 158.8125 29.167969 C 158.8125 27.917969 157.796875 26.898438 156.542969 26.898438 L 150.472656 26.898438 C 149.222656 26.898438 148.203125 27.917969 148.203125 29.167969 C 148.203125 30.421875 149.222656 31.4375 150.472656 31.4375 Z M 150.472656 24.539062 L 170.917969 24.539062 C 172.167969 24.539062 173.1875 23.523438 173.1875 22.269531 C 173.1875 21.019531 172.167969 20 170.917969 20 L 150.472656 20 C 149.222656 20 148.203125 21.019531 148.203125 22.269531 C 148.203125 23.523438 149.222656 24.539062 150.472656 24.539062 Z M 194.628906 324.367188 L 50.351562 324.367188 C 44.410156 324.367188 39.589844 329.183594 39.589844 335.128906 C 39.589844 341.070312 44.410156 345.886719 50.351562 345.886719 L 194.628906 345.886719 C 200.570312 345.886719 205.382812 341.070312 205.382812 335.128906 C 205.382812 329.183594 200.570312 324.367188 194.628906 324.367188 Z M 361.078125 99.566406 C 361.078125 99.128906 360.722656 98.773438 360.285156 98.773438 L 321.3125 98.773438 C 320.875 98.773438 320.519531 99.128906 320.519531 99.566406 C 320.519531 100.003906 320.875 100.359375 321.3125 100.359375 L 360.285156 100.359375 C 360.722656 100.359375 361.078125 100.003906 361.078125 99.566406 Z M 342.769531 111.980469 L 349.449219 111.980469 C 349.886719 111.980469 350.242188 111.628906 350.242188 111.1875 C 350.242188 110.753906 349.886719 110.398438 349.449219 110.398438 L 342.769531 110.398438 C 342.332031 110.398438 341.976562 110.753906 341.976562 111.1875 C 341.976562 111.628906 342.332031 111.980469 342.769531 111.980469 Z M 358.480469 116.371094 C 358.480469 115.933594 358.125 115.578125 357.6875 115.578125 L 342.117188 115.578125 C 341.679688 115.578125 341.324219 115.933594 341.324219 116.371094 C 341.324219 116.808594 341.679688 117.164062 342.117188 117.164062 L 357.6875 117.164062 C 358.125 117.164062 358.480469 116.808594 358.480469 116.371094 Z M 341.46875 122.34375 L 349.460938 122.34375 C 349.902344 122.34375 350.253906 121.988281 350.253906 121.550781 C 350.253906 121.113281 349.902344 120.761719 349.460938 120.761719 L 341.46875 120.761719 C 341.03125 120.761719 340.675781 121.113281 340.675781 121.550781 C 340.675781 121.988281 341.03125 122.34375 341.46875 122.34375 Z M 336.78125 155.398438 C 336.34375 155.398438 335.988281 155.753906 335.988281 156.191406 C 335.988281 156.628906 336.34375 156.984375 336.78125 156.984375 L 343.460938 156.984375 C 343.898438 156.984375 344.253906 156.628906 344.253906 156.191406 C 344.253906 155.753906 343.898438 155.398438 343.460938 155.398438 Z M 352.492188 161.371094 C 352.492188 160.933594 352.136719 160.578125 351.699219 160.578125 L 336.128906 160.578125 C 335.691406 160.578125 335.335938 160.933594 335.335938 161.371094 C 335.335938 161.808594 335.691406 162.164062 336.128906 162.164062 L 351.699219 162.164062 C 352.136719 162.164062 352.492188 161.808594 352.492188 161.371094 Z M 344.265625 166.550781 C 344.265625 166.113281 343.914062 165.757812 343.472656 165.757812 L 335.480469 165.757812 C 335.042969 165.757812 334.6875 166.113281 334.6875 166.550781 C 334.6875 166.988281 335.042969 167.34375 335.480469 167.34375 L 343.472656 167.34375 C 343.914062 167.34375 344.265625 166.988281 344.265625 166.550781 Z M 327.207031 116.96875 C 327.207031 116.53125 326.851562 116.175781 326.414062 116.175781 L 313.058594 116.175781 C 312.617188 116.175781 312.265625 116.53125 312.265625 116.96875 C 312.265625 117.410156 312.617188 117.761719 313.058594 117.761719 L 326.414062 117.761719 C 326.851562 117.761719 327.207031 117.410156 327.207031 116.96875 Z M 320.515625 127.332031 C 320.515625 126.890625 320.164062 126.539062 319.722656 126.539062 L 308.054688 126.539062 C 307.617188 126.539062 307.261719 126.890625 307.261719 127.332031 C 307.261719 127.769531 307.617188 128.125 308.054688 128.125 L 319.722656 128.125 C 320.164062 128.125 320.515625 127.769531 320.515625 127.332031 Z M 317.726562 192.40625 C 317.726562 191.96875 317.375 191.613281 316.933594 191.613281 L 295.921875 191.613281 C 295.484375 191.613281 295.128906 191.96875 295.128906 192.40625 C 295.128906 192.839844 295.484375 193.199219 295.921875 193.199219 L 316.933594 193.199219 C 317.375 193.199219 317.726562 192.839844 317.726562 192.40625 Z M 258.117188 105.414062 L 200.160156 105.414062 C 197.972656 105.414062 195.972656 107.1875 195.699219 109.378906 L 194.746094 116.96875 L 260.625 116.96875 L 261.582031 109.378906 C 261.855469 107.1875 260.304688 105.414062 258.117188 105.414062 Z M 251.472656 165.019531 C 251.472656 164.578125 251.117188 164.226562 250.679688 164.226562 L 243.609375 164.226562 C 243.171875 164.226562 242.816406 164.578125 242.816406 165.019531 C 242.816406 165.457031 243.171875 165.8125 243.609375 165.8125 L 250.679688 165.8125 C 251.117188 165.8125 251.472656 165.457031 251.472656 165.019531 Z M 234.414062 168.824219 C 234.414062 168.386719 234.058594 168.03125 233.625 168.03125 L 227 168.03125 C 226.5625 168.03125 226.207031 168.386719 226.207031 168.824219 C 226.207031 169.261719 226.5625 169.617188 227 169.617188 L 233.625 169.617188 C 234.058594 169.617188 234.414062 169.261719 234.414062 168.824219 Z M 220.707031 165.019531 C 220.707031 164.578125 220.351562 164.226562 219.914062 164.226562 L 212.84375 164.226562 C 212.402344 164.226562 212.050781 164.578125 212.050781 165.019531 C 212.050781 165.457031 212.402344 165.8125 212.84375 165.8125 L 219.914062 165.8125 C 220.351562 165.8125 220.707031 165.457031 220.707031 165.019531 Z M 201.449219 195.660156 L 195.410156 195.660156 C 194.578125 195.660156 193.820312 196.335938 193.714844 197.167969 C 193.613281 198 194.199219 198.671875 195.03125 198.671875 L 201.070312 198.671875 C 201.902344 198.671875 202.664062 198 202.769531 197.167969 C 202.871094 196.335938 202.28125 195.660156 201.449219 195.660156 Z M 195.25 185.335938 C 195.898438 185.335938 196.484375 184.808594 196.570312 184.164062 C 196.648438 183.515625 196.191406 182.988281 195.542969 182.988281 C 194.898438 182.988281 194.304688 183.515625 194.226562 184.164062 C 194.140625 184.808594 194.601562 185.335938 195.25 185.335938 Z M 194.554688 168.824219 C 194.554688 169.261719 194.910156 169.617188 195.347656 169.617188 L 200.214844 169.617188 C 200.648438 169.617188 201.003906 169.261719 201.003906 168.824219 C 201.003906 168.386719 200.648438 168.03125 200.214844 168.03125 L 195.347656 168.03125 C 194.910156 168.03125 194.554688 168.386719 194.554688 168.824219 Z M 225.679688 127.332031 C 225.679688 126.890625 225.324219 126.539062 224.886719 126.539062 L 209.914062 126.539062 C 209.476562 126.539062 209.121094 126.890625 209.121094 127.332031 C 209.121094 127.769531 209.476562 128.125 209.914062 128.125 L 224.886719 128.125 C 225.324219 128.125 225.679688 127.769531 225.679688 127.332031 Z M 276.398438 213.125 C 276.398438 213.566406 276.753906 213.917969 277.191406 213.917969 L 307.503906 213.917969 C 307.941406 213.917969 308.296875 213.566406 308.296875 213.125 C 308.296875 212.6875 307.941406 212.332031 307.503906 212.332031 L 277.191406 212.332031 C 276.753906 212.332031 276.398438 212.6875 276.398438 213.125 Z M 283.273438 158.414062 C 283.273438 158.847656 283.628906 159.207031 284.066406 159.207031 L 292.0625 159.207031 C 292.496094 159.207031 292.855469 158.847656 292.855469 158.414062 C 292.855469 157.972656 292.496094 157.621094 292.0625 157.621094 L 284.066406 157.621094 C 283.628906 157.621094 283.273438 157.972656 283.273438 158.414062 Z M 285.878906 137.691406 C 285.878906 138.128906 286.234375 138.484375 286.671875 138.484375 L 296.304688 138.484375 C 296.742188 138.484375 297.097656 138.128906 297.097656 137.691406 C 297.097656 137.253906 296.742188 136.898438 296.304688 136.898438 L 286.671875 136.898438 C 286.234375 136.898438 285.878906 137.253906 285.878906 137.691406 Z M 287.828125 122.152344 C 287.828125 122.585938 288.183594 122.945312 288.621094 122.945312 L 295.300781 122.945312 C 295.738281 122.945312 296.09375 122.585938 296.09375 122.152344 C 296.09375 121.714844 295.738281 121.359375 295.300781 121.359375 L 288.621094 121.359375 C 288.183594 121.359375 287.828125 121.714844 287.828125 122.152344 Z M 314.371094 137.691406 C 314.371094 137.253906 314.015625 136.898438 313.578125 136.898438 L 299.769531 136.898438 C 299.332031 136.898438 298.976562 137.253906 298.976562 137.691406 C 298.976562 138.128906 299.332031 138.484375 299.769531 138.484375 L 313.578125 138.484375 C 314.015625 138.484375 314.371094 138.128906 314.371094 137.691406 Z M 316.46875 154.023438 C 316.910156 154.023438 317.261719 153.671875 317.261719 153.230469 C 317.261719 152.792969 316.910156 152.4375 316.46875 152.4375 L 304.800781 152.4375 C 304.363281 152.4375 304.007812 152.792969 304.007812 153.230469 C 304.007812 153.671875 304.363281 154.023438 304.800781 154.023438 Z M 366.136719 102.210938 L 353.859375 212.984375 C 353.496094 216.253906 350.738281 218.722656 347.445312 218.722656 L 175.519531 218.722656 C 173.660156 218.722656 171.953125 217.960938 170.714844 216.574219 C 170.464844 216.300781 170.253906 216.003906 170.0625 215.703125 C 168.277344 228.390625 159.722656 242.710938 159.722656 253.875 C 159.722656 266.136719 169.066406 283.726562 169.066406 283.726562 C 169.066406 283.726562 165.75 311.183594 132.085938 311.183594 C 119.917969 311.183594 111.328125 309.050781 106.910156 307.605469 C 104.617188 306.855469 102.925781 304.925781 102.40625 302.570312 C 98.492188 284.800781 101.148438 259.574219 103.90625 250.703125 C 105.773438 244.707031 103.578125 213.996094 96.378906 192.101562 C 92.703125 180.933594 101.019531 169.4375 112.773438 169.4375 L 115.558594 160.578125 C 115.558594 160.578125 124.410156 156.296875 133.765625 158.199219 C 143.117188 160.105469 147.585938 162.675781 151.074219 163.164062 L 148.8125 169.488281 C 152.671875 169.824219 156.121094 172.125 157.886719 175.628906 C 161.691406 183.191406 167.746094 196.183594 169.730469 205.945312 L 181.382812 100.789062 C 181.746094 97.515625 184.503906 95.046875 187.796875 95.046875 L 359.722656 95.046875 C 361.582031 95.046875 363.289062 95.8125 364.527344 97.195312 C 365.769531 98.582031 366.339844 100.363281 366.136719 102.210938 Z M 205.101562 110.019531 C 204.457031 110.019531 203.867188 110.546875 203.785156 111.191406 C 203.703125 111.839844 204.160156 112.363281 204.808594 112.363281 C 205.457031 112.363281 206.046875 111.839844 206.128906 111.191406 C 206.210938 110.546875 205.753906 110.019531 205.101562 110.019531 Z M 209.542969 110.019531 C 208.894531 110.019531 208.304688 110.546875 208.222656 111.191406 C 208.144531 111.839844 208.601562 112.363281 209.25 112.363281 C 209.894531 112.363281 210.488281 111.839844 210.566406 111.191406 C 210.648438 110.546875 210.191406 110.019531 209.542969 110.019531 Z M 88.050781 106.398438 L 78.613281 106.398438 L 78.613281 126.984375 L 88.050781 126.984375 Z M 54.941406 126.984375 L 64.378906 126.984375 L 64.378906 109.25 L 54.941406 109.25 Z M 40.703125 126.984375 L 31.265625 126.984375 L 31.265625 115.4375 L 40.703125 115.4375 L 40.703125 126.984375 " fill-opacity="1" fill-rule="nonzero"/></g><g clip-path="url(#fea85f2414)"><path fill="#f3d0d2" d="M 62.851562 46.515625 C 67.066406 46.515625 70.480469 43.101562 70.480469 38.882812 C 70.480469 34.667969 67.066406 31.253906 62.851562 31.253906 C 58.640625 31.253906 55.226562 34.667969 55.226562 38.882812 C 55.226562 43.101562 58.640625 46.515625 62.851562 46.515625 Z M 40.410156 7.460938 C 40.410156 8.605469 41.335938 9.535156 42.484375 9.535156 C 43.628906 9.535156 44.554688 8.605469 44.554688 7.460938 C 44.554688 6.316406 43.628906 5.386719 42.484375 5.386719 C 41.335938 5.386719 40.410156 6.316406 40.410156 7.460938 Z M 45.664062 25.601562 L 48.457031 29.96875 C 47.503906 31.5 46.792969 33.199219 46.371094 35.007812 L 41.304688 36.117188 L 41.304688 41.648438 L 46.371094 42.761719 C 46.792969 44.570312 47.503906 46.269531 48.457031 47.800781 L 45.664062 52.167969 L 49.570312 56.078125 L 53.941406 53.285156 C 55.472656 54.238281 57.167969 54.945312 58.972656 55.371094 L 60.089844 60.433594 L 65.617188 60.433594 L 66.730469 55.371094 C 68.535156 54.945312 70.234375 54.238281 71.765625 53.285156 L 76.132812 56.078125 L 80.042969 52.167969 L 77.25 47.800781 C 78.199219 46.269531 78.914062 44.570312 79.335938 42.761719 L 84.398438 41.648438 L 84.398438 36.117188 L 79.335938 35.007812 C 78.914062 33.199219 78.199219 31.5 77.25 29.96875 L 80.042969 25.601562 L 76.132812 21.6875 L 71.765625 24.484375 C 70.234375 23.53125 68.535156 22.820312 66.730469 22.398438 L 65.617188 17.332031 L 60.089844 17.332031 L 58.972656 22.398438 C 57.167969 22.820312 55.472656 23.53125 53.941406 24.484375 L 49.570312 21.6875 Z M 89.375 43.820312 L 110.933594 43.820312 L 110.933594 38.882812 L 89.375 38.882812 Z M 89.375 22.269531 L 110.933594 22.269531 L 110.933594 17.332031 L 89.375 17.332031 Z M 66.832031 66.460938 L 54.5625 66.460938 L 54.5625 67.253906 L 66.832031 67.253906 Z M 66.832031 69.105469 L 61.695312 69.105469 L 61.695312 69.898438 L 66.832031 69.898438 Z M 59.695312 69.898438 L 59.695312 69.105469 L 54.5625 69.105469 L 54.5625 69.898438 Z M 62.632812 71.75 L 54.5625 71.75 L 54.5625 72.542969 L 62.632812 72.542969 Z M 120.429688 61.792969 L 134.769531 61.792969 L 134.769531 39.914062 L 120.429688 39.914062 Z M 120.429688 39.121094 L 134.769531 39.121094 L 134.769531 17.246094 L 120.429688 17.246094 Z M 142.722656 63.664062 C 142.722656 64.480469 143.382812 65.140625 144.195312 65.140625 L 144.335938 65.140625 C 145.152344 65.140625 145.8125 64.480469 145.8125 63.664062 C 145.8125 62.847656 145.152344 62.1875 144.335938 62.1875 L 144.195312 62.1875 C 143.382812 62.1875 142.722656 62.847656 142.722656 63.664062 Z M 142.722656 56.765625 C 142.722656 57.578125 143.382812 58.242188 144.195312 58.242188 L 144.335938 58.242188 C 145.152344 58.242188 145.8125 57.578125 145.8125 56.765625 C 145.8125 55.949219 145.152344 55.289062 144.335938 55.289062 L 144.195312 55.289062 C 143.382812 55.289062 142.722656 55.949219 142.722656 56.765625 Z M 142.722656 49.867188 C 142.722656 50.683594 143.382812 51.339844 144.195312 51.339844 L 144.335938 51.339844 C 145.152344 51.339844 145.8125 50.683594 145.8125 49.867188 C 145.8125 49.050781 145.152344 48.390625 144.335938 48.390625 L 144.195312 48.390625 C 143.382812 48.390625 142.722656 49.050781 142.722656 49.867188 Z M 142.722656 42.96875 C 142.722656 43.78125 143.382812 44.445312 144.195312 44.445312 L 144.335938 44.445312 C 145.152344 44.445312 145.8125 43.78125 145.8125 42.96875 C 145.8125 42.152344 145.152344 41.488281 144.335938 41.488281 L 144.195312 41.488281 C 143.382812 41.488281 142.722656 42.152344 142.722656 42.96875 Z M 142.722656 36.066406 C 142.722656 36.882812 143.382812 37.542969 144.195312 37.542969 L 144.335938 37.542969 C 145.152344 37.542969 145.8125 36.882812 145.8125 36.066406 C 145.8125 35.25 145.152344 34.59375 144.335938 34.59375 L 144.195312 34.59375 C 143.382812 34.59375 142.722656 35.25 142.722656 36.066406 Z M 142.722656 29.167969 C 142.722656 29.984375 143.382812 30.644531 144.195312 30.644531 L 144.335938 30.644531 C 145.152344 30.644531 145.8125 29.984375 145.8125 29.167969 C 145.8125 28.355469 145.152344 27.691406 144.335938 27.691406 L 144.195312 27.691406 C 143.382812 27.691406 142.722656 28.355469 142.722656 29.167969 Z M 142.722656 22.269531 C 142.722656 23.085938 143.382812 23.746094 144.195312 23.746094 L 144.335938 23.746094 C 145.152344 23.746094 145.8125 23.085938 145.8125 22.269531 C 145.8125 21.453125 145.152344 20.792969 144.335938 20.792969 L 144.195312 20.792969 C 143.382812 20.792969 142.722656 21.453125 142.722656 22.269531 Z M 142.722656 15.371094 C 142.722656 16.183594 143.382812 16.847656 144.195312 16.847656 L 144.335938 16.847656 C 145.152344 16.847656 145.8125 16.183594 145.8125 15.371094 C 145.8125 14.554688 145.152344 13.894531 144.335938 13.894531 L 144.195312 13.894531 C 143.382812 13.894531 142.722656 14.554688 142.722656 15.371094 Z M 142.722656 7.460938 C 142.722656 8.605469 143.648438 9.535156 144.792969 9.535156 C 145.941406 9.535156 146.867188 8.605469 146.867188 7.460938 C 146.867188 6.316406 145.941406 5.386719 144.792969 5.386719 C 143.648438 5.386719 142.722656 6.316406 142.722656 7.460938 Z M 148.996094 63.664062 C 148.996094 64.480469 149.660156 65.140625 150.472656 65.140625 L 162.992188 65.140625 C 163.804688 65.140625 164.46875 64.480469 164.46875 63.664062 C 164.46875 62.847656 163.804688 62.1875 162.992188 62.1875 L 150.472656 62.1875 C 149.660156 62.1875 148.996094 62.847656 148.996094 63.664062 Z M 148.996094 56.765625 C 148.996094 57.578125 149.660156 58.242188 150.472656 58.242188 L 177.257812 58.242188 C 178.074219 58.242188 178.738281 57.578125 178.738281 56.765625 C 178.738281 55.949219 178.074219 55.289062 177.257812 55.289062 L 150.472656 55.289062 C 149.660156 55.289062 148.996094 55.949219 148.996094 56.765625 Z M 148.996094 49.867188 C 148.996094 50.683594 149.660156 51.339844 150.472656 51.339844 L 167.640625 51.339844 C 168.457031 51.339844 169.121094 50.683594 169.121094 49.867188 C 169.121094 49.050781 168.457031 48.390625 167.640625 48.390625 L 150.472656 48.390625 C 149.660156 48.390625 148.996094 49.050781 148.996094 49.867188 Z M 148.996094 42.96875 C 148.996094 43.78125 149.660156 44.445312 150.472656 44.445312 L 173.136719 44.445312 C 173.953125 44.445312 174.613281 43.78125 174.613281 42.96875 C 174.613281 42.152344 173.953125 41.488281 173.136719 41.488281 L 150.472656 41.488281 C 149.660156 41.488281 148.996094 42.152344 148.996094 42.96875 Z M 148.996094 36.066406 C 148.996094 36.882812 149.660156 37.542969 150.472656 37.542969 L 180.21875 37.542969 C 181.035156 37.542969 181.695312 36.882812 181.695312 36.066406 C 181.695312 35.25 181.035156 34.59375 180.21875 34.59375 L 150.472656 34.59375 C 149.660156 34.59375 148.996094 35.25 148.996094 36.066406 Z M 148.996094 29.167969 C 148.996094 29.984375 149.660156 30.644531 150.472656 30.644531 L 156.542969 30.644531 C 157.359375 30.644531 158.023438 29.984375 158.023438 29.167969 C 158.023438 28.355469 157.359375 27.691406 156.542969 27.691406 L 150.472656 27.691406 C 149.660156 27.691406 148.996094 28.355469 148.996094 29.167969 Z M 148.996094 22.269531 C 148.996094 23.085938 149.660156 23.746094 150.472656 23.746094 L 170.917969 23.746094 C 171.734375 23.746094 172.394531 23.085938 172.394531 22.269531 C 172.394531 21.453125 171.734375 20.792969 170.917969 20.792969 L 150.472656 20.792969 C 149.660156 20.792969 148.996094 21.453125 148.996094 22.269531 Z M 148.996094 15.371094 C 148.996094 16.183594 149.660156 16.847656 150.472656 16.847656 L 159.859375 16.847656 C 160.675781 16.847656 161.335938 16.183594 161.335938 15.371094 C 161.335938 14.554688 160.675781 13.894531 159.859375 13.894531 L 150.472656 13.894531 C 149.660156 13.894531 148.996094 14.554688 148.996094 15.371094 Z M 150.570312 7.460938 C 150.570312 8.605469 151.5 9.535156 152.644531 9.535156 C 153.792969 9.535156 154.722656 8.605469 154.722656 7.460938 C 154.722656 6.316406 153.792969 5.386719 152.644531 5.386719 C 151.5 5.386719 150.570312 6.316406 150.570312 7.460938 Z M 193.609375 27.691406 L 163.863281 27.691406 C 163.046875 27.691406 162.386719 28.355469 162.386719 29.167969 C 162.386719 29.984375 163.046875 30.644531 163.863281 30.644531 L 193.609375 30.644531 C 194.421875 30.644531 195.085938 29.984375 195.085938 29.167969 C 195.085938 28.355469 194.421875 27.691406 193.609375 27.691406 Z M 194.238281 36.066406 C 194.238281 35.25 193.582031 34.59375 192.765625 34.59375 L 186.695312 34.59375 C 185.878906 34.59375 185.21875 35.25 185.21875 36.066406 C 185.21875 36.882812 185.878906 37.542969 186.695312 37.542969 L 192.765625 37.542969 C 193.582031 37.542969 194.238281 36.882812 194.238281 36.066406 Z M 193.5 49.867188 C 193.5 49.050781 192.839844 48.390625 192.027344 48.390625 L 185.953125 48.390625 C 185.140625 48.390625 184.476562 49.050781 184.476562 49.867188 C 184.476562 50.683594 185.140625 51.339844 185.953125 51.339844 L 192.027344 51.339844 C 192.839844 51.339844 193.5 50.683594 193.5 49.867188 Z M 181.242188 49.867188 C 181.242188 49.050781 180.582031 48.390625 179.765625 48.390625 L 173.691406 48.390625 C 172.878906 48.390625 172.21875 49.050781 172.21875 49.867188 C 172.21875 50.683594 172.878906 51.339844 173.691406 51.339844 L 179.765625 51.339844 C 180.582031 51.339844 181.242188 50.683594 181.242188 49.867188 Z M 187.085938 63.664062 C 187.085938 62.847656 186.425781 62.1875 185.609375 62.1875 L 168.441406 62.1875 C 167.625 62.1875 166.964844 62.847656 166.964844 63.664062 C 166.964844 64.480469 167.625 65.140625 168.441406 65.140625 L 185.609375 65.140625 C 186.425781 65.140625 187.085938 64.480469 187.085938 63.664062 Z M 227.714844 61.792969 L 246.484375 61.792969 L 246.484375 39.914062 L 227.714844 39.914062 Z M 227.714844 39.121094 L 246.484375 39.121094 L 246.484375 17.246094 L 227.714844 17.246094 Z M 255.402344 60.433594 L 332.726562 60.433594 L 332.726562 20.792969 L 255.402344 20.792969 Z M 263.253906 7.460938 C 263.253906 8.605469 264.183594 9.535156 265.332031 9.535156 C 266.476562 9.535156 267.40625 8.605469 267.40625 7.460938 C 267.40625 6.316406 266.476562 5.386719 265.332031 5.386719 C 264.183594 5.386719 263.253906 6.316406 263.253906 7.460938 Z M 317.453125 64.742188 L 305.183594 64.742188 L 305.183594 65.535156 L 317.453125 65.535156 Z M 317.453125 67.386719 L 312.316406 67.386719 L 312.316406 68.179688 L 317.453125 68.179688 Z M 310.320312 68.179688 L 310.320312 67.386719 L 305.183594 67.386719 L 305.183594 68.179688 Z M 313.253906 70.03125 L 305.183594 70.03125 L 305.183594 70.824219 L 313.253906 70.824219 Z M 292.089844 64.742188 L 279.816406 64.742188 L 279.816406 65.535156 L 292.089844 65.535156 Z M 292.089844 67.386719 L 286.953125 67.386719 L 286.953125 68.179688 L 292.089844 68.179688 Z M 284.953125 68.179688 L 284.953125 67.386719 L 279.816406 67.386719 L 279.816406 68.179688 Z M 287.886719 70.03125 L 279.816406 70.03125 L 279.816406 70.824219 L 287.886719 70.824219 Z M 27.480469 77.800781 L 27.480469 4.160156 C 27.480469 1.972656 29.253906 0.195312 31.445312 0.195312 L 116.464844 0.195312 C 118.65625 0.195312 120.429688 1.972656 120.429688 4.160156 L 120.429688 16.453125 L 134.769531 16.453125 L 134.769531 4.160156 C 134.769531 1.972656 136.542969 0.195312 138.730469 0.195312 L 223.75 0.195312 C 225.941406 0.195312 227.714844 1.972656 227.714844 4.160156 L 227.714844 16.453125 L 246.484375 16.453125 L 246.484375 4.160156 C 246.484375 1.972656 248.257812 0.195312 250.445312 0.195312 L 335.464844 0.195312 C 337.65625 0.195312 339.425781 1.972656 339.425781 4.160156 L 339.425781 61.792969 L 349.667969 61.792969 C 349.832031 62.050781 349.980469 62.320312 350.132812 62.585938 L 339.425781 62.585938 L 339.425781 77.800781 C 339.425781 79.992188 337.65625 81.765625 335.464844 81.765625 L 250.445312 81.765625 C 248.257812 81.765625 246.484375 79.992188 246.484375 77.800781 L 246.484375 62.585938 L 227.714844 62.585938 L 227.714844 69.554688 C 227.714844 71.742188 225.941406 73.519531 223.75 73.519531 L 138.730469 73.519531 C 136.542969 73.519531 134.769531 71.742188 134.769531 69.554688 L 134.769531 62.585938 L 120.429688 62.585938 L 120.429688 77.800781 C 120.429688 79.992188 118.65625 81.765625 116.464844 81.765625 L 31.445312 81.765625 C 29.253906 81.765625 27.480469 79.992188 27.480469 77.800781 Z M 300.382812 98.773438 C 299.949219 98.773438 299.589844 99.128906 299.589844 99.566406 C 299.589844 100.003906 299.949219 100.359375 300.382812 100.359375 L 316.394531 100.359375 C 316.835938 100.359375 317.1875 100.003906 317.1875 99.566406 C 317.1875 99.128906 316.835938 98.773438 316.394531 98.773438 Z M 317.726562 192.40625 C 317.726562 191.96875 317.375 191.613281 316.933594 191.613281 L 295.921875 191.613281 C 295.484375 191.613281 295.128906 191.96875 295.128906 192.40625 C 295.128906 192.839844 295.484375 193.199219 295.921875 193.199219 L 316.933594 193.199219 C 317.375 193.199219 317.726562 192.839844 317.726562 192.40625 Z M 308.945312 207.945312 C 308.945312 207.507812 308.59375 207.152344 308.152344 207.152344 L 277.84375 207.152344 C 277.40625 207.152344 277.050781 207.507812 277.050781 207.945312 C 277.050781 208.382812 277.40625 208.738281 277.84375 208.738281 L 308.152344 208.738281 C 308.59375 208.738281 308.945312 208.382812 308.945312 207.945312 Z M 308.296875 213.125 C 308.296875 212.6875 307.941406 212.332031 307.503906 212.332031 L 277.191406 212.332031 C 276.753906 212.332031 276.398438 212.6875 276.398438 213.125 C 276.398438 213.566406 276.753906 213.917969 277.191406 213.917969 L 307.503906 213.917969 C 307.941406 213.917969 308.296875 213.566406 308.296875 213.125 Z M 278.351562 197.582031 C 278.351562 198.023438 278.707031 198.375 279.144531 198.375 L 303.636719 198.375 C 304.074219 198.375 304.429688 198.023438 304.429688 197.582031 C 304.429688 197.148438 304.074219 196.789062 303.636719 196.789062 L 279.144531 196.789062 C 278.707031 196.789062 278.351562 197.148438 278.351562 197.582031 Z M 279.003906 192.40625 C 279.003906 192.839844 279.355469 193.199219 279.796875 193.199219 L 290.300781 193.199219 C 290.738281 193.199219 291.09375 192.839844 291.09375 192.40625 C 291.09375 191.96875 290.738281 191.613281 290.300781 191.613281 L 279.796875 191.613281 C 279.355469 191.613281 279.003906 191.96875 279.003906 192.40625 Z M 279.652344 187.226562 C 279.652344 187.664062 280.007812 188.019531 280.445312 188.019531 L 310.757812 188.019531 C 311.195312 188.019531 311.550781 187.664062 311.550781 187.226562 C 311.550781 186.785156 311.195312 186.433594 310.757812 186.433594 L 280.445312 186.433594 C 280.007812 186.433594 279.652344 186.785156 279.652344 187.226562 Z M 273.820312 187.226562 C 273.820312 186.785156 273.464844 186.433594 273.027344 186.433594 L 267.742188 186.433594 C 267.304688 186.433594 266.949219 186.785156 266.949219 187.226562 C 266.949219 187.664062 267.304688 188.019531 267.742188 188.019531 L 273.027344 188.019531 C 273.464844 188.019531 273.820312 187.664062 273.820312 187.226562 Z M 273.167969 192.40625 C 273.167969 191.96875 272.8125 191.613281 272.375 191.613281 L 267.09375 191.613281 C 266.652344 191.613281 266.300781 191.96875 266.300781 192.40625 C 266.300781 192.839844 266.652344 193.199219 267.09375 193.199219 L 272.375 193.199219 C 272.8125 193.199219 273.167969 192.839844 273.167969 192.40625 Z M 272.515625 197.582031 C 272.515625 197.148438 272.164062 196.789062 271.722656 196.789062 L 266.4375 196.789062 C 266.003906 196.789062 265.644531 197.148438 265.644531 197.582031 C 265.644531 198.023438 266.003906 198.375 266.4375 198.375 L 271.722656 198.375 C 272.164062 198.375 272.515625 198.023438 272.515625 197.582031 Z M 271.214844 207.945312 C 271.214844 207.507812 270.859375 207.152344 270.421875 207.152344 L 265.136719 207.152344 C 264.703125 207.152344 264.34375 207.507812 264.34375 207.945312 C 264.34375 208.382812 264.703125 208.738281 265.136719 208.738281 L 270.421875 208.738281 C 270.859375 208.738281 271.214844 208.382812 271.214844 207.945312 Z M 270.566406 213.125 C 270.566406 212.6875 270.210938 212.332031 269.773438 212.332031 L 264.488281 212.332031 C 264.046875 212.332031 263.695312 212.6875 263.695312 213.125 C 263.695312 213.566406 264.046875 213.917969 264.488281 213.917969 L 269.773438 213.917969 C 270.210938 213.917969 270.566406 213.566406 270.566406 213.125 Z M 328.210938 184.039062 L 323.851562 218.722656 L 314.335938 218.722656 C 314.417969 218.601562 314.472656 218.460938 314.472656 218.308594 C 314.472656 217.867188 314.121094 217.515625 313.679688 217.515625 L 292.667969 217.515625 C 292.230469 217.515625 291.875 217.867188 291.875 218.308594 C 291.875 218.460938 291.929688 218.601562 292.011719 218.722656 L 287.703125 218.722656 C 287.78125 218.601562 287.839844 218.460938 287.839844 218.308594 C 287.839844 217.867188 287.484375 217.515625 287.046875 217.515625 L 276.539062 217.515625 C 276.101562 217.515625 275.746094 217.867188 275.746094 218.308594 C 275.746094 218.460938 275.804688 218.601562 275.882812 218.722656 L 269.777344 218.722656 C 269.855469 218.601562 269.914062 218.460938 269.914062 218.308594 C 269.914062 217.867188 269.558594 217.515625 269.121094 217.515625 L 263.835938 217.515625 C 263.398438 217.515625 263.046875 217.867188 263.046875 218.308594 C 263.046875 218.460938 263.101562 218.601562 263.179688 218.722656 L 257.96875 218.722656 L 262.328125 184.039062 C 262.605469 181.847656 264.601562 180.074219 266.792969 180.074219 L 324.746094 180.074219 C 326.933594 180.074219 328.488281 181.847656 328.210938 184.039062 Z M 215.6875 195.660156 L 209.648438 195.660156 C 208.816406 195.660156 208.054688 196.335938 207.953125 197.167969 C 207.847656 198 208.4375 198.671875 209.269531 198.671875 L 215.308594 198.671875 C 216.140625 198.671875 216.898438 198 217.003906 197.167969 C 217.105469 196.335938 216.519531 195.660156 215.6875 195.660156 Z M 201.449219 195.660156 L 195.410156 195.660156 C 194.578125 195.660156 193.820312 196.335938 193.714844 197.167969 C 193.613281 198 194.199219 198.671875 195.03125 198.671875 L 201.070312 198.671875 C 201.902344 198.671875 202.664062 198 202.769531 197.167969 C 202.871094 196.335938 202.28125 195.660156 201.449219 195.660156 Z M 191.105469 182.988281 C 190.457031 182.988281 189.863281 183.515625 189.785156 184.164062 C 189.703125 184.808594 190.164062 185.335938 190.808594 185.335938 C 191.457031 185.335938 192.046875 184.808594 192.128906 184.164062 C 192.210938 183.515625 191.75 182.988281 191.105469 182.988281 Z M 195.25 185.335938 C 195.898438 185.335938 196.484375 184.808594 196.570312 184.164062 C 196.648438 183.515625 196.191406 182.988281 195.542969 182.988281 C 194.898438 182.988281 194.304688 183.515625 194.226562 184.164062 C 194.140625 184.808594 194.601562 185.335938 195.25 185.335938 Z M 199.6875 185.335938 C 200.332031 185.335938 200.925781 184.808594 201.003906 184.164062 C 201.089844 183.515625 200.632812 182.988281 199.980469 182.988281 C 199.332031 182.988281 198.746094 183.515625 198.660156 184.164062 C 198.582031 184.808594 199.039062 185.335938 199.6875 185.335938 Z M 212.03125 190.269531 L 200.21875 190.269531 C 199.78125 190.269531 199.425781 190.625 199.425781 191.0625 C 199.425781 191.5 199.78125 191.851562 200.21875 191.851562 L 212.03125 191.851562 C 212.472656 191.851562 212.824219 191.5 212.824219 191.0625 C 212.824219 190.625 212.472656 190.269531 212.03125 190.269531 Z M 224.03125 180.066406 C 226.21875 180.066406 227.773438 181.84375 227.5 184.03125 L 225.835938 197.246094 C 225.5625 199.433594 223.5625 201.210938 221.375 201.210938 L 187.714844 201.210938 C 185.527344 201.210938 183.976562 199.433594 184.25 197.246094 L 185.910156 184.03125 C 186.1875 181.84375 188.183594 180.066406 190.371094 180.066406 Z M 206.128906 111.191406 C 206.210938 110.546875 205.753906 110.019531 205.101562 110.019531 C 204.457031 110.019531 203.867188 110.546875 203.785156 111.191406 C 203.703125 111.839844 204.160156 112.363281 204.808594 112.363281 C 205.457031 112.363281 206.046875 111.839844 206.128906 111.191406 Z M 247.976562 168.824219 C 247.976562 168.386719 247.617188 168.03125 247.183594 168.03125 L 243.132812 168.03125 C 242.691406 168.03125 242.339844 168.386719 242.339844 168.824219 C 242.339844 169.261719 242.691406 169.617188 243.132812 169.617188 L 247.183594 169.617188 C 247.617188 169.617188 247.976562 169.261719 247.976562 168.824219 Z M 242.167969 128.125 C 242.601562 128.125 242.957031 127.769531 242.957031 127.332031 C 242.957031 126.890625 242.601562 126.539062 242.167969 126.539062 L 230.367188 126.539062 C 229.929688 126.539062 229.574219 126.890625 229.574219 127.332031 C 229.574219 127.769531 229.929688 128.125 230.367188 128.125 Z M 239.867188 134.273438 L 211.15625 134.273438 C 209.988281 134.273438 208.921875 135.222656 208.777344 136.386719 L 207.90625 143.296875 C 207.761719 144.460938 208.589844 145.40625 209.757812 145.40625 L 238.46875 145.40625 C 239.636719 145.40625 240.703125 144.460938 240.847656 143.296875 L 241.714844 136.386719 C 241.863281 135.222656 241.03125 134.273438 239.867188 134.273438 Z M 227.480469 165.8125 L 231.53125 165.8125 C 231.964844 165.8125 232.324219 165.457031 232.324219 165.019531 C 232.324219 164.578125 231.964844 164.226562 231.53125 164.226562 L 227.480469 164.226562 C 227.039062 164.226562 226.6875 164.578125 226.6875 165.019531 C 226.6875 165.457031 227.039062 165.8125 227.480469 165.8125 Z M 234.414062 168.824219 C 234.414062 168.386719 234.058594 168.03125 233.625 168.03125 L 227 168.03125 C 226.5625 168.03125 226.207031 168.386719 226.207031 168.824219 C 226.207031 169.261719 226.5625 169.617188 227 169.617188 L 233.625 169.617188 C 234.058594 169.617188 234.414062 169.261719 234.414062 168.824219 Z M 220.707031 165.019531 C 220.707031 164.578125 220.351562 164.226562 219.914062 164.226562 L 212.84375 164.226562 C 212.402344 164.226562 212.050781 164.578125 212.050781 165.019531 C 212.050781 165.457031 212.402344 165.8125 212.84375 165.8125 L 219.914062 165.8125 C 220.351562 165.8125 220.707031 165.457031 220.707031 165.019531 Z M 217.210938 168.824219 C 217.210938 168.386719 216.851562 168.03125 216.417969 168.03125 L 212.363281 168.03125 C 211.925781 168.03125 211.570312 168.386719 211.570312 168.824219 C 211.570312 169.261719 211.925781 169.617188 212.363281 169.617188 L 216.417969 169.617188 C 216.851562 169.617188 217.210938 169.261719 217.210938 168.824219 Z M 204.71875 165.019531 C 204.71875 164.578125 204.367188 164.226562 203.925781 164.226562 L 195.824219 164.226562 C 195.390625 164.226562 195.03125 164.578125 195.03125 165.019531 C 195.03125 165.457031 195.390625 165.8125 195.824219 165.8125 L 203.925781 165.8125 C 204.367188 165.8125 204.71875 165.457031 204.71875 165.019531 Z M 201.003906 168.824219 C 201.003906 168.386719 200.648438 168.03125 200.214844 168.03125 L 195.347656 168.03125 C 194.910156 168.03125 194.554688 168.386719 194.554688 168.824219 C 194.554688 169.261719 194.910156 169.617188 195.347656 169.617188 L 200.214844 169.617188 C 200.648438 169.617188 201.003906 169.261719 201.003906 168.824219 Z M 209.121094 127.332031 C 209.121094 127.769531 209.476562 128.125 209.914062 128.125 L 224.886719 128.125 C 225.324219 128.125 225.679688 127.769531 225.679688 127.332031 C 225.679688 126.890625 225.324219 126.539062 224.886719 126.539062 L 209.914062 126.539062 C 209.476562 126.539062 209.121094 126.890625 209.121094 127.332031 Z M 242.816406 165.019531 C 242.816406 165.457031 243.171875 165.8125 243.609375 165.8125 L 250.679688 165.8125 C 251.117188 165.8125 251.472656 165.457031 251.472656 165.019531 C 251.472656 164.578125 251.117188 164.226562 250.679688 164.226562 L 243.609375 164.226562 C 243.171875 164.226562 242.816406 164.578125 242.816406 165.019531 Z M 249.464844 174.269531 L 191.507812 174.269531 C 189.320312 174.269531 187.769531 172.496094 188.042969 170.304688 L 194.746094 116.96875 L 260.625 116.96875 L 261.582031 109.378906 L 253.921875 170.304688 C 253.652344 172.496094 251.652344 174.269531 249.464844 174.269531 Z M 338.210938 213.105469 L 330.210938 213.105469 C 329.773438 213.105469 329.417969 213.460938 329.417969 213.894531 C 329.417969 214.332031 329.773438 214.6875 330.210938 214.6875 L 338.210938 214.6875 C 338.644531 214.6875 339.003906 214.332031 339.003906 213.894531 C 339.003906 213.460938 338.644531 213.105469 338.210938 213.105469 Z M 342.117188 207.921875 L 330.863281 207.921875 C 330.425781 207.921875 330.074219 208.277344 330.074219 208.714844 C 330.074219 209.15625 330.425781 209.507812 330.863281 209.507812 L 342.117188 209.507812 C 342.558594 209.507812 342.910156 209.15625 342.910156 208.714844 C 342.910156 208.277344 342.558594 207.921875 342.117188 207.921875 Z M 331.515625 204.328125 L 338.195312 204.328125 C 338.632812 204.328125 338.988281 203.972656 338.988281 203.535156 C 338.988281 203.097656 338.632812 202.742188 338.195312 202.742188 L 331.515625 202.742188 C 331.074219 202.742188 330.722656 203.097656 330.722656 203.535156 C 330.722656 203.972656 331.074219 204.328125 331.515625 204.328125 Z M 345.992188 144.226562 L 338 144.226562 C 337.558594 144.226562 337.207031 144.582031 337.207031 145.019531 C 337.207031 145.460938 337.558594 145.8125 338 145.8125 L 345.992188 145.8125 C 346.429688 145.8125 346.785156 145.460938 346.785156 145.019531 C 346.785156 144.582031 346.429688 144.226562 345.992188 144.226562 Z M 349.902344 139.050781 L 338.648438 139.050781 C 338.210938 139.050781 337.855469 139.402344 337.855469 139.84375 C 337.855469 140.277344 338.210938 140.632812 338.648438 140.632812 L 349.902344 140.632812 C 350.339844 140.632812 350.695312 140.277344 350.695312 139.84375 C 350.695312 139.402344 350.339844 139.050781 349.902344 139.050781 Z M 339.300781 133.867188 C 338.863281 133.867188 338.507812 134.222656 338.507812 134.660156 C 338.507812 135.101562 338.863281 135.453125 339.300781 135.453125 L 345.980469 135.453125 C 346.417969 135.453125 346.769531 135.101562 346.769531 134.660156 C 346.769531 134.222656 346.417969 133.867188 345.980469 133.867188 Z M 327.207031 116.96875 C 327.207031 116.53125 326.851562 116.175781 326.414062 116.175781 L 313.058594 116.175781 C 312.617188 116.175781 312.265625 116.53125 312.265625 116.96875 C 312.265625 117.410156 312.617188 117.761719 313.058594 117.761719 L 326.414062 117.761719 C 326.851562 117.761719 327.207031 117.410156 327.207031 116.96875 Z M 320.515625 127.332031 C 320.515625 126.890625 320.164062 126.539062 319.722656 126.539062 L 308.054688 126.539062 C 307.617188 126.539062 307.261719 126.890625 307.261719 127.332031 C 307.261719 127.769531 307.617188 128.125 308.054688 128.125 L 319.722656 128.125 C 320.164062 128.125 320.515625 127.769531 320.515625 127.332031 Z M 317.261719 153.230469 C 317.261719 152.792969 316.910156 152.4375 316.46875 152.4375 L 304.800781 152.4375 C 304.363281 152.4375 304.007812 152.792969 304.007812 153.230469 C 304.007812 153.671875 304.363281 154.023438 304.800781 154.023438 L 316.46875 154.023438 C 316.910156 154.023438 317.261719 153.671875 317.261719 153.230469 Z M 311.46875 158.414062 C 311.46875 157.972656 311.117188 157.621094 310.675781 157.621094 L 296.574219 157.621094 C 296.136719 157.621094 295.78125 157.972656 295.78125 158.414062 C 295.78125 158.847656 296.136719 159.207031 296.574219 159.207031 L 310.675781 159.207031 C 311.117188 159.207031 311.46875 158.847656 311.46875 158.414062 Z M 303.476562 163.589844 C 303.476562 163.15625 303.121094 162.796875 302.683594 162.796875 L 283.417969 162.796875 C 282.976562 162.796875 282.625 163.15625 282.625 163.589844 C 282.625 164.03125 282.976562 164.382812 283.417969 164.382812 L 302.683594 164.382812 C 303.121094 164.382812 303.476562 164.03125 303.476562 163.589844 Z M 282.644531 116.96875 C 282.644531 116.53125 282.292969 116.175781 281.851562 116.175781 L 276.570312 116.175781 C 276.132812 116.175781 275.777344 116.53125 275.777344 116.96875 C 275.777344 117.410156 276.132812 117.761719 276.570312 117.761719 L 281.851562 117.761719 C 282.292969 117.761719 282.644531 117.410156 282.644531 116.96875 Z M 281.996094 122.152344 C 281.996094 121.714844 281.640625 121.359375 281.203125 121.359375 L 275.917969 121.359375 C 275.480469 121.359375 275.128906 121.714844 275.128906 122.152344 C 275.128906 122.585938 275.480469 122.945312 275.917969 122.945312 L 281.203125 122.945312 C 281.640625 122.945312 281.996094 122.585938 281.996094 122.152344 Z M 281.34375 127.332031 C 281.34375 126.890625 280.992188 126.539062 280.550781 126.539062 L 275.269531 126.539062 C 274.828125 126.539062 274.476562 126.890625 274.476562 127.332031 C 274.476562 127.769531 274.828125 128.125 275.269531 128.125 L 280.550781 128.125 C 280.992188 128.125 281.34375 127.769531 281.34375 127.332031 Z M 280.695312 132.511719 C 280.695312 132.074219 280.339844 131.71875 279.902344 131.71875 L 274.617188 131.71875 C 274.179688 131.71875 273.824219 132.074219 273.824219 132.511719 C 273.824219 132.949219 274.179688 133.304688 274.617188 133.304688 L 279.902344 133.304688 C 280.339844 133.304688 280.695312 132.949219 280.695312 132.511719 Z M 280.042969 137.691406 C 280.042969 137.253906 279.6875 136.898438 279.25 136.898438 L 273.964844 136.898438 C 273.53125 136.898438 273.171875 137.253906 273.171875 137.691406 C 273.171875 138.128906 273.53125 138.484375 273.964844 138.484375 L 279.25 138.484375 C 279.6875 138.484375 280.042969 138.128906 280.042969 137.691406 Z M 278.742188 148.050781 C 278.742188 147.613281 278.386719 147.257812 277.949219 147.257812 L 272.664062 147.257812 C 272.226562 147.257812 271.871094 147.613281 271.871094 148.050781 C 271.871094 148.488281 272.226562 148.84375 272.664062 148.84375 L 277.949219 148.84375 C 278.386719 148.84375 278.742188 148.488281 278.742188 148.050781 Z M 278.089844 153.230469 C 278.089844 152.792969 277.734375 152.4375 277.296875 152.4375 L 272.011719 152.4375 C 271.574219 152.4375 271.21875 152.792969 271.21875 153.230469 C 271.21875 153.671875 271.574219 154.023438 272.011719 154.023438 L 277.296875 154.023438 C 277.734375 154.023438 278.089844 153.671875 278.089844 153.230469 Z M 277.441406 158.414062 C 277.441406 157.972656 277.085938 157.621094 276.648438 157.621094 L 271.363281 157.621094 C 270.925781 157.621094 270.570312 157.972656 270.570312 158.414062 C 270.570312 158.847656 270.925781 159.207031 271.363281 159.207031 L 276.648438 159.207031 C 277.085938 159.207031 277.441406 158.847656 277.441406 158.414062 Z M 276.789062 163.589844 C 276.789062 163.15625 276.433594 162.796875 275.996094 162.796875 L 270.710938 162.796875 C 270.273438 162.796875 269.917969 163.15625 269.917969 163.589844 C 269.917969 164.03125 270.273438 164.382812 270.710938 164.382812 L 275.996094 164.382812 C 276.433594 164.382812 276.789062 164.03125 276.789062 163.589844 Z M 283.273438 158.414062 C 283.273438 158.847656 283.628906 159.207031 284.066406 159.207031 L 292.0625 159.207031 C 292.496094 159.207031 292.855469 158.847656 292.855469 158.414062 C 292.855469 157.972656 292.496094 157.621094 292.0625 157.621094 L 284.066406 157.621094 C 283.628906 157.621094 283.273438 157.972656 283.273438 158.414062 Z M 283.925781 153.230469 C 283.925781 153.671875 284.28125 154.023438 284.714844 154.023438 L 300.289062 154.023438 C 300.726562 154.023438 301.082031 153.671875 301.082031 153.230469 C 301.082031 152.792969 300.726562 152.4375 300.289062 152.4375 L 284.714844 152.4375 C 284.28125 152.4375 283.925781 152.792969 283.925781 153.230469 Z M 284.574219 148.050781 C 284.574219 148.488281 284.929688 148.84375 285.367188 148.84375 L 292.046875 148.84375 C 292.484375 148.84375 292.839844 148.488281 292.839844 148.050781 C 292.839844 147.613281 292.484375 147.257812 292.046875 147.257812 L 285.367188 147.257812 C 284.929688 147.257812 284.574219 147.613281 284.574219 148.050781 Z M 285.878906 137.691406 C 285.878906 138.128906 286.234375 138.484375 286.671875 138.484375 L 296.304688 138.484375 C 296.742188 138.484375 297.097656 138.128906 297.097656 137.691406 C 297.097656 137.253906 296.742188 136.898438 296.304688 136.898438 L 286.671875 136.898438 C 286.234375 136.898438 285.878906 137.253906 285.878906 137.691406 Z M 286.527344 132.511719 C 286.527344 132.949219 286.882812 133.304688 287.320312 133.304688 L 295.316406 133.304688 C 295.753906 133.304688 296.109375 132.949219 296.109375 132.511719 C 296.109375 132.074219 295.753906 131.71875 295.316406 131.71875 L 287.320312 131.71875 C 286.882812 131.71875 286.527344 132.074219 286.527344 132.511719 Z M 287.179688 127.332031 C 287.179688 127.769531 287.535156 128.125 287.972656 128.125 L 303.542969 128.125 C 303.980469 128.125 304.335938 127.769531 304.335938 127.332031 C 304.335938 126.890625 303.980469 126.539062 303.542969 126.539062 L 287.972656 126.539062 C 287.535156 126.539062 287.179688 126.890625 287.179688 127.332031 Z M 287.828125 122.152344 C 287.828125 122.585938 288.183594 122.945312 288.621094 122.945312 L 295.300781 122.945312 C 295.738281 122.945312 296.09375 122.585938 296.09375 122.152344 C 296.09375 121.714844 295.738281 121.359375 295.300781 121.359375 L 288.621094 121.359375 C 288.183594 121.359375 287.828125 121.714844 287.828125 122.152344 Z M 288.480469 116.96875 C 288.480469 117.410156 288.835938 117.761719 289.273438 117.761719 L 308.542969 117.761719 C 308.980469 117.761719 309.335938 117.410156 309.335938 116.96875 C 309.335938 116.53125 308.980469 116.175781 308.542969 116.175781 L 289.273438 116.175781 C 288.835938 116.175781 288.480469 116.53125 288.480469 116.96875 Z M 312.230469 122.945312 C 312.671875 122.945312 313.023438 122.585938 313.023438 122.152344 C 313.023438 121.714844 312.671875 121.359375 312.230469 121.359375 L 298.875 121.359375 C 298.4375 121.359375 298.082031 121.714844 298.082031 122.152344 C 298.082031 122.585938 298.4375 122.945312 298.875 122.945312 Z M 305.917969 132.511719 C 305.917969 132.074219 305.5625 131.71875 305.125 131.71875 L 299.832031 131.71875 C 299.390625 131.71875 299.039062 132.074219 299.039062 132.511719 C 299.039062 132.949219 299.390625 133.304688 299.832031 133.304688 L 305.125 133.304688 C 305.5625 133.304688 305.917969 132.949219 305.917969 132.511719 Z M 308.976562 147.257812 L 295.617188 147.257812 C 295.183594 147.257812 294.828125 147.613281 294.828125 148.050781 C 294.828125 148.488281 295.183594 148.84375 295.617188 148.84375 L 308.976562 148.84375 C 309.417969 148.84375 309.769531 148.488281 309.769531 148.050781 C 309.769531 147.613281 309.417969 147.257812 308.976562 147.257812 Z M 313.578125 138.484375 C 314.015625 138.484375 314.371094 138.128906 314.371094 137.691406 C 314.371094 137.253906 314.015625 136.898438 313.578125 136.898438 L 299.769531 136.898438 C 299.332031 136.898438 298.976562 137.253906 298.976562 137.691406 C 298.976562 138.128906 299.332031 138.484375 299.769531 138.484375 Z M 329.9375 170.304688 C 329.660156 172.496094 327.664062 174.269531 325.472656 174.269531 L 267.519531 174.269531 C 265.332031 174.269531 263.777344 172.496094 264.054688 170.304688 L 271.710938 109.378906 C 271.984375 107.1875 273.984375 105.414062 276.171875 105.414062 L 334.125 105.414062 C 336.316406 105.414062 337.867188 107.1875 337.59375 109.378906 Z M 122.75 129.800781 L 122.015625 123.71875 C 121.300781 117.8125 123.042969 112.230469 126.382812 107.921875 L 93.914062 107.921875 L 93.914062 129.710938 C 93.914062 129.742188 93.90625 129.769531 93.90625 129.800781 Z M 87.261719 107.191406 L 79.40625 107.191406 L 79.40625 126.191406 L 87.261719 126.191406 Z M 75.421875 107.921875 L 75.421875 104.8125 L 67.570312 104.8125 L 67.570312 126.191406 L 75.421875 126.191406 Z M 63.585938 110.042969 L 55.734375 110.042969 L 55.734375 126.191406 L 63.585938 126.191406 Z M 51.746094 119.589844 L 43.894531 119.589844 L 43.894531 126.191406 L 51.746094 126.191406 Z M 39.910156 116.230469 L 32.058594 116.230469 L 32.058594 126.191406 L 39.910156 126.191406 Z M 120.148438 153.261719 L 0.625 153.261719 C 0.605469 153 0.582031 152.734375 0.566406 152.46875 L 120.371094 152.46875 L 122.542969 144.808594 C 123.476562 141.507812 123.746094 138.058594 123.335938 134.652344 L 122.847656 130.59375 L 93.804688 130.59375 C 93.402344 132.355469 91.832031 133.675781 89.949219 133.675781 L 31.445312 133.675781 C 29.558594 133.675781 27.988281 132.355469 27.585938 130.59375 L 0.855469 130.59375 C 0.878906 130.328125 0.910156 130.0625 0.9375 129.800781 L 27.492188 129.800781 C 27.492188 129.769531 27.480469 129.742188 27.480469 129.710938 L 27.480469 107.921875 L 5.078125 107.921875 C 5.152344 107.65625 5.238281 107.394531 5.3125 107.128906 L 27.480469 107.128906 L 27.480469 99.011719 C 27.480469 96.820312 29.253906 95.046875 31.445312 95.046875 L 89.949219 95.046875 C 92.136719 95.046875 93.914062 96.820312 93.914062 99.011719 L 93.914062 107.128906 L 127.03125 107.128906 C 130.960938 102.527344 136.804688 99.566406 143.417969 99.566406 C 149.941406 99.566406 155.839844 102.480469 159.8125 107.128906 L 180.679688 107.128906 L 180.59375 107.921875 L 160.457031 107.921875 C 162.851562 111.007812 164.433594 114.777344 164.859375 118.917969 L 165.074219 121.015625 L 169.589844 129.800781 L 178.171875 129.800781 L 178.082031 130.59375 L 169.882812 130.59375 C 169.898438 131.09375 169.585938 131.582031 169.0625 131.734375 L 167.292969 132.253906 C 166.773438 132.402344 166.4375 132.890625 166.476562 133.425781 C 166.75 136.957031 167.542969 149.535156 165.074219 150.863281 C 162.203125 152.414062 148.480469 149.636719 148.480469 149.636719 C 148.222656 150.574219 148.007812 151.519531 147.828125 152.46875 L 175.65625 152.46875 L 175.570312 153.261719 L 147.691406 153.261719 C 147.207031 156.203125 147.085938 159.191406 147.339844 162.160156 C 144.265625 161.109375 140.15625 159.5 133.765625 158.199219 C 127.640625 156.953125 121.734375 158.359375 118.386719 159.476562 Z M 102.171875 217.109375 C 101.195312 210.949219 99.910156 204.59375 98.304688 198.601562 L 98.308594 198.601562 C 98.28125 198.496094 98.253906 198.394531 98.222656 198.292969 C 97.648438 196.175781 97.035156 194.097656 96.378906 192.101562 C 94.183594 185.421875 96.269531 178.636719 100.816406 174.253906 C 100.597656 174.351562 100.375 174.4375 100.15625 174.546875 C 99.785156 174.730469 99.433594 174.933594 99.082031 175.136719 L 3.640625 175.136719 C 3.699219 175.402344 3.75 175.667969 3.804688 175.929688 L 97.863281 175.929688 C 91.007812 180.851562 88.796875 190.277344 93.035156 197.808594 L 9.882812 197.808594 C 9.972656 198.074219 10.054688 198.339844 10.148438 198.601562 L 93.476562 198.601562 Z M 176.511719 334.335938 C 179.746094 334.335938 182.988281 334.160156 186.234375 333.828125 L 165.496094 333.828125 C 169.15625 334.152344 172.828125 334.335938 176.511719 334.335938 Z M 132.085938 311.183594 C 131.320312 311.183594 130.570312 311.175781 129.832031 311.160156 L 100.121094 311.160156 C 100.558594 311.425781 101 311.683594 101.433594 311.953125 L 243.972656 311.953125 C 244.382812 311.6875 244.789062 311.421875 245.195312 311.160156 L 133.050781 311.160156 C 132.726562 311.160156 132.417969 311.183594 132.085938 311.183594 Z M 100.617188 288.488281 L 70.070312 288.488281 C 70.363281 288.753906 70.652344 289.015625 70.945312 289.28125 L 100.664062 289.28125 C 100.648438 289.015625 100.632812 288.753906 100.617188 288.488281 Z M 167.582031 289.28125 L 273.066406 289.28125 C 273.351562 289.015625 273.636719 288.753906 273.921875 288.488281 L 167.863281 288.488281 C 167.773438 288.746094 167.679688 289.007812 167.582031 289.28125 Z M 101.242188 265.816406 L 48.460938 265.816406 C 48.683594 266.085938 48.910156 266.34375 49.132812 266.609375 L 101.164062 266.609375 C 101.1875 266.34375 101.214844 266.082031 101.242188 265.816406 Z M 104.535156 243.148438 L 31.933594 243.148438 C 32.105469 243.414062 32.273438 243.675781 32.445312 243.941406 L 104.535156 243.941406 C 104.535156 243.683594 104.535156 243.417969 104.535156 243.148438 Z M 226.675781 254.519531 C 228.53125 254.820312 230.359375 255.109375 232.128906 255.378906 L 231.925781 255.066406 L 227.222656 254.066406 Z M 268.109375 265.816406 L 280.042969 265.816406 L 276.265625 263.1875 L 269.515625 264.726562 Z M 176.578125 220.476562 L 327.765625 220.476562 C 327.609375 220.742188 327.460938 221.007812 327.304688 221.269531 L 176.980469 221.269531 C 182.003906 231.003906 186.609375 239.09375 189.386719 243.148438 L 313.214844 243.148438 C 313.03125 243.414062 312.84375 243.675781 312.660156 243.941406 L 189.941406 243.941406 C 190.664062 244.941406 191.230469 245.601562 191.597656 245.84375 C 194.542969 247.808594 201.824219 249.777344 210.324219 251.542969 L 223.8125 246.453125 C 225.191406 245.933594 226.734375 246.109375 227.957031 246.929688 L 234.621094 251.382812 L 237.402344 256.164062 C 242.601562 256.917969 246.878906 257.480469 249.261719 257.785156 L 256.644531 257.503906 L 272.484375 252.03125 C 273.902344 251.542969 275.476562 251.765625 276.703125 252.640625 L 283.378906 257.378906 L 287.972656 265.816406 L 295.625 265.816406 C 295.398438 266.082031 295.171875 266.347656 294.945312 266.609375 L 288.402344 266.609375 L 288.554688 266.894531 C 288.851562 267.4375 288.628906 268.117188 288.066406 268.375 C 286.949219 268.296875 285.671875 267.738281 284.628906 266.960938 L 284.898438 268.785156 C 285.023438 269.617188 284.34375 270.355469 283.503906 270.292969 C 282.191406 270.199219 281.117188 269.226562 280.890625 267.933594 L 280.65625 266.609375 L 267.085938 266.609375 L 263.839844 269.125 C 262.3125 270.304688 260.53125 271.09375 258.652344 271.4375 C 257.429688 271.660156 256.167969 271.621094 254.9375 271.457031 L 247.445312 270.421875 L 191.6875 270.023438 C 184.957031 269.742188 180 268.464844 176.230469 266.609375 L 162.007812 266.609375 C 161.964844 266.484375 161.929688 266.355469 161.890625 266.226562 C 161.859375 266.121094 161.828125 266.015625 161.796875 265.90625 C 161.785156 265.878906 161.777344 265.847656 161.769531 265.816406 L 161.773438 265.816406 C 160.578125 261.773438 159.722656 257.578125 159.722656 253.875 C 159.722656 251.765625 160.035156 249.542969 160.542969 247.238281 C 160.671875 247.261719 160.804688 247.289062 160.9375 247.3125 L 152.574219 231.164062 C 152.136719 231.257812 151.6875 231.304688 151.226562 231.304688 C 147.066406 231.304688 142.960938 227.402344 139.875 221.269531 L 19.640625 221.269531 C 19.515625 221.007812 19.382812 220.746094 19.25 220.476562 L 139.488281 220.476562 C 137.226562 215.703125 135.5625 209.695312 134.925781 203.164062 C 134.414062 197.925781 134.628906 193.027344 135.417969 188.828125 C 135.355469 183.335938 136.835938 178.542969 140.929688 176.632812 C 141.257812 176.480469 141.589844 176.359375 141.917969 176.230469 C 143.089844 175.449219 144.363281 175.023438 145.730469 175.023438 C 146.289062 175.023438 146.84375 175.101562 147.394531 175.234375 C 152.886719 175.359375 157.769531 178.863281 160.082031 184.683594 C 164.707031 196.324219 170.882812 209.402344 176.570312 220.476562 Z M 170.542969 198.601562 L 170.628906 197.808594 L 167.460938 197.808594 C 167.550781 198.074219 167.640625 198.339844 167.726562 198.601562 Z M 173.144531 175.136719 L 157.621094 175.136719 C 157.710938 175.300781 157.800781 175.464844 157.886719 175.628906 C 157.933594 175.726562 157.988281 175.832031 158.039062 175.929688 L 173.058594 175.929688 Z M 359.121094 84.460938 L 14.683594 84.460938 C 14.542969 84.722656 14.402344 84.988281 14.261719 85.253906 L 359.3125 85.253906 C 359.246094 84.988281 359.183594 84.722656 359.121094 84.460938 " fill-opacity="1" fill-rule="nonzero"/></g><g clip-path="url(#02e469dac0)"><path fill="#393a3f" d="M 272.835938 245.59375 L 250.507812 245.660156 L 239.34375 245.699219 L 228.183594 245.808594 L 228.183594 246.167969 L 239.34375 246.277344 L 250.507812 246.316406 L 272.835938 246.382812 L 295.160156 246.300781 L 306.328125 246.257812 L 317.488281 246.140625 L 317.488281 245.839844 L 306.328125 245.722656 L 295.160156 245.675781 Z M 263.472656 70.03125 L 255.40625 70.03125 L 255.40625 70.824219 L 263.472656 70.824219 Z M 267.675781 68.179688 L 267.675781 67.386719 L 262.539062 67.386719 L 262.539062 68.179688 Z M 260.539062 67.386719 L 255.40625 67.386719 L 255.40625 68.179688 L 260.539062 68.179688 Z M 267.675781 64.742188 L 255.40625 64.742188 L 255.40625 65.535156 L 267.675781 65.535156 Z M 273.183594 9.535156 C 274.328125 9.535156 275.257812 8.605469 275.257812 7.460938 C 275.257812 6.316406 274.328125 5.386719 273.183594 5.386719 C 272.035156 5.386719 271.109375 6.316406 271.109375 7.460938 C 271.109375 8.605469 272.035156 9.535156 273.183594 9.535156 Z M 160.5 9.535156 C 161.644531 9.535156 162.574219 8.605469 162.574219 7.460938 C 162.574219 6.316406 161.644531 5.386719 160.5 5.386719 C 159.351562 5.386719 158.425781 6.316406 158.425781 7.460938 C 158.425781 8.605469 159.351562 9.535156 160.5 9.535156 Z M 79.5 71.75 L 71.429688 71.75 L 71.429688 72.542969 L 79.5 72.542969 Z M 83.703125 69.898438 L 83.703125 69.105469 L 78.566406 69.105469 L 78.566406 69.898438 Z M 76.566406 69.105469 L 71.429688 69.105469 L 71.429688 69.898438 L 76.566406 69.898438 Z M 83.703125 66.460938 L 71.429688 66.460938 L 71.429688 67.253906 L 83.703125 67.253906 Z M 50.335938 9.535156 C 51.476562 9.535156 52.40625 8.605469 52.40625 7.460938 C 52.40625 6.316406 51.476562 5.386719 50.335938 5.386719 C 49.191406 5.386719 48.261719 6.316406 48.261719 7.460938 C 48.261719 8.605469 49.191406 9.535156 50.335938 9.535156 Z M 35.585938 130 L 36.378906 130 L 36.378906 129.152344 L 47.425781 129.152344 L 47.425781 130 L 48.21875 130 L 48.21875 129.152344 L 59.261719 129.152344 L 59.261719 130 L 60.054688 130 L 60.054688 129.152344 L 71.101562 129.152344 L 71.101562 130 L 71.894531 130 L 71.894531 129.152344 L 82.9375 129.152344 L 82.9375 130 L 83.730469 130 L 83.730469 129.152344 L 87.335938 129.152344 L 87.335938 128.359375 L 83.730469 128.359375 L 83.730469 127.515625 L 82.9375 127.515625 L 82.9375 128.359375 L 71.894531 128.359375 L 71.894531 127.515625 L 71.101562 127.515625 L 71.101562 128.359375 L 60.054688 128.359375 L 60.054688 127.515625 L 59.261719 127.515625 L 59.261719 128.359375 L 48.21875 128.359375 L 48.21875 127.515625 L 47.425781 127.515625 L 47.425781 128.359375 L 36.378906 128.359375 L 36.378906 127.515625 L 35.585938 127.515625 L 35.585938 128.359375 L 32.058594 128.359375 L 32.058594 129.152344 L 35.585938 129.152344 Z M 292.929688 99.566406 C 292.929688 99.128906 292.574219 98.773438 292.136719 98.773438 L 189.730469 98.773438 C 189.289062 98.773438 188.9375 99.128906 188.9375 99.566406 C 188.9375 100.003906 189.289062 100.359375 189.730469 100.359375 L 292.136719 100.359375 C 292.574219 100.359375 292.929688 100.003906 292.929688 99.566406 Z M 269.773438 212.332031 L 264.488281 212.332031 C 264.046875 212.332031 263.695312 212.6875 263.695312 213.125 C 263.695312 213.566406 264.046875 213.917969 264.488281 213.917969 L 269.773438 213.917969 C 270.210938 213.917969 270.566406 213.566406 270.566406 213.125 C 270.566406 212.6875 270.210938 212.332031 269.773438 212.332031 Z M 271.214844 207.945312 C 271.214844 207.507812 270.859375 207.152344 270.421875 207.152344 L 265.136719 207.152344 C 264.703125 207.152344 264.34375 207.507812 264.34375 207.945312 C 264.34375 208.382812 264.703125 208.738281 265.136719 208.738281 L 270.421875 208.738281 C 270.859375 208.738281 271.214844 208.382812 271.214844 207.945312 Z M 272.515625 197.582031 C 272.515625 197.148438 272.164062 196.789062 271.722656 196.789062 L 266.4375 196.789062 C 266.003906 196.789062 265.644531 197.148438 265.644531 197.582031 C 265.644531 198.023438 266.003906 198.375 266.4375 198.375 L 271.722656 198.375 C 272.164062 198.375 272.515625 198.023438 272.515625 197.582031 Z M 273.167969 192.40625 C 273.167969 191.96875 272.8125 191.613281 272.375 191.613281 L 267.09375 191.613281 C 266.652344 191.613281 266.300781 191.96875 266.300781 192.40625 C 266.300781 192.839844 266.652344 193.199219 267.09375 193.199219 L 272.375 193.199219 C 272.8125 193.199219 273.167969 192.839844 273.167969 192.40625 Z M 273.820312 187.226562 C 273.820312 186.785156 273.464844 186.433594 273.027344 186.433594 L 267.742188 186.433594 C 267.304688 186.433594 266.949219 186.785156 266.949219 187.226562 C 266.949219 187.664062 267.304688 188.019531 267.742188 188.019531 L 273.027344 188.019531 C 273.464844 188.019531 273.820312 187.664062 273.820312 187.226562 Z M 198.660156 184.164062 C 198.582031 184.808594 199.039062 185.335938 199.6875 185.335938 C 200.332031 185.335938 200.925781 184.808594 201.003906 184.164062 C 201.089844 183.515625 200.632812 182.988281 199.980469 182.988281 C 199.332031 182.988281 198.746094 183.515625 198.660156 184.164062 Z M 208.222656 111.191406 C 208.144531 111.839844 208.601562 112.363281 209.25 112.363281 C 209.894531 112.363281 210.488281 111.839844 210.566406 111.191406 C 210.648438 110.546875 210.191406 110.019531 209.542969 110.019531 C 208.894531 110.019531 208.304688 110.546875 208.222656 111.191406 Z M 219.957031 139.050781 C 219.519531 139.050781 219.164062 139.402344 219.164062 139.84375 C 219.164062 140.277344 219.519531 140.632812 219.957031 140.632812 L 229.667969 140.632812 C 230.105469 140.632812 230.460938 140.277344 230.460938 139.84375 C 230.460938 139.402344 230.105469 139.050781 229.667969 139.050781 Z M 276.789062 163.589844 C 276.789062 163.15625 276.433594 162.796875 275.996094 162.796875 L 270.710938 162.796875 C 270.273438 162.796875 269.917969 163.15625 269.917969 163.589844 C 269.917969 164.03125 270.273438 164.382812 270.710938 164.382812 L 275.996094 164.382812 C 276.433594 164.382812 276.789062 164.03125 276.789062 163.589844 Z M 277.441406 158.414062 C 277.441406 157.972656 277.085938 157.621094 276.648438 157.621094 L 271.363281 157.621094 C 270.925781 157.621094 270.570312 157.972656 270.570312 158.414062 C 270.570312 158.847656 270.925781 159.207031 271.363281 159.207031 L 276.648438 159.207031 C 277.085938 159.207031 277.441406 158.847656 277.441406 158.414062 Z M 278.089844 153.230469 C 278.089844 152.792969 277.734375 152.4375 277.296875 152.4375 L 272.011719 152.4375 C 271.574219 152.4375 271.21875 152.792969 271.21875 153.230469 C 271.21875 153.671875 271.574219 154.023438 272.011719 154.023438 L 277.296875 154.023438 C 277.734375 154.023438 278.089844 153.671875 278.089844 153.230469 Z M 278.742188 148.050781 C 278.742188 147.613281 278.386719 147.257812 277.949219 147.257812 L 272.664062 147.257812 C 272.226562 147.257812 271.871094 147.613281 271.871094 148.050781 C 271.871094 148.488281 272.226562 148.84375 272.664062 148.84375 L 277.949219 148.84375 C 278.386719 148.84375 278.742188 148.488281 278.742188 148.050781 Z M 280.042969 137.691406 C 280.042969 137.253906 279.6875 136.898438 279.25 136.898438 L 273.964844 136.898438 C 273.53125 136.898438 273.171875 137.253906 273.171875 137.691406 C 273.171875 138.128906 273.53125 138.484375 273.964844 138.484375 L 279.25 138.484375 C 279.6875 138.484375 280.042969 138.128906 280.042969 137.691406 Z M 280.695312 132.511719 C 280.695312 132.074219 280.339844 131.71875 279.902344 131.71875 L 274.617188 131.71875 C 274.179688 131.71875 273.824219 132.074219 273.824219 132.511719 C 273.824219 132.949219 274.179688 133.304688 274.617188 133.304688 L 279.902344 133.304688 C 280.339844 133.304688 280.695312 132.949219 280.695312 132.511719 Z M 281.34375 127.332031 C 281.34375 126.890625 280.992188 126.539062 280.550781 126.539062 L 275.269531 126.539062 C 274.828125 126.539062 274.476562 126.890625 274.476562 127.332031 C 274.476562 127.769531 274.828125 128.125 275.269531 128.125 L 280.550781 128.125 C 280.992188 128.125 281.34375 127.769531 281.34375 127.332031 Z M 281.996094 122.152344 C 281.996094 121.714844 281.640625 121.359375 281.203125 121.359375 L 275.917969 121.359375 C 275.480469 121.359375 275.128906 121.714844 275.128906 122.152344 C 275.128906 122.585938 275.480469 122.945312 275.917969 122.945312 L 281.203125 122.945312 C 281.640625 122.945312 281.996094 122.585938 281.996094 122.152344 Z M 282.644531 116.96875 C 282.644531 116.53125 282.292969 116.175781 281.851562 116.175781 L 276.570312 116.175781 C 276.132812 116.175781 275.777344 116.53125 275.777344 116.96875 C 275.777344 117.410156 276.132812 117.761719 276.570312 117.761719 L 281.851562 117.761719 C 282.292969 117.761719 282.644531 117.410156 282.644531 116.96875 Z M 161.191406 120.6875 L 164.921875 120.503906 C 165.101562 118.328125 165.730469 116.324219 166.761719 115.816406 C 165.664062 115.703125 164.597656 115.734375 163.789062 116.089844 C 163.734375 113.339844 162.648438 111.875 161.964844 110.144531 C 161.953125 112.121094 162.492188 111.515625 162.285156 114.164062 C 162.171875 115.628906 162.46875 117.136719 162.125 118.566406 C 161.945312 119.324219 161.59375 120.015625 161.191406 120.6875 Z M 165.714844 120.460938 L 168.820312 120.308594 C 168.585938 117.933594 167.828125 116.484375 167.277344 116.484375 C 166.714844 116.484375 165.933594 118 165.714844 120.460938 Z M 168.878906 121.097656 L 165.664062 121.257812 C 165.65625 121.445312 165.65625 121.632812 165.65625 121.828125 C 165.65625 125.089844 166.613281 127.171875 167.277344 127.171875 C 167.9375 127.171875 168.898438 125.089844 168.898438 121.828125 C 168.898438 121.578125 168.890625 121.335938 168.878906 121.097656 Z M 94.136719 152.96875 C 93.277344 147.300781 94.929688 141.296875 98.574219 136.875 C 99.910156 135.25 101.558594 133.710938 101.972656 131.652344 C 102.390625 129.527344 101.386719 127.414062 100.925781 125.300781 C 100.046875 121.261719 101.296875 116.820312 104.152344 113.832031 C 106.339844 111.539062 109.371094 110.082031 111.21875 107.507812 C 112.769531 105.347656 113.316406 102.652344 114.378906 100.21875 C 117.359375 93.394531 124.898438 88.847656 132.324219 89.402344 C 134.390625 86.828125 138.382812 85.625 141.628906 86.199219 C 144.875 86.769531 147.761719 88.613281 150.285156 90.730469 C 158.226562 89.515625 168.207031 97.09375 170.984375 116.757812 C 170.238281 116.535156 169.195312 116.238281 168.101562 116.019531 C 169.136719 116.902344 169.691406 119.429688 169.691406 121.828125 C 169.691406 124.800781 168.84375 127.964844 167.277344 127.964844 C 165.707031 127.964844 164.863281 124.800781 164.863281 121.828125 C 164.863281 121.652344 164.863281 121.476562 164.871094 121.296875 L 163.074219 121.386719 C 163.417969 121.570312 163.675781 122.25 163.675781 123.0625 C 163.675781 124.019531 163.324219 124.792969 162.890625 124.792969 C 162.453125 124.792969 162.101562 124.019531 162.101562 123.0625 C 162.101562 122.273438 162.34375 121.613281 162.671875 121.40625 L 160.683594 121.507812 C 160.214844 122.246094 159.738281 122.988281 159.414062 123.796875 C 157.945312 127.519531 160.027344 131.738281 159.441406 135.699219 C 159.074219 138.183594 157.683594 140.386719 156.933594 142.785156 C 155.867188 146.183594 156.617188 150.890625 158.179688 154.09375 L 147.179688 154.09375 C 146.492188 151.5 145.609375 149.148438 145.507812 146.46875 C 144.777344 149.273438 144.457031 151.828125 144.210938 154.71875 C 142.859375 151.0625 141.964844 147.507812 141.875 143.613281 C 141.488281 146.730469 141.355469 149.847656 140.96875 152.96875 Z M 168.46875 259.972656 C 169.6875 261.503906 171.019531 262.949219 172.480469 264.265625 C 173.933594 265.585938 175.546875 266.757812 177.328125 267.65625 C 178.222656 268.085938 179.167969 268.433594 180.140625 268.675781 C 181.132812 268.894531 182.089844 269 183.054688 269.136719 C 184.984375 269.378906 186.917969 269.621094 188.851562 269.796875 C 192.726562 270.164062 196.609375 270.40625 200.5 270.476562 C 200.597656 270.476562 200.679688 270.402344 200.683594 270.304688 C 200.691406 270.207031 200.613281 270.125 200.511719 270.117188 C 198.578125 270.007812 196.644531 269.851562 194.714844 269.675781 C 192.78125 269.507812 190.851562 269.316406 188.925781 269.097656 C 187 268.867188 185.074219 268.648438 183.15625 268.382812 C 182.199219 268.242188 181.222656 268.125 180.320312 267.921875 C 179.410156 267.6875 178.527344 267.355469 177.675781 266.941406 C 174.257812 265.25 171.453125 262.484375 168.984375 259.550781 C 167.746094 258.070312 166.597656 256.515625 165.519531 254.910156 C 164.429688 253.3125 163.402344 251.664062 162.484375 249.964844 L 162.480469 249.960938 C 162.441406 249.890625 162.355469 249.863281 162.28125 249.898438 C 162.203125 249.9375 162.175781 250.027344 162.210938 250.101562 C 163.945312 253.597656 166.027344 256.914062 168.46875 259.972656 Z M 141.9375 212.046875 C 141.5 211.785156 141.09375 211.476562 140.703125 211.144531 C 140.316406 210.808594 139.960938 210.425781 139.605469 210.027344 C 139.5625 209.980469 139.492188 209.964844 139.429688 209.988281 C 139.355469 210.019531 139.3125 210.109375 139.34375 210.1875 C 139.757812 211.226562 140.5625 212.117188 141.519531 212.71875 C 142 213.019531 142.511719 213.265625 143.042969 213.433594 C 143.492188 213.574219 143.949219 213.671875 144.410156 213.730469 C 145.9375 217.207031 147.523438 220.660156 149.117188 224.109375 C 150.9375 227.941406 152.769531 231.769531 154.652344 235.574219 C 156.539062 239.378906 158.460938 243.160156 160.472656 246.902344 C 160.515625 246.988281 160.625 247.019531 160.710938 246.976562 C 160.800781 246.933594 160.835938 246.824219 160.792969 246.734375 C 159.855469 244.835938 158.941406 242.921875 158.03125 241.007812 L 155.285156 235.265625 L 149.832031 223.769531 C 148.011719 219.941406 146.234375 216.089844 144.476562 212.234375 C 143.597656 210.304688 142.742188 208.363281 141.90625 206.417969 C 141.085938 204.472656 140.234375 202.519531 139.621094 200.507812 L 139.617188 200.496094 C 139.59375 200.421875 139.511719 200.378906 139.429688 200.398438 C 139.351562 200.421875 139.304688 200.503906 139.328125 200.585938 C 140.503906 204.695312 142.203125 208.597656 143.863281 212.503906 C 143.960938 212.71875 144.058594 212.9375 144.15625 213.152344 C 143.867188 213.027344 143.578125 212.910156 143.300781 212.777344 C 142.832031 212.550781 142.371094 212.320312 141.9375 212.046875 Z M 162.742188 136.761719 C 163.042969 136.953125 163.382812 137.074219 163.726562 137.15625 C 164.070312 137.226562 164.421875 137.257812 164.769531 137.226562 C 164.941406 137.210938 165.109375 137.179688 165.28125 137.152344 C 165.445312 137.105469 165.609375 137.058594 165.769531 136.996094 C 165.820312 136.972656 165.855469 136.925781 165.863281 136.875 C 165.878906 136.789062 165.820312 136.707031 165.730469 136.695312 C 165.078125 136.59375 164.480469 136.523438 163.902344 136.386719 C 163.613281 136.316406 163.335938 136.226562 163.054688 136.132812 C 162.777344 136.035156 162.496094 135.902344 162.234375 135.773438 L 162.203125 135.757812 C 162.148438 135.730469 162.085938 135.730469 162.03125 135.765625 C 161.945312 135.816406 161.917969 135.925781 161.964844 136.011719 C 162.164062 136.347656 162.441406 136.566406 162.742188 136.761719 Z M 326.757812 271.347656 L 313.03125 250.703125 L 313.03125 250.523438 L 303.101562 250.414062 L 293.175781 250.378906 L 273.320312 250.308594 L 253.460938 250.394531 L 243.535156 250.4375 L 233.605469 250.550781 L 233.605469 250.855469 L 233.835938 250.859375 L 234.621094 251.382812 L 237.25 255.902344 L 232.621094 255.246094 C 232.648438 255.230469 232.679688 255.222656 232.707031 255.207031 C 232.886719 255.117188 233.039062 254.980469 233.175781 254.835938 C 233.300781 254.679688 233.414062 254.511719 233.484375 254.324219 C 233.550781 254.136719 233.597656 253.9375 233.578125 253.726562 C 233.570312 253.691406 233.554688 253.648438 233.53125 253.617188 C 233.460938 253.535156 233.332031 253.527344 233.25 253.597656 L 233.238281 253.601562 C 233.09375 253.726562 232.988281 253.851562 232.875 253.96875 C 232.765625 254.082031 232.671875 254.203125 232.574219 254.320312 C 232.476562 254.441406 232.375 254.558594 232.28125 254.691406 C 232.183594 254.820312 232.082031 254.949219 231.980469 255.113281 L 231.976562 255.121094 C 231.976562 255.125 231.976562 255.128906 231.972656 255.136719 L 231.925781 255.066406 L 227.363281 254.097656 C 227.390625 253.988281 227.421875 253.878906 227.441406 253.769531 C 227.523438 253.390625 227.546875 253.003906 227.546875 252.613281 C 227.539062 252.226562 227.507812 251.835938 227.421875 251.460938 C 227.339844 251.082031 227.230469 250.707031 227.050781 250.359375 C 227.019531 250.300781 226.957031 250.261719 226.886719 250.261719 C 226.785156 250.257812 226.699219 250.339844 226.699219 250.445312 C 226.695312 250.820312 226.714844 251.183594 226.722656 251.546875 L 226.753906 252.628906 L 226.777344 253.707031 C 226.78125 253.941406 226.785156 254.179688 226.789062 254.414062 L 224.511719 254.089844 C 216.59375 252.902344 208.667969 251.699219 200.816406 250.148438 C 198.859375 249.757812 196.894531 249.363281 195 248.804688 C 194.539062 248.660156 194.0625 248.503906 193.664062 248.300781 C 193.449219 248.183594 193.414062 248.15625 193.253906 247.902344 L 192.851562 247.296875 C 192.328125 246.449219 191.804688 245.597656 191.292969 244.734375 C 189.242188 241.296875 187.234375 237.824219 185.234375 234.355469 L 178.140625 222.039062 L 262.820312 222.039062 L 267.484375 239.878906 L 301.085938 239.878906 L 296.425781 222.039062 L 347.445312 222.039062 C 352.425781 222.039062 356.605469 218.292969 357.152344 213.347656 L 369.429688 102.574219 C 370.070312 96.789062 365.542969 91.730469 359.722656 91.730469 L 187.796875 91.730469 C 182.816406 91.730469 178.636719 95.472656 178.089844 100.421875 L 167.335938 197.453125 C 168.351562 200.421875 169.1875 203.320312 169.726562 205.980469 L 181.382812 100.789062 C 181.746094 97.515625 184.503906 95.046875 187.796875 95.046875 L 359.722656 95.046875 C 361.582031 95.046875 363.289062 95.8125 364.527344 97.195312 C 365.769531 98.582031 366.339844 100.363281 366.136719 102.210938 L 353.859375 212.984375 C 353.496094 216.253906 350.738281 218.722656 347.445312 218.722656 L 269.777344 218.722656 C 269.855469 218.601562 269.914062 218.460938 269.914062 218.308594 C 269.914062 217.867188 269.558594 217.515625 269.121094 217.515625 L 263.835938 217.515625 C 263.398438 217.515625 263.046875 217.867188 263.046875 218.308594 C 263.046875 218.460938 263.101562 218.601562 263.179688 218.722656 L 176.230469 218.722656 L 173.230469 213.515625 C 173.191406 213.449219 173.101562 213.417969 173.027344 213.460938 C 172.957031 213.5 172.929688 213.59375 172.96875 213.667969 L 175.765625 218.722656 L 175.675781 218.722656 C 176.246094 219.847656 176.816406 220.953125 177.378906 222.039062 L 177.59375 222.039062 L 178.78125 224.191406 L 184.695312 234.667969 C 186.675781 238.152344 188.65625 241.636719 190.6875 245.09375 C 191.191406 245.960938 191.710938 246.824219 192.238281 247.683594 L 192.65625 248.328125 C 192.746094 248.445312 192.753906 248.519531 192.925781 248.679688 C 193.066406 248.820312 193.1875 248.875 193.3125 248.949219 C 193.808594 249.207031 194.292969 249.363281 194.78125 249.519531 C 196.730469 250.109375 198.695312 250.519531 200.664062 250.921875 C 208.550781 252.441406 216.488281 253.59375 224.421875 254.738281 L 236.335938 256.371094 L 248.269531 257.835938 C 248.363281 257.847656 248.457031 257.777344 248.46875 257.683594 C 248.484375 257.582031 248.410156 257.492188 248.316406 257.480469 L 243.90625 256.851562 L 247.804688 250.988281 L 253.460938 251.011719 L 273.320312 251.097656 L 293.175781 251.027344 L 303.101562 250.996094 L 307.902344 250.9375 L 321.472656 271.347656 L 316.445312 271.347656 L 309.242188 263.195312 L 305.921875 265.378906 L 312.074219 271.347656 L 292.128906 271.347656 L 310.265625 259.835938 L 284.714844 259.835938 L 288.554688 266.894531 C 288.851562 267.4375 288.628906 268.117188 288.066406 268.375 C 287.03125 268.300781 285.855469 267.808594 284.859375 267.121094 C 284.859375 267.09375 284.867188 267.074219 284.859375 267.054688 C 284.433594 266.046875 284.421875 264.9375 284.285156 263.792969 C 284.222656 263.214844 284.101562 262.628906 283.875 262.058594 C 283.648438 261.488281 283.328125 260.972656 282.953125 260.503906 C 282.179688 259.589844 281.25 258.867188 280.3125 258.230469 C 279.375 257.585938 278.4375 256.980469 277.59375 256.246094 C 277.542969 256.195312 277.457031 256.191406 277.398438 256.242188 C 277.335938 256.292969 277.324219 256.386719 277.378906 256.453125 C 278.109375 257.359375 279.035156 258.070312 279.917969 258.769531 C 280.800781 259.464844 281.675781 260.152344 282.339844 261.003906 C 282.675781 261.417969 282.96875 261.863281 283.171875 262.34375 C 283.382812 262.824219 283.480469 263.351562 283.59375 263.894531 C 283.757812 264.777344 283.859375 265.753906 284.242188 266.640625 C 283.757812 266.222656 283.335938 265.765625 283.046875 265.285156 L 280.519531 261.0625 L 276.03125 259.976562 C 276.023438 259.964844 276.015625 259.953125 276.007812 259.941406 C 275.964844 259.894531 275.902344 259.871094 275.839844 259.894531 C 275.824219 259.898438 275.816406 259.914062 275.804688 259.921875 L 275.746094 259.910156 L 269.429688 264.796875 C 269.4375 264.757812 269.441406 264.726562 269.445312 264.691406 C 269.480469 264.359375 269.460938 264.027344 269.410156 263.699219 C 269.355469 263.371094 269.269531 263.050781 269.132812 262.746094 C 268.996094 262.445312 268.832031 262.15625 268.605469 261.90625 C 268.5625 261.863281 268.496094 261.839844 268.4375 261.851562 C 268.332031 261.867188 268.265625 261.964844 268.285156 262.066406 C 268.332031 262.378906 268.40625 262.671875 268.464844 262.960938 C 268.515625 263.257812 268.585938 263.542969 268.632812 263.832031 C 268.691406 264.121094 268.726562 264.414062 268.777344 264.707031 C 268.804688 264.878906 268.832031 265.058594 268.859375 265.238281 L 263.839844 269.125 C 262.414062 270.226562 260.761719 270.96875 259.023438 271.347656 L 254.144531 271.347656 L 247.964844 270.492188 C 248.34375 270.15625 248.683594 269.761719 248.921875 269.296875 C 249.230469 268.730469 249.375 268.0625 249.277344 267.433594 C 249.265625 267.359375 249.203125 267.296875 249.125 267.285156 C 249.023438 267.269531 248.933594 267.339844 248.917969 267.4375 C 248.835938 267.996094 248.636719 268.5 248.335938 268.945312 C 248.203125 269.125 248.050781 269.296875 247.898438 269.464844 C 247.886719 269.097656 247.839844 268.738281 247.753906 268.386719 C 247.589844 267.703125 247.304688 267.054688 246.878906 266.515625 C 246.839844 266.460938 246.765625 266.441406 246.707031 266.464844 C 246.625 266.496094 246.585938 266.582031 246.617188 266.664062 C 246.84375 267.273438 247.011719 267.882812 247.082031 268.507812 C 247.15625 269.128906 247.152344 269.75 247.054688 270.359375 C 247.050781 270.378906 247.058594 270.398438 247.058594 270.421875 L 204.480469 270.113281 L 202.617188 271.347656 L 163.609375 271.347656 C 163.710938 271.613281 163.808594 271.875 163.90625 272.140625 L 369.492188 272.140625 L 369.492188 271.347656 Z M 46.011719 271.347656 L 46.011719 272.140625 L 134.648438 272.140625 C 140.019531 272.140625 141.566406 271.347656 141.566406 271.347656 C 142.265625 271.15625 142.933594 270.902344 143.566406 270.59375 C 148.117188 268.367188 150.855469 263.1875 149.558594 257.847656 L 134.390625 195.421875 C 133.164062 190.378906 128.652344 186.832031 123.46875 186.832031 L 38.722656 186.832031 C 31.445312 186.832031 26.085938 193.652344 27.804688 200.730469 L 42.972656 263.15625 C 43.957031 267.207031 47.070312 270.289062 50.949219 271.347656 Z M 169.066406 283.726562 C 169.066406 283.726562 169.046875 283.871094 169.003906 284.121094 L 169.007812 284.121094 C 168.453125 287.433594 163.40625 311.183594 132.085938 311.183594 C 120.621094 311.183594 112.332031 309.289062 107.71875 307.859375 C 109.355469 317.238281 117.53125 324.367188 127.375 324.367188 L 187.625 324.367188 C 202.542969 324.367188 217.097656 318.152344 217.097656 318.152344 L 212.417969 345.886719 L 243.136719 345.886719 C 243.136719 345.886719 246.691406 318.152344 248.222656 299.542969 C 249.121094 288.648438 241.097656 285.152344 234.292969 284.121094 L 289.554688 284.121094 L 285.964844 315.023438 L 297.320312 316.90625 L 301.128906 284.121094 L 342.027344 284.121094 L 346.785156 325.105469 L 358.585938 327.058594 L 353.605469 284.121094 L 369.492188 284.121094 L 369.492188 283.328125 L 168.863281 283.328125 C 168.992188 283.585938 169.066406 283.726562 169.066406 283.726562 Z M 100.449219 283.328125 L 46.011719 283.328125 L 46.011719 284.121094 L 72.199219 284.121094 C 72.175781 284.242188 72.1875 284.363281 72.152344 284.480469 L 72.046875 285.28125 C 71.96875 285.8125 71.9375 286.351562 71.886719 286.890625 L 71.796875 288.503906 L 71.753906 289.308594 L 71.730469 289.714844 C 71.742188 289.851562 71.640625 289.972656 71.898438 290.136719 C 72.191406 290.035156 72.117188 289.894531 72.160156 289.761719 L 72.234375 289.363281 L 72.375 288.566406 L 72.660156 286.980469 C 72.730469 286.441406 72.824219 285.914062 72.871094 285.378906 L 72.953125 284.574219 C 72.941406 284.421875 73.007812 284.277344 72.980469 284.121094 L 100.460938 284.121094 C 100.453125 283.859375 100.449219 283.597656 100.449219 283.328125 Z M 235.105469 111.1875 C 235.105469 110.753906 234.75 110.398438 234.3125 110.398438 L 222.511719 110.398438 C 222.074219 110.398438 221.71875 110.753906 221.71875 111.1875 C 221.71875 111.628906 222.074219 111.980469 222.511719 111.980469 L 234.3125 111.980469 C 234.75 111.980469 235.105469 111.628906 235.105469 111.1875 Z M 203.785156 111.191406 C 203.703125 111.839844 204.160156 112.363281 204.808594 112.363281 C 205.457031 112.363281 206.046875 111.839844 206.128906 111.191406 C 206.210938 110.546875 205.753906 110.019531 205.101562 110.019531 C 204.457031 110.019531 203.867188 110.546875 203.785156 111.191406 Z M 200.371094 112.363281 C 199.722656 112.363281 199.261719 111.839844 199.347656 111.191406 C 199.425781 110.546875 200.019531 110.019531 200.664062 110.019531 C 201.3125 110.019531 201.769531 110.546875 201.691406 111.191406 C 201.609375 111.839844 201.019531 112.363281 200.371094 112.363281 " fill-opacity="1" fill-rule="nonzero"/></g><g clip-path="url(#d4b7b84749)"><path fill="#777b85" d="M 311.378906 239.878906 L 304.996094 239.878906 L 300.335938 222.039062 L 296.425781 222.039062 L 301.085938 239.878906 L 234.289062 239.878906 C 230.917969 239.878906 228.183594 242.613281 228.183594 245.988281 L 317.488281 245.988281 C 317.488281 242.613281 314.753906 239.878906 311.378906 239.878906 Z M 95.363281 239.460938 L 82.203125 239.460938 C 81.363281 239.460938 80.648438 240.09375 80.554688 240.929688 L 69.898438 333.277344 C 69.789062 334.261719 70.558594 335.128906 71.550781 335.128906 L 84.710938 335.128906 C 85.554688 335.128906 86.261719 334.496094 86.363281 333.65625 L 97.015625 241.3125 C 97.128906 240.324219 96.355469 239.460938 95.363281 239.460938 Z M 291.53125 271.726562 L 296.871094 271.726562 L 309.03125 263.730469 L 316.097656 271.726562 L 320.042969 271.726562 L 310.265625 259.835938 Z M 364.957031 91.730469 L 359.722656 91.730469 C 365.542969 91.730469 370.070312 96.789062 369.429688 102.574219 L 357.152344 213.347656 C 356.605469 218.292969 352.425781 222.039062 347.445312 222.039062 L 352.679688 222.039062 C 357.65625 222.039062 361.839844 218.292969 362.386719 213.347656 L 374.664062 102.574219 C 375.304688 96.789062 370.773438 91.730469 364.957031 91.730469 Z M 235.105469 111.1875 C 235.105469 110.753906 234.75 110.398438 234.3125 110.398438 L 222.511719 110.398438 C 222.074219 110.398438 221.71875 110.753906 221.71875 111.1875 C 221.71875 111.628906 222.074219 111.980469 222.511719 111.980469 L 234.3125 111.980469 C 234.75 111.980469 235.105469 111.628906 235.105469 111.1875 Z M 205.101562 110.019531 C 204.457031 110.019531 203.867188 110.546875 203.785156 111.191406 C 203.703125 111.839844 204.160156 112.363281 204.808594 112.363281 C 205.457031 112.363281 206.046875 111.839844 206.128906 111.191406 C 206.210938 110.546875 205.753906 110.019531 205.101562 110.019531 Z M 200.664062 110.019531 C 200.019531 110.019531 199.425781 110.546875 199.347656 111.191406 C 199.261719 111.839844 199.722656 112.363281 200.371094 112.363281 C 201.019531 112.363281 201.609375 111.839844 201.691406 111.191406 C 201.769531 110.546875 201.3125 110.019531 200.664062 110.019531 Z M 210.566406 111.191406 C 210.488281 111.839844 209.894531 112.363281 209.25 112.363281 C 208.601562 112.363281 208.144531 111.839844 208.222656 111.191406 C 208.304688 110.546875 208.894531 110.019531 209.542969 110.019531 C 210.191406 110.019531 210.648438 110.546875 210.566406 111.191406 " fill-opacity="1" fill-rule="nonzero"/></g></svg>