<svg xmlns="http://www.w3.org/2000/svg" xmlns:xlink="http://www.w3.org/1999/xlink" width="500" zoomAndPan="magnify" viewBox="0 0 375 374.999991" height="500" preserveAspectRatio="xMidYMid meet" version="1.0"><defs><clipPath id="c23ea494e3"><path d="M 34 182 L 341 182 L 341 362.027344 L 34 362.027344 Z M 34 182 " clip-rule="nonzero"/></clipPath></defs><path fill="#99aab5" d="M 42.15625 202.613281 L 63.644531 170.734375 L 92.292969 199.429688 L 130.492188 180.300781 L 159.140625 208.992188 L 197.339844 151.605469 L 235.539062 180.300781 L 264.1875 170.734375 L 283.289062 199.429688 L 311.9375 170.734375 L 331.039062 208.992188 L 311.9375 275.945312 L 206.890625 323.769531 L 101.84375 304.640625 L 44.546875 247.25 Z M 42.15625 202.613281 " fill-opacity="1" fill-rule="nonzero"/><path fill="#ffcc4d" d="M 301.96875 158.414062 C 302.167969 155.671875 302.386719 152.925781 302.386719 150.132812 C 302.386719 93.289062 261.09375 46.222656 206.929688 37.089844 C 218.285156 34.601562 226.324219 32.21875 216.441406 27.265625 C 205.792969 21.929688 195.144531 28.5 187.800781 35.359375 L 187.78125 35.359375 C 180.4375 28.5 169.800781 21.929688 159.140625 27.265625 C 149.257812 32.21875 157.300781 34.601562 168.652344 37.078125 C 114.496094 46.214844 73.195312 93.28125 73.195312 150.132812 C 73.195312 152.925781 73.414062 155.671875 73.613281 158.425781 C 69.011719 221.550781 13.421875 314.203125 187.792969 314.203125 C 362.160156 314.203125 306.570312 221.550781 301.96875 158.414062 Z M 301.96875 158.414062 " fill-opacity="1" fill-rule="nonzero"/><path fill="#f4900c" d="M 216.441406 151.605469 C 216.441406 167.453125 203.613281 170.734375 187.792969 170.734375 C 171.96875 170.734375 159.140625 167.453125 159.140625 151.605469 C 159.140625 135.757812 171.96875 122.910156 187.792969 122.910156 C 203.613281 122.910156 216.441406 135.757812 216.441406 151.605469 Z M 216.441406 151.605469 " fill-opacity="1" fill-rule="nonzero"/><path fill="#662113" d="M 140.042969 127.695312 C 140.042969 128.636719 139.949219 129.570312 139.765625 130.492188 C 139.582031 131.417969 139.3125 132.3125 138.953125 133.183594 C 138.59375 134.054688 138.152344 134.882812 137.628906 135.664062 C 137.105469 136.449219 136.511719 137.171875 135.847656 137.839844 C 135.183594 138.503906 134.457031 139.101562 133.675781 139.625 C 132.894531 140.148438 132.070312 140.589844 131.199219 140.949219 C 130.332031 141.308594 129.433594 141.582031 128.511719 141.765625 C 127.589844 141.949219 126.660156 142.042969 125.71875 142.042969 C 124.777344 142.042969 123.847656 141.949219 122.921875 141.765625 C 122 141.582031 121.105469 141.308594 120.234375 140.949219 C 119.367188 140.589844 118.542969 140.148438 117.757812 139.625 C 116.976562 139.101562 116.253906 138.503906 115.589844 137.839844 C 114.921875 137.171875 114.328125 136.449219 113.808594 135.664062 C 113.285156 134.882812 112.84375 134.054688 112.484375 133.183594 C 112.125 132.3125 111.851562 131.417969 111.667969 130.492188 C 111.484375 129.570312 111.394531 128.636719 111.394531 127.695312 C 111.394531 126.753906 111.484375 125.820312 111.667969 124.894531 C 111.851562 123.972656 112.125 123.074219 112.484375 122.203125 C 112.84375 121.332031 113.285156 120.507812 113.808594 119.722656 C 114.328125 118.941406 114.921875 118.214844 115.589844 117.550781 C 116.253906 116.882812 116.976562 116.289062 117.757812 115.765625 C 118.542969 115.242188 119.367188 114.800781 120.234375 114.4375 C 121.105469 114.078125 122 113.808594 122.921875 113.621094 C 123.847656 113.4375 124.777344 113.347656 125.71875 113.347656 C 126.660156 113.347656 127.589844 113.4375 128.511719 113.621094 C 129.433594 113.808594 130.332031 114.078125 131.199219 114.4375 C 132.070312 114.800781 132.894531 115.242188 133.675781 115.765625 C 134.457031 116.289062 135.183594 116.882812 135.847656 117.550781 C 136.511719 118.214844 137.105469 118.941406 137.628906 119.722656 C 138.152344 120.507812 138.59375 121.332031 138.953125 122.203125 C 139.3125 123.074219 139.582031 123.972656 139.765625 124.894531 C 139.949219 125.820312 140.042969 126.753906 140.042969 127.695312 Z M 140.042969 127.695312 " fill-opacity="1" fill-rule="nonzero"/><path fill="#662113" d="M 264.1875 127.695312 C 264.1875 128.636719 264.097656 129.570312 263.914062 130.492188 C 263.730469 131.417969 263.457031 132.3125 263.097656 133.183594 C 262.738281 134.054688 262.296875 134.882812 261.773438 135.664062 C 261.253906 136.449219 260.660156 137.171875 259.992188 137.839844 C 259.328125 138.503906 258.605469 139.101562 257.824219 139.625 C 257.039062 140.148438 256.214844 140.589844 255.347656 140.949219 C 254.476562 141.308594 253.582031 141.582031 252.660156 141.765625 C 251.738281 141.949219 250.804688 142.042969 249.863281 142.042969 C 248.925781 142.042969 247.992188 141.949219 247.070312 141.765625 C 246.148438 141.582031 245.25 141.308594 244.382812 140.949219 C 243.515625 140.589844 242.6875 140.148438 241.90625 139.625 C 241.125 139.101562 240.402344 138.503906 239.734375 137.839844 C 239.070312 137.171875 238.476562 136.449219 237.953125 135.664062 C 237.429688 134.882812 236.992188 134.054688 236.628906 133.183594 C 236.269531 132.3125 236 131.417969 235.816406 130.492188 C 235.632812 129.570312 235.539062 128.636719 235.539062 127.695312 C 235.539062 126.753906 235.632812 125.820312 235.816406 124.894531 C 236 123.972656 236.269531 123.074219 236.628906 122.203125 C 236.992188 121.332031 237.429688 120.507812 237.953125 119.722656 C 238.476562 118.941406 239.070312 118.214844 239.734375 117.550781 C 240.402344 116.882812 241.125 116.289062 241.90625 115.765625 C 242.6875 115.242188 243.515625 114.800781 244.382812 114.4375 C 245.25 114.078125 246.148438 113.808594 247.070312 113.621094 C 247.992188 113.4375 248.925781 113.347656 249.863281 113.347656 C 250.804688 113.347656 251.738281 113.4375 252.660156 113.621094 C 253.582031 113.808594 254.476562 114.078125 255.347656 114.4375 C 256.214844 114.800781 257.039062 115.242188 257.824219 115.765625 C 258.605469 116.289062 259.328125 116.882812 259.992188 117.550781 C 260.660156 118.214844 261.253906 118.941406 261.773438 119.722656 C 262.296875 120.507812 262.738281 121.332031 263.097656 122.203125 C 263.457031 123.074219 263.730469 123.972656 263.914062 124.894531 C 264.097656 125.820312 264.1875 126.753906 264.1875 127.695312 Z M 264.1875 127.695312 " fill-opacity="1" fill-rule="nonzero"/><g clip-path="url(#c23ea494e3)"><path fill="#f3e1dc" d="M 311.9375 256.816406 L 283.289062 247.25 L 245.089844 304.640625 L 216.441406 256.816406 L 197.339844 275.945312 L 159.140625 256.816406 L 130.492188 295.074219 L 101.84375 237.6875 L 73.195312 256.816406 L 41.738281 182.546875 C 37.375 195.449219 34.996094 209.144531 34.996094 223.339844 C 34.996094 299.941406 103.410156 362.027344 187.792969 362.027344 C 272.171875 362.027344 340.585938 299.941406 340.585938 223.339844 C 340.585938 211.441406 338.761719 199.964844 335.648438 188.9375 Z M 311.9375 256.816406 " fill-opacity="1" fill-rule="nonzero"/></g></svg>