<svg xmlns="http://www.w3.org/2000/svg" xmlns:xlink="http://www.w3.org/1999/xlink" width="500" zoomAndPan="magnify" viewBox="0 0 375 374.999991" height="500" preserveAspectRatio="xMidYMid meet" version="1.0"><defs><clipPath id="cd3462428a"><path d="M 61.480469 206 L 313.480469 206 L 313.480469 371 L 61.480469 371 Z M 61.480469 206 " clip-rule="nonzero"/></clipPath></defs><g clip-path="url(#cd3462428a)"><path fill="#f3e1dc" d="M 61.480469 218.007812 C 64.09375 251.71875 67.171875 286.914062 84.984375 315.621094 C 88.089844 320.59375 91.574219 325.277344 95.449219 329.675781 C 99.320312 334.078125 103.527344 338.128906 108.0625 341.839844 C 112.601562 345.546875 117.410156 348.859375 122.492188 351.777344 C 127.574219 354.695312 132.859375 357.179688 138.347656 359.230469 C 151.371094 363.644531 164.71875 366.570312 178.394531 368.007812 C 198.824219 370.742188 220.359375 372.382812 239.351562 364.375 C 266.5 352.917969 282.019531 324.710938 295.105469 298.289062 C 303.550781 282.957031 309.726562 266.761719 313.632812 249.699219 C 306.761719 253.203125 299.609375 255.988281 292.179688 258.058594 C 284.75 260.125 277.191406 261.4375 269.496094 261.988281 C 268.96875 262.125 268.429688 262.210938 267.882812 262.238281 C 267.335938 262.265625 266.789062 262.238281 266.25 262.15625 C 265.707031 262.070312 265.179688 261.933594 264.667969 261.742188 C 264.152344 261.550781 263.664062 261.308594 263.203125 261.019531 C 262.738281 260.726562 262.308594 260.390625 261.914062 260.011719 C 261.519531 259.632812 261.164062 259.214844 260.855469 258.765625 C 260.546875 258.3125 260.285156 257.835938 260.074219 257.328125 C 259.859375 256.824219 259.703125 256.300781 259.597656 255.765625 C 254.933594 244.429688 252.089844 232.65625 251.066406 220.441406 C 240.761719 225.488281 229.917969 228.695312 218.527344 230.058594 C 216.597656 230.414062 214.683594 230.34375 212.785156 229.847656 C 210.519531 228.878906 208.636719 227.421875 207.132812 225.472656 C 202.339844 220.1875 197.550781 214.921875 192.769531 209.671875 C 192.238281 208.925781 191.585938 208.300781 190.820312 207.792969 C 190.054688 207.289062 189.222656 206.9375 188.328125 206.742188 C 187.035156 206.75 185.832031 207.074219 184.714844 207.71875 L 144.414062 226.640625 C 143.167969 227.410156 141.828125 227.941406 140.394531 228.238281 C 138.964844 228.535156 137.523438 228.578125 136.074219 228.371094 C 130.847656 226.941406 129.515625 219.679688 124.738281 217.148438 C 114.707031 211.839844 105.796875 231.367188 94.730469 228.851562 C 87.253906 227.140625 85.582031 216.890625 79.371094 212.390625 C 78.730469 211.960938 78.058594 211.597656 77.351562 211.296875 C 76.644531 210.996094 75.914062 210.761719 75.160156 210.597656 C 74.410156 210.433594 73.648438 210.34375 72.878906 210.320312 C 72.109375 210.300781 71.347656 210.351562 70.585938 210.476562 C 69.828125 210.597656 69.085938 210.792969 68.363281 211.054688 C 67.640625 211.320312 66.949219 211.648438 66.289062 212.042969 C 65.628906 212.433594 65.007812 212.886719 64.433594 213.398438 C 63.855469 213.90625 63.332031 214.464844 62.863281 215.074219 " fill-opacity="1" fill-rule="nonzero"/></g><path fill="#f3e1dc" d="M 123.167969 88.027344 C 122.917969 88.8125 122.894531 89.605469 123.097656 90.40625 C 123.300781 91.203125 123.699219 91.890625 124.296875 92.460938 C 124.890625 93.027344 125.59375 93.398438 126.402344 93.566406 C 127.207031 93.734375 127.996094 93.671875 128.769531 93.386719 C 137.359375 90.1875 150.691406 86.578125 152.652344 94.035156 C 157.792969 113.574219 171.839844 99.503906 178.011719 96.429688 L 189.492188 107.914062 C 189.980469 108.402344 190.527344 108.816406 191.128906 109.152344 C 191.734375 109.488281 192.371094 109.734375 193.042969 109.890625 C 193.71875 110.050781 194.398438 110.113281 195.089844 110.078125 C 195.777344 110.046875 196.453125 109.917969 197.105469 109.695312 L 220.164062 101.914062 C 220.164062 101.914062 235.921875 117.679688 237.976562 117.679688 C 244.996094 115.085938 251.851562 112.117188 258.542969 108.765625 C 258.542969 108.765625 274.992188 123.53125 277.046875 124.882812 C 279.101562 126.234375 303.433594 112.882812 303.433594 112.882812 C 303.433594 112.882812 302.066406 22.71875 238.324219 11.066406 C 180.128906 0.433594 132.785156 56.085938 123.167969 88.027344 Z M 123.167969 88.027344 " fill-opacity="1" fill-rule="nonzero"/></svg>